%TF.GenerationSoftware,KiCad,Pcbnew,(5.1.12)-1*%
%TF.CreationDate,2024-12-20T23:38:59+09:00*%
%TF.ProjectId,Cuicuit,43756963-7569-4742-9e6b-696361645f70,rev?*%
%TF.SameCoordinates,Original*%
%TF.FileFunction,Copper,L2,Bot*%
%TF.FilePolarity,Positive*%
%FSLAX46Y46*%
G04 Gerber Fmt 4.6, Leading zero omitted, Abs format (unit mm)*
G04 Created by KiCad (PCBNEW (5.1.12)-1) date 2024-12-20 23:38:59*
%MOMM*%
%LPD*%
G01*
G04 APERTURE LIST*
%TA.AperFunction,ComponentPad*%
%ADD10C,1.600000*%
%TD*%
%TA.AperFunction,ComponentPad*%
%ADD11O,1.600000X1.600000*%
%TD*%
%TA.AperFunction,ComponentPad*%
%ADD12C,1.500000*%
%TD*%
%TA.AperFunction,ComponentPad*%
%ADD13R,1.500000X1.500000*%
%TD*%
%TA.AperFunction,ComponentPad*%
%ADD14R,1.600000X1.600000*%
%TD*%
%TA.AperFunction,ComponentPad*%
%ADD15R,1.700000X1.700000*%
%TD*%
%TA.AperFunction,ComponentPad*%
%ADD16O,1.700000X1.700000*%
%TD*%
%TA.AperFunction,Conductor*%
%ADD17C,0.500000*%
%TD*%
%TA.AperFunction,Conductor*%
%ADD18C,0.250000*%
%TD*%
%TA.AperFunction,Conductor*%
%ADD19C,0.254000*%
%TD*%
%TA.AperFunction,Conductor*%
%ADD20C,0.100000*%
%TD*%
G04 APERTURE END LIST*
D10*
%TO.P,1N4007,1*%
%TO.N,Net-(1N4007-Pad1)*%
X140540000Y-118180000D03*
D11*
%TO.P,1N4007,2*%
%TO.N,+3.3VADC*%
X140540000Y-128340000D03*
%TD*%
D12*
%TO.P,2SC1815,2*%
%TO.N,Net-(1N4007-Pad1)*%
X135290000Y-132890000D03*
%TO.P,2SC1815,3*%
%TO.N,Net-(2SC1815-Pad3)*%
X135290000Y-130350000D03*
D13*
%TO.P,2SC1815,1*%
%TO.N,0*%
X135290000Y-135430000D03*
%TD*%
D14*
%TO.P,Arduino_nano_33_ble1,1*%
%TO.N,RX*%
X131095001Y-110765001D03*
D11*
%TO.P,Arduino_nano_33_ble1,17*%
%TO.N,+3.3VADC*%
X146335001Y-143785001D03*
%TO.P,Arduino_nano_33_ble1,2*%
%TO.N,TX*%
X131095001Y-113305001D03*
%TO.P,Arduino_nano_33_ble1,18*%
%TO.N,Net-(Arduino_nano_33_ble1-Pad18)*%
X146335001Y-141245001D03*
%TO.P,Arduino_nano_33_ble1,3*%
%TO.N,Net-(Arduino_nano_33_ble1-Pad3)*%
X131095001Y-115845001D03*
%TO.P,Arduino_nano_33_ble1,19*%
%TO.N,Net-(Arduino_nano_33_ble1-Pad19)*%
X146335001Y-138705001D03*
%TO.P,Arduino_nano_33_ble1,4*%
%TO.N,0*%
X131095001Y-118385001D03*
%TO.P,Arduino_nano_33_ble1,20*%
%TO.N,Net-(Arduino_nano_33_ble1-Pad20)*%
X146335001Y-136165001D03*
%TO.P,Arduino_nano_33_ble1,5*%
%TO.N,Net-(Arduino_nano_33_ble1-Pad5)*%
X131095001Y-120925001D03*
%TO.P,Arduino_nano_33_ble1,21*%
%TO.N,Net-(Arduino_nano_33_ble1-Pad21)*%
X146335001Y-133625001D03*
%TO.P,Arduino_nano_33_ble1,6*%
%TO.N,Net-(Arduino_nano_33_ble1-Pad6)*%
X131095001Y-123465001D03*
%TO.P,Arduino_nano_33_ble1,22*%
%TO.N,Net-(Arduino_nano_33_ble1-Pad22)*%
X146335001Y-131085001D03*
%TO.P,Arduino_nano_33_ble1,7*%
%TO.N,Net-(Arduino_nano_33_ble1-Pad7)*%
X131095001Y-126005001D03*
%TO.P,Arduino_nano_33_ble1,23*%
%TO.N,Net-(Arduino_nano_33_ble1-Pad23)*%
X146335001Y-128545001D03*
%TO.P,Arduino_nano_33_ble1,8*%
%TO.N,Net-(Arduino_nano_33_ble1-Pad8)*%
X131095001Y-128545001D03*
%TO.P,Arduino_nano_33_ble1,24*%
%TO.N,Net-(Arduino_nano_33_ble1-Pad24)*%
X146335001Y-126005001D03*
%TO.P,Arduino_nano_33_ble1,9*%
%TO.N,Net-(Arduino_nano_33_ble1-Pad9)*%
X131095001Y-131085001D03*
%TO.P,Arduino_nano_33_ble1,25*%
%TO.N,Net-(Arduino_nano_33_ble1-Pad25)*%
X146335001Y-123465001D03*
%TO.P,Arduino_nano_33_ble1,10*%
%TO.N,Net-(Arduino_nano_33_ble1-Pad10)*%
X131095001Y-133625001D03*
%TO.P,Arduino_nano_33_ble1,26*%
%TO.N,A7*%
X146335001Y-120925001D03*
%TO.P,Arduino_nano_33_ble1,11*%
%TO.N,Net-(Arduino_nano_33_ble1-Pad11)*%
X131095001Y-136165001D03*
%TO.P,Arduino_nano_33_ble1,27*%
%TO.N,Net-(Arduino_nano_33_ble1-Pad27)*%
X146335001Y-118385001D03*
%TO.P,Arduino_nano_33_ble1,12*%
%TO.N,D9*%
X131095001Y-138705001D03*
%TO.P,Arduino_nano_33_ble1,28*%
%TO.N,Net-(Arduino_nano_33_ble1-Pad28)*%
X146335001Y-115845001D03*
%TO.P,Arduino_nano_33_ble1,13*%
%TO.N,Net-(Arduino_nano_33_ble1-Pad13)*%
X131095001Y-141245001D03*
%TO.P,Arduino_nano_33_ble1,29*%
%TO.N,0*%
X146335001Y-113305001D03*
%TO.P,Arduino_nano_33_ble1,14*%
%TO.N,Net-(Arduino_nano_33_ble1-Pad14)*%
X131095001Y-143785001D03*
%TO.P,Arduino_nano_33_ble1,30*%
%TO.N,Net-(Arduino_nano_33_ble1-Pad30)*%
X146335001Y-110765001D03*
%TO.P,Arduino_nano_33_ble1,15*%
%TO.N,Net-(Arduino_nano_33_ble1-Pad15)*%
X131095001Y-146325001D03*
%TO.P,Arduino_nano_33_ble1,16*%
%TO.N,Net-(Arduino_nano_33_ble1-Pad16)*%
X146335001Y-146325001D03*
%TD*%
D15*
%TO.P,Bend,1*%
%TO.N,0*%
X139290000Y-134680000D03*
D16*
%TO.P,Bend,2*%
%TO.N,A7*%
X139290000Y-132140000D03*
%TD*%
D15*
%TO.P,BLE,1*%
%TO.N,Net-(Bluetooth1-Pad1)*%
X134290000Y-114180000D03*
D16*
%TO.P,BLE,2*%
%TO.N,RX*%
X134290000Y-116720000D03*
%TO.P,BLE,3*%
%TO.N,TX*%
X134290000Y-119260000D03*
%TO.P,BLE,4*%
%TO.N,0*%
X134290000Y-121800000D03*
%TO.P,BLE,5*%
%TO.N,+3.3VADC*%
X134290000Y-124340000D03*
%TO.P,BLE,6*%
%TO.N,Net-(Bluetooth1-Pad6)*%
X134290000Y-126880000D03*
%TD*%
D15*
%TO.P,DCDC,1*%
%TO.N,+3V0*%
X143040000Y-140930000D03*
D16*
%TO.P,DCDC,2*%
%TO.N,0*%
X143040000Y-138390000D03*
%TO.P,DCDC,3*%
%TO.N,+3.3VADC*%
X143040000Y-135850000D03*
%TD*%
%TO.P,Motor,2*%
%TO.N,Net-(1N4007-Pad1)*%
X134790000Y-138390000D03*
D15*
%TO.P,Motor,1*%
%TO.N,+3.3VADC*%
X134790000Y-140930000D03*
%TD*%
D11*
%TO.P,R1,2*%
%TO.N,+3.3VADC*%
X143540000Y-128340000D03*
D10*
%TO.P,R1,1*%
%TO.N,A7*%
X143540000Y-118180000D03*
%TD*%
%TO.P,R2,1*%
%TO.N,Net-(2SC1815-Pad3)*%
X137540000Y-118180000D03*
D11*
%TO.P,R2,2*%
%TO.N,D9*%
X137540000Y-128340000D03*
%TD*%
D15*
%TO.P,PW,1*%
%TO.N,+3V0*%
X138790000Y-140930000D03*
D16*
%TO.P,PW,2*%
%TO.N,0*%
X138790000Y-138390000D03*
%TD*%
D17*
%TO.N,Net-(1N4007-Pad1)*%
X133940001Y-137540001D02*
X134790000Y-138390000D01*
X133940001Y-134239999D02*
X133940001Y-137540001D01*
X135290000Y-132890000D02*
X133940001Y-134239999D01*
X139040000Y-119680000D02*
X140540000Y-118180000D01*
X139040000Y-130200660D02*
X139040000Y-119680000D01*
X136350660Y-132890000D02*
X139040000Y-130200660D01*
X135290000Y-132890000D02*
X136350660Y-132890000D01*
%TO.N,Net-(2SC1815-Pad3)*%
X135290000Y-127804002D02*
X135290000Y-130350000D01*
X137540000Y-125554002D02*
X135290000Y-127804002D01*
X137540000Y-118180000D02*
X137540000Y-125554002D01*
D18*
%TO.N,RX*%
X133114999Y-115544999D02*
X134290000Y-116720000D01*
X133114999Y-112784999D02*
X133114999Y-115544999D01*
X131095001Y-110765001D02*
X133114999Y-112784999D01*
%TO.N,TX*%
X132220002Y-117190002D02*
X134290000Y-119260000D01*
X132220002Y-114430002D02*
X132220002Y-117190002D01*
X131095001Y-113305001D02*
X132220002Y-114430002D01*
%TO.N,A7*%
X143316000Y-132140000D02*
X139290000Y-132140000D01*
X143383000Y-132207000D02*
X143316000Y-132140000D01*
X144780000Y-130810000D02*
X143383000Y-132207000D01*
X144780000Y-122480002D02*
X144780000Y-130810000D01*
X146335001Y-120925001D02*
X144780000Y-122480002D01*
X146285001Y-120925001D02*
X146335001Y-120925001D01*
X143540000Y-118180000D02*
X146285001Y-120925001D01*
D17*
%TO.N,D9*%
X132345002Y-137455000D02*
X131095001Y-138705001D01*
X132345002Y-134058996D02*
X132345002Y-137455000D01*
X135726003Y-131689999D02*
X134713999Y-131689999D01*
X137540000Y-129876002D02*
X135726003Y-131689999D01*
X134713999Y-131689999D02*
X132345002Y-134058996D01*
X137540000Y-128340000D02*
X137540000Y-129876002D01*
%TD*%
D19*
%TO.N,0*%
X145063321Y-131764728D02*
X145220364Y-131999760D01*
X145420242Y-132199638D01*
X145652760Y-132355001D01*
X145420242Y-132510364D01*
X145220364Y-132710242D01*
X145063321Y-132945274D01*
X144955148Y-133206427D01*
X144900001Y-133483666D01*
X144900001Y-133766336D01*
X144955148Y-134043575D01*
X145063321Y-134304728D01*
X145220364Y-134539760D01*
X145420242Y-134739638D01*
X145652760Y-134895001D01*
X145420242Y-135050364D01*
X145220364Y-135250242D01*
X145063321Y-135485274D01*
X144955148Y-135746427D01*
X144900001Y-136023666D01*
X144900001Y-136306336D01*
X144955148Y-136583575D01*
X145063321Y-136844728D01*
X145220364Y-137079760D01*
X145420242Y-137279638D01*
X145652760Y-137435001D01*
X145420242Y-137590364D01*
X145220364Y-137790242D01*
X145063321Y-138025274D01*
X144955148Y-138286427D01*
X144900001Y-138563666D01*
X144900001Y-138846336D01*
X144955148Y-139123575D01*
X145063321Y-139384728D01*
X145220364Y-139619760D01*
X145420242Y-139819638D01*
X145652760Y-139975001D01*
X145420242Y-140130364D01*
X145220364Y-140330242D01*
X145063321Y-140565274D01*
X144955148Y-140826427D01*
X144900001Y-141103666D01*
X144900001Y-141386336D01*
X144955148Y-141663575D01*
X145063321Y-141924728D01*
X145220364Y-142159760D01*
X145420242Y-142359638D01*
X145652760Y-142515001D01*
X145420242Y-142670364D01*
X145220364Y-142870242D01*
X145063321Y-143105274D01*
X144955148Y-143366427D01*
X144900001Y-143643666D01*
X144900001Y-143926336D01*
X144955148Y-144203575D01*
X145063321Y-144464728D01*
X145220364Y-144699760D01*
X145420242Y-144899638D01*
X145652760Y-145055001D01*
X145420242Y-145210364D01*
X145220364Y-145410242D01*
X145063321Y-145645274D01*
X144955148Y-145906427D01*
X144900001Y-146183666D01*
X144900001Y-146466336D01*
X144955148Y-146743575D01*
X145063321Y-147004728D01*
X145220364Y-147239760D01*
X145420242Y-147439638D01*
X145655274Y-147596681D01*
X145916427Y-147704854D01*
X146193666Y-147760001D01*
X146476336Y-147760001D01*
X146753575Y-147704854D01*
X146913000Y-147638818D01*
X146913000Y-149445000D01*
X130275000Y-149445000D01*
X130275000Y-147502953D01*
X130415274Y-147596681D01*
X130676427Y-147704854D01*
X130953666Y-147760001D01*
X131236336Y-147760001D01*
X131513575Y-147704854D01*
X131774728Y-147596681D01*
X132009760Y-147439638D01*
X132209638Y-147239760D01*
X132366681Y-147004728D01*
X132474854Y-146743575D01*
X132530001Y-146466336D01*
X132530001Y-146209872D01*
X136555000Y-146209872D01*
X136555000Y-146650128D01*
X136640890Y-147081925D01*
X136809369Y-147488669D01*
X137053962Y-147854729D01*
X137365271Y-148166038D01*
X137731331Y-148410631D01*
X138138075Y-148579110D01*
X138569872Y-148665000D01*
X139010128Y-148665000D01*
X139441925Y-148579110D01*
X139848669Y-148410631D01*
X140214729Y-148166038D01*
X140526038Y-147854729D01*
X140770631Y-147488669D01*
X140939110Y-147081925D01*
X141025000Y-146650128D01*
X141025000Y-146209872D01*
X140939110Y-145778075D01*
X140770631Y-145371331D01*
X140526038Y-145005271D01*
X140214729Y-144693962D01*
X139848669Y-144449369D01*
X139441925Y-144280890D01*
X139010128Y-144195000D01*
X138569872Y-144195000D01*
X138138075Y-144280890D01*
X137731331Y-144449369D01*
X137365271Y-144693962D01*
X137053962Y-145005271D01*
X136809369Y-145371331D01*
X136640890Y-145778075D01*
X136555000Y-146209872D01*
X132530001Y-146209872D01*
X132530001Y-146183666D01*
X132474854Y-145906427D01*
X132366681Y-145645274D01*
X132209638Y-145410242D01*
X132009760Y-145210364D01*
X131777242Y-145055001D01*
X132009760Y-144899638D01*
X132209638Y-144699760D01*
X132366681Y-144464728D01*
X132474854Y-144203575D01*
X132530001Y-143926336D01*
X132530001Y-143643666D01*
X132474854Y-143366427D01*
X132366681Y-143105274D01*
X132209638Y-142870242D01*
X132009760Y-142670364D01*
X131777242Y-142515001D01*
X132009760Y-142359638D01*
X132209638Y-142159760D01*
X132366681Y-141924728D01*
X132474854Y-141663575D01*
X132530001Y-141386336D01*
X132530001Y-141103666D01*
X132474854Y-140826427D01*
X132366681Y-140565274D01*
X132209638Y-140330242D01*
X132009760Y-140130364D01*
X131777242Y-139975001D01*
X132009760Y-139819638D01*
X132209638Y-139619760D01*
X132366681Y-139384728D01*
X132474854Y-139123575D01*
X132530001Y-138846336D01*
X132530001Y-138563666D01*
X132523018Y-138528562D01*
X132940051Y-138111530D01*
X132973819Y-138083817D01*
X133021865Y-138025274D01*
X133060212Y-137978548D01*
X133084413Y-137949059D01*
X133119785Y-137882881D01*
X133200591Y-138034060D01*
X133283469Y-138135047D01*
X133283472Y-138135050D01*
X133311185Y-138168818D01*
X133318680Y-138174969D01*
X133305000Y-138243740D01*
X133305000Y-138536260D01*
X133362068Y-138823158D01*
X133474010Y-139093411D01*
X133636525Y-139336632D01*
X133768380Y-139468487D01*
X133695820Y-139490498D01*
X133585506Y-139549463D01*
X133488815Y-139628815D01*
X133409463Y-139725506D01*
X133350498Y-139835820D01*
X133314188Y-139955518D01*
X133301928Y-140080000D01*
X133301928Y-141780000D01*
X133314188Y-141904482D01*
X133350498Y-142024180D01*
X133409463Y-142134494D01*
X133488815Y-142231185D01*
X133585506Y-142310537D01*
X133695820Y-142369502D01*
X133815518Y-142405812D01*
X133940000Y-142418072D01*
X135640000Y-142418072D01*
X135764482Y-142405812D01*
X135884180Y-142369502D01*
X135994494Y-142310537D01*
X136091185Y-142231185D01*
X136170537Y-142134494D01*
X136229502Y-142024180D01*
X136265812Y-141904482D01*
X136278072Y-141780000D01*
X136278072Y-140080000D01*
X137301928Y-140080000D01*
X137301928Y-141780000D01*
X137314188Y-141904482D01*
X137350498Y-142024180D01*
X137409463Y-142134494D01*
X137488815Y-142231185D01*
X137585506Y-142310537D01*
X137695820Y-142369502D01*
X137815518Y-142405812D01*
X137940000Y-142418072D01*
X139640000Y-142418072D01*
X139764482Y-142405812D01*
X139884180Y-142369502D01*
X139994494Y-142310537D01*
X140091185Y-142231185D01*
X140170537Y-142134494D01*
X140229502Y-142024180D01*
X140265812Y-141904482D01*
X140278072Y-141780000D01*
X140278072Y-140080000D01*
X141551928Y-140080000D01*
X141551928Y-141780000D01*
X141564188Y-141904482D01*
X141600498Y-142024180D01*
X141659463Y-142134494D01*
X141738815Y-142231185D01*
X141835506Y-142310537D01*
X141945820Y-142369502D01*
X142065518Y-142405812D01*
X142190000Y-142418072D01*
X143890000Y-142418072D01*
X144014482Y-142405812D01*
X144134180Y-142369502D01*
X144244494Y-142310537D01*
X144341185Y-142231185D01*
X144420537Y-142134494D01*
X144479502Y-142024180D01*
X144515812Y-141904482D01*
X144528072Y-141780000D01*
X144528072Y-140080000D01*
X144515812Y-139955518D01*
X144479502Y-139835820D01*
X144420537Y-139725506D01*
X144341185Y-139628815D01*
X144244494Y-139549463D01*
X144134180Y-139490498D01*
X144053534Y-139466034D01*
X144137588Y-139390269D01*
X144311641Y-139156920D01*
X144436825Y-138894099D01*
X144481476Y-138746890D01*
X144360155Y-138517000D01*
X143167000Y-138517000D01*
X143167000Y-138537000D01*
X142913000Y-138537000D01*
X142913000Y-138517000D01*
X141719845Y-138517000D01*
X141598524Y-138746890D01*
X141643175Y-138894099D01*
X141768359Y-139156920D01*
X141942412Y-139390269D01*
X142026466Y-139466034D01*
X141945820Y-139490498D01*
X141835506Y-139549463D01*
X141738815Y-139628815D01*
X141659463Y-139725506D01*
X141600498Y-139835820D01*
X141564188Y-139955518D01*
X141551928Y-140080000D01*
X140278072Y-140080000D01*
X140265812Y-139955518D01*
X140229502Y-139835820D01*
X140170537Y-139725506D01*
X140091185Y-139628815D01*
X139994494Y-139549463D01*
X139884180Y-139490498D01*
X139803534Y-139466034D01*
X139887588Y-139390269D01*
X140061641Y-139156920D01*
X140186825Y-138894099D01*
X140231476Y-138746890D01*
X140110155Y-138517000D01*
X138917000Y-138517000D01*
X138917000Y-138537000D01*
X138663000Y-138537000D01*
X138663000Y-138517000D01*
X137469845Y-138517000D01*
X137348524Y-138746890D01*
X137393175Y-138894099D01*
X137518359Y-139156920D01*
X137692412Y-139390269D01*
X137776466Y-139466034D01*
X137695820Y-139490498D01*
X137585506Y-139549463D01*
X137488815Y-139628815D01*
X137409463Y-139725506D01*
X137350498Y-139835820D01*
X137314188Y-139955518D01*
X137301928Y-140080000D01*
X136278072Y-140080000D01*
X136265812Y-139955518D01*
X136229502Y-139835820D01*
X136170537Y-139725506D01*
X136091185Y-139628815D01*
X135994494Y-139549463D01*
X135884180Y-139490498D01*
X135811620Y-139468487D01*
X135943475Y-139336632D01*
X136105990Y-139093411D01*
X136217932Y-138823158D01*
X136275000Y-138536260D01*
X136275000Y-138243740D01*
X136233103Y-138033110D01*
X137348524Y-138033110D01*
X137469845Y-138263000D01*
X138663000Y-138263000D01*
X138663000Y-137069186D01*
X138917000Y-137069186D01*
X138917000Y-138263000D01*
X140110155Y-138263000D01*
X140231476Y-138033110D01*
X140186825Y-137885901D01*
X140061641Y-137623080D01*
X139887588Y-137389731D01*
X139671355Y-137194822D01*
X139421252Y-137045843D01*
X139146891Y-136948519D01*
X138917000Y-137069186D01*
X138663000Y-137069186D01*
X138433109Y-136948519D01*
X138158748Y-137045843D01*
X137908645Y-137194822D01*
X137692412Y-137389731D01*
X137518359Y-137623080D01*
X137393175Y-137885901D01*
X137348524Y-138033110D01*
X136233103Y-138033110D01*
X136217932Y-137956842D01*
X136105990Y-137686589D01*
X135943475Y-137443368D01*
X135736632Y-137236525D01*
X135493411Y-137074010D01*
X135223158Y-136962068D01*
X134936260Y-136905000D01*
X134825001Y-136905000D01*
X134825001Y-136816186D01*
X135004250Y-136815000D01*
X135163000Y-136656250D01*
X135163000Y-135557000D01*
X135417000Y-135557000D01*
X135417000Y-136656250D01*
X135575750Y-136815000D01*
X136040000Y-136818072D01*
X136164482Y-136805812D01*
X136284180Y-136769502D01*
X136394494Y-136710537D01*
X136491185Y-136631185D01*
X136570537Y-136534494D01*
X136629502Y-136424180D01*
X136665812Y-136304482D01*
X136678072Y-136180000D01*
X136675000Y-135715750D01*
X136516250Y-135557000D01*
X135417000Y-135557000D01*
X135163000Y-135557000D01*
X135143000Y-135557000D01*
X135143000Y-135530000D01*
X137801928Y-135530000D01*
X137814188Y-135654482D01*
X137850498Y-135774180D01*
X137909463Y-135884494D01*
X137988815Y-135981185D01*
X138085506Y-136060537D01*
X138195820Y-136119502D01*
X138315518Y-136155812D01*
X138440000Y-136168072D01*
X139004250Y-136165000D01*
X139163000Y-136006250D01*
X139163000Y-134807000D01*
X139417000Y-134807000D01*
X139417000Y-136006250D01*
X139575750Y-136165000D01*
X140140000Y-136168072D01*
X140264482Y-136155812D01*
X140384180Y-136119502D01*
X140494494Y-136060537D01*
X140591185Y-135981185D01*
X140670537Y-135884494D01*
X140729502Y-135774180D01*
X140750869Y-135703740D01*
X141555000Y-135703740D01*
X141555000Y-135996260D01*
X141612068Y-136283158D01*
X141724010Y-136553411D01*
X141886525Y-136796632D01*
X142093368Y-137003475D01*
X142275534Y-137125195D01*
X142158645Y-137194822D01*
X141942412Y-137389731D01*
X141768359Y-137623080D01*
X141643175Y-137885901D01*
X141598524Y-138033110D01*
X141719845Y-138263000D01*
X142913000Y-138263000D01*
X142913000Y-138243000D01*
X143167000Y-138243000D01*
X143167000Y-138263000D01*
X144360155Y-138263000D01*
X144481476Y-138033110D01*
X144436825Y-137885901D01*
X144311641Y-137623080D01*
X144137588Y-137389731D01*
X143921355Y-137194822D01*
X143804466Y-137125195D01*
X143986632Y-137003475D01*
X144193475Y-136796632D01*
X144355990Y-136553411D01*
X144467932Y-136283158D01*
X144525000Y-135996260D01*
X144525000Y-135703740D01*
X144467932Y-135416842D01*
X144355990Y-135146589D01*
X144193475Y-134903368D01*
X143986632Y-134696525D01*
X143743411Y-134534010D01*
X143473158Y-134422068D01*
X143186260Y-134365000D01*
X142893740Y-134365000D01*
X142606842Y-134422068D01*
X142336589Y-134534010D01*
X142093368Y-134696525D01*
X141886525Y-134903368D01*
X141724010Y-135146589D01*
X141612068Y-135416842D01*
X141555000Y-135703740D01*
X140750869Y-135703740D01*
X140765812Y-135654482D01*
X140778072Y-135530000D01*
X140775000Y-134965750D01*
X140616250Y-134807000D01*
X139417000Y-134807000D01*
X139163000Y-134807000D01*
X137963750Y-134807000D01*
X137805000Y-134965750D01*
X137801928Y-135530000D01*
X135143000Y-135530000D01*
X135143000Y-135303000D01*
X135163000Y-135303000D01*
X135163000Y-135283000D01*
X135417000Y-135283000D01*
X135417000Y-135303000D01*
X136516250Y-135303000D01*
X136675000Y-135144250D01*
X136678072Y-134680000D01*
X136665812Y-134555518D01*
X136629502Y-134435820D01*
X136570537Y-134325506D01*
X136491185Y-134228815D01*
X136394494Y-134149463D01*
X136284180Y-134090498D01*
X136164482Y-134054188D01*
X136056517Y-134043555D01*
X136172886Y-133965799D01*
X136360359Y-133778326D01*
X136394129Y-133775000D01*
X136394137Y-133775000D01*
X136524150Y-133762195D01*
X136690973Y-133711589D01*
X136844719Y-133629411D01*
X136979477Y-133518817D01*
X137007194Y-133485044D01*
X137878766Y-132613472D01*
X137974010Y-132843411D01*
X138136525Y-133086632D01*
X138268380Y-133218487D01*
X138195820Y-133240498D01*
X138085506Y-133299463D01*
X137988815Y-133378815D01*
X137909463Y-133475506D01*
X137850498Y-133585820D01*
X137814188Y-133705518D01*
X137801928Y-133830000D01*
X137805000Y-134394250D01*
X137963750Y-134553000D01*
X139163000Y-134553000D01*
X139163000Y-134533000D01*
X139417000Y-134533000D01*
X139417000Y-134553000D01*
X140616250Y-134553000D01*
X140775000Y-134394250D01*
X140778072Y-133830000D01*
X140765812Y-133705518D01*
X140729502Y-133585820D01*
X140670537Y-133475506D01*
X140591185Y-133378815D01*
X140494494Y-133299463D01*
X140384180Y-133240498D01*
X140311620Y-133218487D01*
X140443475Y-133086632D01*
X140568178Y-132900000D01*
X143067282Y-132900000D01*
X143090754Y-132912546D01*
X143198648Y-132945274D01*
X143234014Y-132956002D01*
X143382999Y-132970676D01*
X143383000Y-132970676D01*
X143531985Y-132956002D01*
X143675246Y-132912546D01*
X143807276Y-132841974D01*
X143894002Y-132770799D01*
X143894007Y-132770794D01*
X143923000Y-132747000D01*
X143946793Y-132718008D01*
X145015507Y-131649295D01*
X145063321Y-131764728D01*
%TA.AperFunction,Conductor*%
D20*
G36*
X145063321Y-131764728D02*
G01*
X145220364Y-131999760D01*
X145420242Y-132199638D01*
X145652760Y-132355001D01*
X145420242Y-132510364D01*
X145220364Y-132710242D01*
X145063321Y-132945274D01*
X144955148Y-133206427D01*
X144900001Y-133483666D01*
X144900001Y-133766336D01*
X144955148Y-134043575D01*
X145063321Y-134304728D01*
X145220364Y-134539760D01*
X145420242Y-134739638D01*
X145652760Y-134895001D01*
X145420242Y-135050364D01*
X145220364Y-135250242D01*
X145063321Y-135485274D01*
X144955148Y-135746427D01*
X144900001Y-136023666D01*
X144900001Y-136306336D01*
X144955148Y-136583575D01*
X145063321Y-136844728D01*
X145220364Y-137079760D01*
X145420242Y-137279638D01*
X145652760Y-137435001D01*
X145420242Y-137590364D01*
X145220364Y-137790242D01*
X145063321Y-138025274D01*
X144955148Y-138286427D01*
X144900001Y-138563666D01*
X144900001Y-138846336D01*
X144955148Y-139123575D01*
X145063321Y-139384728D01*
X145220364Y-139619760D01*
X145420242Y-139819638D01*
X145652760Y-139975001D01*
X145420242Y-140130364D01*
X145220364Y-140330242D01*
X145063321Y-140565274D01*
X144955148Y-140826427D01*
X144900001Y-141103666D01*
X144900001Y-141386336D01*
X144955148Y-141663575D01*
X145063321Y-141924728D01*
X145220364Y-142159760D01*
X145420242Y-142359638D01*
X145652760Y-142515001D01*
X145420242Y-142670364D01*
X145220364Y-142870242D01*
X145063321Y-143105274D01*
X144955148Y-143366427D01*
X144900001Y-143643666D01*
X144900001Y-143926336D01*
X144955148Y-144203575D01*
X145063321Y-144464728D01*
X145220364Y-144699760D01*
X145420242Y-144899638D01*
X145652760Y-145055001D01*
X145420242Y-145210364D01*
X145220364Y-145410242D01*
X145063321Y-145645274D01*
X144955148Y-145906427D01*
X144900001Y-146183666D01*
X144900001Y-146466336D01*
X144955148Y-146743575D01*
X145063321Y-147004728D01*
X145220364Y-147239760D01*
X145420242Y-147439638D01*
X145655274Y-147596681D01*
X145916427Y-147704854D01*
X146193666Y-147760001D01*
X146476336Y-147760001D01*
X146753575Y-147704854D01*
X146913000Y-147638818D01*
X146913000Y-149445000D01*
X130275000Y-149445000D01*
X130275000Y-147502953D01*
X130415274Y-147596681D01*
X130676427Y-147704854D01*
X130953666Y-147760001D01*
X131236336Y-147760001D01*
X131513575Y-147704854D01*
X131774728Y-147596681D01*
X132009760Y-147439638D01*
X132209638Y-147239760D01*
X132366681Y-147004728D01*
X132474854Y-146743575D01*
X132530001Y-146466336D01*
X132530001Y-146209872D01*
X136555000Y-146209872D01*
X136555000Y-146650128D01*
X136640890Y-147081925D01*
X136809369Y-147488669D01*
X137053962Y-147854729D01*
X137365271Y-148166038D01*
X137731331Y-148410631D01*
X138138075Y-148579110D01*
X138569872Y-148665000D01*
X139010128Y-148665000D01*
X139441925Y-148579110D01*
X139848669Y-148410631D01*
X140214729Y-148166038D01*
X140526038Y-147854729D01*
X140770631Y-147488669D01*
X140939110Y-147081925D01*
X141025000Y-146650128D01*
X141025000Y-146209872D01*
X140939110Y-145778075D01*
X140770631Y-145371331D01*
X140526038Y-145005271D01*
X140214729Y-144693962D01*
X139848669Y-144449369D01*
X139441925Y-144280890D01*
X139010128Y-144195000D01*
X138569872Y-144195000D01*
X138138075Y-144280890D01*
X137731331Y-144449369D01*
X137365271Y-144693962D01*
X137053962Y-145005271D01*
X136809369Y-145371331D01*
X136640890Y-145778075D01*
X136555000Y-146209872D01*
X132530001Y-146209872D01*
X132530001Y-146183666D01*
X132474854Y-145906427D01*
X132366681Y-145645274D01*
X132209638Y-145410242D01*
X132009760Y-145210364D01*
X131777242Y-145055001D01*
X132009760Y-144899638D01*
X132209638Y-144699760D01*
X132366681Y-144464728D01*
X132474854Y-144203575D01*
X132530001Y-143926336D01*
X132530001Y-143643666D01*
X132474854Y-143366427D01*
X132366681Y-143105274D01*
X132209638Y-142870242D01*
X132009760Y-142670364D01*
X131777242Y-142515001D01*
X132009760Y-142359638D01*
X132209638Y-142159760D01*
X132366681Y-141924728D01*
X132474854Y-141663575D01*
X132530001Y-141386336D01*
X132530001Y-141103666D01*
X132474854Y-140826427D01*
X132366681Y-140565274D01*
X132209638Y-140330242D01*
X132009760Y-140130364D01*
X131777242Y-139975001D01*
X132009760Y-139819638D01*
X132209638Y-139619760D01*
X132366681Y-139384728D01*
X132474854Y-139123575D01*
X132530001Y-138846336D01*
X132530001Y-138563666D01*
X132523018Y-138528562D01*
X132940051Y-138111530D01*
X132973819Y-138083817D01*
X133021865Y-138025274D01*
X133060212Y-137978548D01*
X133084413Y-137949059D01*
X133119785Y-137882881D01*
X133200591Y-138034060D01*
X133283469Y-138135047D01*
X133283472Y-138135050D01*
X133311185Y-138168818D01*
X133318680Y-138174969D01*
X133305000Y-138243740D01*
X133305000Y-138536260D01*
X133362068Y-138823158D01*
X133474010Y-139093411D01*
X133636525Y-139336632D01*
X133768380Y-139468487D01*
X133695820Y-139490498D01*
X133585506Y-139549463D01*
X133488815Y-139628815D01*
X133409463Y-139725506D01*
X133350498Y-139835820D01*
X133314188Y-139955518D01*
X133301928Y-140080000D01*
X133301928Y-141780000D01*
X133314188Y-141904482D01*
X133350498Y-142024180D01*
X133409463Y-142134494D01*
X133488815Y-142231185D01*
X133585506Y-142310537D01*
X133695820Y-142369502D01*
X133815518Y-142405812D01*
X133940000Y-142418072D01*
X135640000Y-142418072D01*
X135764482Y-142405812D01*
X135884180Y-142369502D01*
X135994494Y-142310537D01*
X136091185Y-142231185D01*
X136170537Y-142134494D01*
X136229502Y-142024180D01*
X136265812Y-141904482D01*
X136278072Y-141780000D01*
X136278072Y-140080000D01*
X137301928Y-140080000D01*
X137301928Y-141780000D01*
X137314188Y-141904482D01*
X137350498Y-142024180D01*
X137409463Y-142134494D01*
X137488815Y-142231185D01*
X137585506Y-142310537D01*
X137695820Y-142369502D01*
X137815518Y-142405812D01*
X137940000Y-142418072D01*
X139640000Y-142418072D01*
X139764482Y-142405812D01*
X139884180Y-142369502D01*
X139994494Y-142310537D01*
X140091185Y-142231185D01*
X140170537Y-142134494D01*
X140229502Y-142024180D01*
X140265812Y-141904482D01*
X140278072Y-141780000D01*
X140278072Y-140080000D01*
X141551928Y-140080000D01*
X141551928Y-141780000D01*
X141564188Y-141904482D01*
X141600498Y-142024180D01*
X141659463Y-142134494D01*
X141738815Y-142231185D01*
X141835506Y-142310537D01*
X141945820Y-142369502D01*
X142065518Y-142405812D01*
X142190000Y-142418072D01*
X143890000Y-142418072D01*
X144014482Y-142405812D01*
X144134180Y-142369502D01*
X144244494Y-142310537D01*
X144341185Y-142231185D01*
X144420537Y-142134494D01*
X144479502Y-142024180D01*
X144515812Y-141904482D01*
X144528072Y-141780000D01*
X144528072Y-140080000D01*
X144515812Y-139955518D01*
X144479502Y-139835820D01*
X144420537Y-139725506D01*
X144341185Y-139628815D01*
X144244494Y-139549463D01*
X144134180Y-139490498D01*
X144053534Y-139466034D01*
X144137588Y-139390269D01*
X144311641Y-139156920D01*
X144436825Y-138894099D01*
X144481476Y-138746890D01*
X144360155Y-138517000D01*
X143167000Y-138517000D01*
X143167000Y-138537000D01*
X142913000Y-138537000D01*
X142913000Y-138517000D01*
X141719845Y-138517000D01*
X141598524Y-138746890D01*
X141643175Y-138894099D01*
X141768359Y-139156920D01*
X141942412Y-139390269D01*
X142026466Y-139466034D01*
X141945820Y-139490498D01*
X141835506Y-139549463D01*
X141738815Y-139628815D01*
X141659463Y-139725506D01*
X141600498Y-139835820D01*
X141564188Y-139955518D01*
X141551928Y-140080000D01*
X140278072Y-140080000D01*
X140265812Y-139955518D01*
X140229502Y-139835820D01*
X140170537Y-139725506D01*
X140091185Y-139628815D01*
X139994494Y-139549463D01*
X139884180Y-139490498D01*
X139803534Y-139466034D01*
X139887588Y-139390269D01*
X140061641Y-139156920D01*
X140186825Y-138894099D01*
X140231476Y-138746890D01*
X140110155Y-138517000D01*
X138917000Y-138517000D01*
X138917000Y-138537000D01*
X138663000Y-138537000D01*
X138663000Y-138517000D01*
X137469845Y-138517000D01*
X137348524Y-138746890D01*
X137393175Y-138894099D01*
X137518359Y-139156920D01*
X137692412Y-139390269D01*
X137776466Y-139466034D01*
X137695820Y-139490498D01*
X137585506Y-139549463D01*
X137488815Y-139628815D01*
X137409463Y-139725506D01*
X137350498Y-139835820D01*
X137314188Y-139955518D01*
X137301928Y-140080000D01*
X136278072Y-140080000D01*
X136265812Y-139955518D01*
X136229502Y-139835820D01*
X136170537Y-139725506D01*
X136091185Y-139628815D01*
X135994494Y-139549463D01*
X135884180Y-139490498D01*
X135811620Y-139468487D01*
X135943475Y-139336632D01*
X136105990Y-139093411D01*
X136217932Y-138823158D01*
X136275000Y-138536260D01*
X136275000Y-138243740D01*
X136233103Y-138033110D01*
X137348524Y-138033110D01*
X137469845Y-138263000D01*
X138663000Y-138263000D01*
X138663000Y-137069186D01*
X138917000Y-137069186D01*
X138917000Y-138263000D01*
X140110155Y-138263000D01*
X140231476Y-138033110D01*
X140186825Y-137885901D01*
X140061641Y-137623080D01*
X139887588Y-137389731D01*
X139671355Y-137194822D01*
X139421252Y-137045843D01*
X139146891Y-136948519D01*
X138917000Y-137069186D01*
X138663000Y-137069186D01*
X138433109Y-136948519D01*
X138158748Y-137045843D01*
X137908645Y-137194822D01*
X137692412Y-137389731D01*
X137518359Y-137623080D01*
X137393175Y-137885901D01*
X137348524Y-138033110D01*
X136233103Y-138033110D01*
X136217932Y-137956842D01*
X136105990Y-137686589D01*
X135943475Y-137443368D01*
X135736632Y-137236525D01*
X135493411Y-137074010D01*
X135223158Y-136962068D01*
X134936260Y-136905000D01*
X134825001Y-136905000D01*
X134825001Y-136816186D01*
X135004250Y-136815000D01*
X135163000Y-136656250D01*
X135163000Y-135557000D01*
X135417000Y-135557000D01*
X135417000Y-136656250D01*
X135575750Y-136815000D01*
X136040000Y-136818072D01*
X136164482Y-136805812D01*
X136284180Y-136769502D01*
X136394494Y-136710537D01*
X136491185Y-136631185D01*
X136570537Y-136534494D01*
X136629502Y-136424180D01*
X136665812Y-136304482D01*
X136678072Y-136180000D01*
X136675000Y-135715750D01*
X136516250Y-135557000D01*
X135417000Y-135557000D01*
X135163000Y-135557000D01*
X135143000Y-135557000D01*
X135143000Y-135530000D01*
X137801928Y-135530000D01*
X137814188Y-135654482D01*
X137850498Y-135774180D01*
X137909463Y-135884494D01*
X137988815Y-135981185D01*
X138085506Y-136060537D01*
X138195820Y-136119502D01*
X138315518Y-136155812D01*
X138440000Y-136168072D01*
X139004250Y-136165000D01*
X139163000Y-136006250D01*
X139163000Y-134807000D01*
X139417000Y-134807000D01*
X139417000Y-136006250D01*
X139575750Y-136165000D01*
X140140000Y-136168072D01*
X140264482Y-136155812D01*
X140384180Y-136119502D01*
X140494494Y-136060537D01*
X140591185Y-135981185D01*
X140670537Y-135884494D01*
X140729502Y-135774180D01*
X140750869Y-135703740D01*
X141555000Y-135703740D01*
X141555000Y-135996260D01*
X141612068Y-136283158D01*
X141724010Y-136553411D01*
X141886525Y-136796632D01*
X142093368Y-137003475D01*
X142275534Y-137125195D01*
X142158645Y-137194822D01*
X141942412Y-137389731D01*
X141768359Y-137623080D01*
X141643175Y-137885901D01*
X141598524Y-138033110D01*
X141719845Y-138263000D01*
X142913000Y-138263000D01*
X142913000Y-138243000D01*
X143167000Y-138243000D01*
X143167000Y-138263000D01*
X144360155Y-138263000D01*
X144481476Y-138033110D01*
X144436825Y-137885901D01*
X144311641Y-137623080D01*
X144137588Y-137389731D01*
X143921355Y-137194822D01*
X143804466Y-137125195D01*
X143986632Y-137003475D01*
X144193475Y-136796632D01*
X144355990Y-136553411D01*
X144467932Y-136283158D01*
X144525000Y-135996260D01*
X144525000Y-135703740D01*
X144467932Y-135416842D01*
X144355990Y-135146589D01*
X144193475Y-134903368D01*
X143986632Y-134696525D01*
X143743411Y-134534010D01*
X143473158Y-134422068D01*
X143186260Y-134365000D01*
X142893740Y-134365000D01*
X142606842Y-134422068D01*
X142336589Y-134534010D01*
X142093368Y-134696525D01*
X141886525Y-134903368D01*
X141724010Y-135146589D01*
X141612068Y-135416842D01*
X141555000Y-135703740D01*
X140750869Y-135703740D01*
X140765812Y-135654482D01*
X140778072Y-135530000D01*
X140775000Y-134965750D01*
X140616250Y-134807000D01*
X139417000Y-134807000D01*
X139163000Y-134807000D01*
X137963750Y-134807000D01*
X137805000Y-134965750D01*
X137801928Y-135530000D01*
X135143000Y-135530000D01*
X135143000Y-135303000D01*
X135163000Y-135303000D01*
X135163000Y-135283000D01*
X135417000Y-135283000D01*
X135417000Y-135303000D01*
X136516250Y-135303000D01*
X136675000Y-135144250D01*
X136678072Y-134680000D01*
X136665812Y-134555518D01*
X136629502Y-134435820D01*
X136570537Y-134325506D01*
X136491185Y-134228815D01*
X136394494Y-134149463D01*
X136284180Y-134090498D01*
X136164482Y-134054188D01*
X136056517Y-134043555D01*
X136172886Y-133965799D01*
X136360359Y-133778326D01*
X136394129Y-133775000D01*
X136394137Y-133775000D01*
X136524150Y-133762195D01*
X136690973Y-133711589D01*
X136844719Y-133629411D01*
X136979477Y-133518817D01*
X137007194Y-133485044D01*
X137878766Y-132613472D01*
X137974010Y-132843411D01*
X138136525Y-133086632D01*
X138268380Y-133218487D01*
X138195820Y-133240498D01*
X138085506Y-133299463D01*
X137988815Y-133378815D01*
X137909463Y-133475506D01*
X137850498Y-133585820D01*
X137814188Y-133705518D01*
X137801928Y-133830000D01*
X137805000Y-134394250D01*
X137963750Y-134553000D01*
X139163000Y-134553000D01*
X139163000Y-134533000D01*
X139417000Y-134533000D01*
X139417000Y-134553000D01*
X140616250Y-134553000D01*
X140775000Y-134394250D01*
X140778072Y-133830000D01*
X140765812Y-133705518D01*
X140729502Y-133585820D01*
X140670537Y-133475506D01*
X140591185Y-133378815D01*
X140494494Y-133299463D01*
X140384180Y-133240498D01*
X140311620Y-133218487D01*
X140443475Y-133086632D01*
X140568178Y-132900000D01*
X143067282Y-132900000D01*
X143090754Y-132912546D01*
X143198648Y-132945274D01*
X143234014Y-132956002D01*
X143382999Y-132970676D01*
X143383000Y-132970676D01*
X143531985Y-132956002D01*
X143675246Y-132912546D01*
X143807276Y-132841974D01*
X143894002Y-132770799D01*
X143894007Y-132770794D01*
X143923000Y-132747000D01*
X143946793Y-132718008D01*
X145015507Y-131649295D01*
X145063321Y-131764728D01*
G37*
%TD.AperFunction*%
D19*
X146913000Y-109451184D02*
X146753575Y-109385148D01*
X146476336Y-109330001D01*
X146193666Y-109330001D01*
X145916427Y-109385148D01*
X145655274Y-109493321D01*
X145420242Y-109650364D01*
X145220364Y-109850242D01*
X145063321Y-110085274D01*
X144955148Y-110346427D01*
X144900001Y-110623666D01*
X144900001Y-110906336D01*
X144955148Y-111183575D01*
X145063321Y-111444728D01*
X145220364Y-111679760D01*
X145420242Y-111879638D01*
X145655274Y-112036681D01*
X145665866Y-112041068D01*
X145479870Y-112152616D01*
X145271482Y-112341587D01*
X145103964Y-112567581D01*
X144983755Y-112821914D01*
X144943097Y-112955962D01*
X145065086Y-113178001D01*
X146208001Y-113178001D01*
X146208001Y-113158001D01*
X146462001Y-113158001D01*
X146462001Y-113178001D01*
X146482001Y-113178001D01*
X146482001Y-113432001D01*
X146462001Y-113432001D01*
X146462001Y-113452001D01*
X146208001Y-113452001D01*
X146208001Y-113432001D01*
X145065086Y-113432001D01*
X144943097Y-113654040D01*
X144983755Y-113788088D01*
X145103964Y-114042421D01*
X145271482Y-114268415D01*
X145479870Y-114457386D01*
X145665866Y-114568934D01*
X145655274Y-114573321D01*
X145420242Y-114730364D01*
X145220364Y-114930242D01*
X145063321Y-115165274D01*
X144955148Y-115426427D01*
X144900001Y-115703666D01*
X144900001Y-115986336D01*
X144955148Y-116263575D01*
X145063321Y-116524728D01*
X145220364Y-116759760D01*
X145420242Y-116959638D01*
X145652760Y-117115001D01*
X145420242Y-117270364D01*
X145220364Y-117470242D01*
X145063321Y-117705274D01*
X144958852Y-117957485D01*
X144919853Y-117761426D01*
X144811680Y-117500273D01*
X144654637Y-117265241D01*
X144454759Y-117065363D01*
X144219727Y-116908320D01*
X143958574Y-116800147D01*
X143681335Y-116745000D01*
X143398665Y-116745000D01*
X143121426Y-116800147D01*
X142860273Y-116908320D01*
X142625241Y-117065363D01*
X142425363Y-117265241D01*
X142268320Y-117500273D01*
X142160147Y-117761426D01*
X142105000Y-118038665D01*
X142105000Y-118321335D01*
X142160147Y-118598574D01*
X142268320Y-118859727D01*
X142425363Y-119094759D01*
X142625241Y-119294637D01*
X142860273Y-119451680D01*
X143121426Y-119559853D01*
X143398665Y-119615000D01*
X143681335Y-119615000D01*
X143863886Y-119578688D01*
X144928018Y-120642819D01*
X144900001Y-120783666D01*
X144900001Y-121066336D01*
X144936313Y-121248887D01*
X144269003Y-121916198D01*
X144239999Y-121940001D01*
X144184871Y-122007176D01*
X144145026Y-122055726D01*
X144129300Y-122085148D01*
X144074454Y-122187756D01*
X144030997Y-122331017D01*
X144020000Y-122442670D01*
X144020000Y-122442680D01*
X144016324Y-122480002D01*
X144020000Y-122517324D01*
X144020001Y-126985591D01*
X143958574Y-126960147D01*
X143681335Y-126905000D01*
X143398665Y-126905000D01*
X143121426Y-126960147D01*
X142860273Y-127068320D01*
X142625241Y-127225363D01*
X142425363Y-127425241D01*
X142268320Y-127660273D01*
X142160147Y-127921426D01*
X142105000Y-128198665D01*
X142105000Y-128481335D01*
X142160147Y-128758574D01*
X142268320Y-129019727D01*
X142425363Y-129254759D01*
X142625241Y-129454637D01*
X142860273Y-129611680D01*
X143121426Y-129719853D01*
X143398665Y-129775000D01*
X143681335Y-129775000D01*
X143958574Y-129719853D01*
X144020001Y-129694409D01*
X144020001Y-130495197D01*
X143135199Y-131380000D01*
X140568178Y-131380000D01*
X140443475Y-131193368D01*
X140236632Y-130986525D01*
X139993411Y-130824010D01*
X139754514Y-130725056D01*
X139779410Y-130694720D01*
X139779411Y-130694719D01*
X139861589Y-130540973D01*
X139912195Y-130374150D01*
X139925000Y-130244137D01*
X139925000Y-130244127D01*
X139929281Y-130200661D01*
X139925000Y-130157195D01*
X139925000Y-129638491D01*
X140121426Y-129719853D01*
X140398665Y-129775000D01*
X140681335Y-129775000D01*
X140958574Y-129719853D01*
X141219727Y-129611680D01*
X141454759Y-129454637D01*
X141654637Y-129254759D01*
X141811680Y-129019727D01*
X141919853Y-128758574D01*
X141975000Y-128481335D01*
X141975000Y-128198665D01*
X141919853Y-127921426D01*
X141811680Y-127660273D01*
X141654637Y-127425241D01*
X141454759Y-127225363D01*
X141219727Y-127068320D01*
X140958574Y-126960147D01*
X140681335Y-126905000D01*
X140398665Y-126905000D01*
X140121426Y-126960147D01*
X139925000Y-127041509D01*
X139925000Y-120046578D01*
X140363561Y-119608017D01*
X140398665Y-119615000D01*
X140681335Y-119615000D01*
X140958574Y-119559853D01*
X141219727Y-119451680D01*
X141454759Y-119294637D01*
X141654637Y-119094759D01*
X141811680Y-118859727D01*
X141919853Y-118598574D01*
X141975000Y-118321335D01*
X141975000Y-118038665D01*
X141919853Y-117761426D01*
X141811680Y-117500273D01*
X141654637Y-117265241D01*
X141454759Y-117065363D01*
X141219727Y-116908320D01*
X140958574Y-116800147D01*
X140681335Y-116745000D01*
X140398665Y-116745000D01*
X140121426Y-116800147D01*
X139860273Y-116908320D01*
X139625241Y-117065363D01*
X139425363Y-117265241D01*
X139268320Y-117500273D01*
X139160147Y-117761426D01*
X139105000Y-118038665D01*
X139105000Y-118321335D01*
X139111983Y-118356439D01*
X138932270Y-118536152D01*
X138975000Y-118321335D01*
X138975000Y-118038665D01*
X138919853Y-117761426D01*
X138811680Y-117500273D01*
X138654637Y-117265241D01*
X138454759Y-117065363D01*
X138219727Y-116908320D01*
X137958574Y-116800147D01*
X137681335Y-116745000D01*
X137398665Y-116745000D01*
X137121426Y-116800147D01*
X136860273Y-116908320D01*
X136625241Y-117065363D01*
X136425363Y-117265241D01*
X136268320Y-117500273D01*
X136160147Y-117761426D01*
X136105000Y-118038665D01*
X136105000Y-118321335D01*
X136160147Y-118598574D01*
X136268320Y-118859727D01*
X136425363Y-119094759D01*
X136625241Y-119294637D01*
X136655000Y-119314521D01*
X136655001Y-125187422D01*
X135623518Y-126218906D01*
X135605990Y-126176589D01*
X135443475Y-125933368D01*
X135236632Y-125726525D01*
X135062240Y-125610000D01*
X135236632Y-125493475D01*
X135443475Y-125286632D01*
X135605990Y-125043411D01*
X135717932Y-124773158D01*
X135775000Y-124486260D01*
X135775000Y-124193740D01*
X135717932Y-123906842D01*
X135605990Y-123636589D01*
X135443475Y-123393368D01*
X135236632Y-123186525D01*
X135054466Y-123064805D01*
X135171355Y-122995178D01*
X135387588Y-122800269D01*
X135561641Y-122566920D01*
X135686825Y-122304099D01*
X135731476Y-122156890D01*
X135610155Y-121927000D01*
X134417000Y-121927000D01*
X134417000Y-121947000D01*
X134163000Y-121947000D01*
X134163000Y-121927000D01*
X132969845Y-121927000D01*
X132848524Y-122156890D01*
X132893175Y-122304099D01*
X133018359Y-122566920D01*
X133192412Y-122800269D01*
X133408645Y-122995178D01*
X133525534Y-123064805D01*
X133343368Y-123186525D01*
X133136525Y-123393368D01*
X132974010Y-123636589D01*
X132862068Y-123906842D01*
X132805000Y-124193740D01*
X132805000Y-124486260D01*
X132862068Y-124773158D01*
X132974010Y-125043411D01*
X133136525Y-125286632D01*
X133343368Y-125493475D01*
X133517760Y-125610000D01*
X133343368Y-125726525D01*
X133136525Y-125933368D01*
X132974010Y-126176589D01*
X132862068Y-126446842D01*
X132805000Y-126733740D01*
X132805000Y-127026260D01*
X132862068Y-127313158D01*
X132974010Y-127583411D01*
X133136525Y-127826632D01*
X133343368Y-128033475D01*
X133586589Y-128195990D01*
X133856842Y-128307932D01*
X134143740Y-128365000D01*
X134405000Y-128365000D01*
X134405001Y-129276314D01*
X134214201Y-129467114D01*
X134062629Y-129693957D01*
X133958225Y-129946011D01*
X133905000Y-130213589D01*
X133905000Y-130486411D01*
X133958225Y-130753989D01*
X134062629Y-131006043D01*
X134094411Y-131053608D01*
X134085182Y-131061182D01*
X134057469Y-131094950D01*
X132302780Y-132849640D01*
X132209638Y-132710242D01*
X132009760Y-132510364D01*
X131777242Y-132355001D01*
X132009760Y-132199638D01*
X132209638Y-131999760D01*
X132366681Y-131764728D01*
X132474854Y-131503575D01*
X132530001Y-131226336D01*
X132530001Y-130943666D01*
X132474854Y-130666427D01*
X132366681Y-130405274D01*
X132209638Y-130170242D01*
X132009760Y-129970364D01*
X131777242Y-129815001D01*
X132009760Y-129659638D01*
X132209638Y-129459760D01*
X132366681Y-129224728D01*
X132474854Y-128963575D01*
X132530001Y-128686336D01*
X132530001Y-128403666D01*
X132474854Y-128126427D01*
X132366681Y-127865274D01*
X132209638Y-127630242D01*
X132009760Y-127430364D01*
X131777242Y-127275001D01*
X132009760Y-127119638D01*
X132209638Y-126919760D01*
X132366681Y-126684728D01*
X132474854Y-126423575D01*
X132530001Y-126146336D01*
X132530001Y-125863666D01*
X132474854Y-125586427D01*
X132366681Y-125325274D01*
X132209638Y-125090242D01*
X132009760Y-124890364D01*
X131777242Y-124735001D01*
X132009760Y-124579638D01*
X132209638Y-124379760D01*
X132366681Y-124144728D01*
X132474854Y-123883575D01*
X132530001Y-123606336D01*
X132530001Y-123323666D01*
X132474854Y-123046427D01*
X132366681Y-122785274D01*
X132209638Y-122550242D01*
X132009760Y-122350364D01*
X131777242Y-122195001D01*
X132009760Y-122039638D01*
X132209638Y-121839760D01*
X132366681Y-121604728D01*
X132474854Y-121343575D01*
X132530001Y-121066336D01*
X132530001Y-120783666D01*
X132474854Y-120506427D01*
X132366681Y-120245274D01*
X132209638Y-120010242D01*
X132009760Y-119810364D01*
X131774728Y-119653321D01*
X131764136Y-119648934D01*
X131950132Y-119537386D01*
X132158520Y-119348415D01*
X132326038Y-119122421D01*
X132446247Y-118868088D01*
X132486905Y-118734040D01*
X132364917Y-118512003D01*
X132467202Y-118512003D01*
X132848790Y-118893592D01*
X132805000Y-119113740D01*
X132805000Y-119406260D01*
X132862068Y-119693158D01*
X132974010Y-119963411D01*
X133136525Y-120206632D01*
X133343368Y-120413475D01*
X133525534Y-120535195D01*
X133408645Y-120604822D01*
X133192412Y-120799731D01*
X133018359Y-121033080D01*
X132893175Y-121295901D01*
X132848524Y-121443110D01*
X132969845Y-121673000D01*
X134163000Y-121673000D01*
X134163000Y-121653000D01*
X134417000Y-121653000D01*
X134417000Y-121673000D01*
X135610155Y-121673000D01*
X135731476Y-121443110D01*
X135686825Y-121295901D01*
X135561641Y-121033080D01*
X135387588Y-120799731D01*
X135171355Y-120604822D01*
X135054466Y-120535195D01*
X135236632Y-120413475D01*
X135443475Y-120206632D01*
X135605990Y-119963411D01*
X135717932Y-119693158D01*
X135775000Y-119406260D01*
X135775000Y-119113740D01*
X135717932Y-118826842D01*
X135605990Y-118556589D01*
X135443475Y-118313368D01*
X135236632Y-118106525D01*
X135062240Y-117990000D01*
X135236632Y-117873475D01*
X135443475Y-117666632D01*
X135605990Y-117423411D01*
X135717932Y-117153158D01*
X135775000Y-116866260D01*
X135775000Y-116573740D01*
X135717932Y-116286842D01*
X135605990Y-116016589D01*
X135443475Y-115773368D01*
X135311620Y-115641513D01*
X135384180Y-115619502D01*
X135494494Y-115560537D01*
X135591185Y-115481185D01*
X135670537Y-115384494D01*
X135729502Y-115274180D01*
X135765812Y-115154482D01*
X135778072Y-115030000D01*
X135778072Y-113330000D01*
X135765812Y-113205518D01*
X135729502Y-113085820D01*
X135670537Y-112975506D01*
X135591185Y-112878815D01*
X135494494Y-112799463D01*
X135384180Y-112740498D01*
X135264482Y-112704188D01*
X135140000Y-112691928D01*
X133869509Y-112691928D01*
X133864002Y-112636013D01*
X133820545Y-112492752D01*
X133749973Y-112360723D01*
X133678798Y-112273996D01*
X133655000Y-112244998D01*
X133626003Y-112221201D01*
X132533073Y-111128272D01*
X132533073Y-109965001D01*
X132532568Y-109959872D01*
X136555000Y-109959872D01*
X136555000Y-110400128D01*
X136640890Y-110831925D01*
X136809369Y-111238669D01*
X137053962Y-111604729D01*
X137365271Y-111916038D01*
X137731331Y-112160631D01*
X138138075Y-112329110D01*
X138569872Y-112415000D01*
X139010128Y-112415000D01*
X139441925Y-112329110D01*
X139848669Y-112160631D01*
X140214729Y-111916038D01*
X140526038Y-111604729D01*
X140770631Y-111238669D01*
X140939110Y-110831925D01*
X141025000Y-110400128D01*
X141025000Y-109959872D01*
X140939110Y-109528075D01*
X140770631Y-109121331D01*
X140526038Y-108755271D01*
X140214729Y-108443962D01*
X139848669Y-108199369D01*
X139441925Y-108030890D01*
X139010128Y-107945000D01*
X138569872Y-107945000D01*
X138138075Y-108030890D01*
X137731331Y-108199369D01*
X137365271Y-108443962D01*
X137053962Y-108755271D01*
X136809369Y-109121331D01*
X136640890Y-109528075D01*
X136555000Y-109959872D01*
X132532568Y-109959872D01*
X132520813Y-109840519D01*
X132484503Y-109720821D01*
X132425538Y-109610507D01*
X132346186Y-109513816D01*
X132249495Y-109434464D01*
X132139181Y-109375499D01*
X132019483Y-109339189D01*
X131895001Y-109326929D01*
X130295001Y-109326929D01*
X130275000Y-109328899D01*
X130275000Y-107415000D01*
X146913000Y-107415000D01*
X146913000Y-109451184D01*
%TA.AperFunction,Conductor*%
D20*
G36*
X146913000Y-109451184D02*
G01*
X146753575Y-109385148D01*
X146476336Y-109330001D01*
X146193666Y-109330001D01*
X145916427Y-109385148D01*
X145655274Y-109493321D01*
X145420242Y-109650364D01*
X145220364Y-109850242D01*
X145063321Y-110085274D01*
X144955148Y-110346427D01*
X144900001Y-110623666D01*
X144900001Y-110906336D01*
X144955148Y-111183575D01*
X145063321Y-111444728D01*
X145220364Y-111679760D01*
X145420242Y-111879638D01*
X145655274Y-112036681D01*
X145665866Y-112041068D01*
X145479870Y-112152616D01*
X145271482Y-112341587D01*
X145103964Y-112567581D01*
X144983755Y-112821914D01*
X144943097Y-112955962D01*
X145065086Y-113178001D01*
X146208001Y-113178001D01*
X146208001Y-113158001D01*
X146462001Y-113158001D01*
X146462001Y-113178001D01*
X146482001Y-113178001D01*
X146482001Y-113432001D01*
X146462001Y-113432001D01*
X146462001Y-113452001D01*
X146208001Y-113452001D01*
X146208001Y-113432001D01*
X145065086Y-113432001D01*
X144943097Y-113654040D01*
X144983755Y-113788088D01*
X145103964Y-114042421D01*
X145271482Y-114268415D01*
X145479870Y-114457386D01*
X145665866Y-114568934D01*
X145655274Y-114573321D01*
X145420242Y-114730364D01*
X145220364Y-114930242D01*
X145063321Y-115165274D01*
X144955148Y-115426427D01*
X144900001Y-115703666D01*
X144900001Y-115986336D01*
X144955148Y-116263575D01*
X145063321Y-116524728D01*
X145220364Y-116759760D01*
X145420242Y-116959638D01*
X145652760Y-117115001D01*
X145420242Y-117270364D01*
X145220364Y-117470242D01*
X145063321Y-117705274D01*
X144958852Y-117957485D01*
X144919853Y-117761426D01*
X144811680Y-117500273D01*
X144654637Y-117265241D01*
X144454759Y-117065363D01*
X144219727Y-116908320D01*
X143958574Y-116800147D01*
X143681335Y-116745000D01*
X143398665Y-116745000D01*
X143121426Y-116800147D01*
X142860273Y-116908320D01*
X142625241Y-117065363D01*
X142425363Y-117265241D01*
X142268320Y-117500273D01*
X142160147Y-117761426D01*
X142105000Y-118038665D01*
X142105000Y-118321335D01*
X142160147Y-118598574D01*
X142268320Y-118859727D01*
X142425363Y-119094759D01*
X142625241Y-119294637D01*
X142860273Y-119451680D01*
X143121426Y-119559853D01*
X143398665Y-119615000D01*
X143681335Y-119615000D01*
X143863886Y-119578688D01*
X144928018Y-120642819D01*
X144900001Y-120783666D01*
X144900001Y-121066336D01*
X144936313Y-121248887D01*
X144269003Y-121916198D01*
X144239999Y-121940001D01*
X144184871Y-122007176D01*
X144145026Y-122055726D01*
X144129300Y-122085148D01*
X144074454Y-122187756D01*
X144030997Y-122331017D01*
X144020000Y-122442670D01*
X144020000Y-122442680D01*
X144016324Y-122480002D01*
X144020000Y-122517324D01*
X144020001Y-126985591D01*
X143958574Y-126960147D01*
X143681335Y-126905000D01*
X143398665Y-126905000D01*
X143121426Y-126960147D01*
X142860273Y-127068320D01*
X142625241Y-127225363D01*
X142425363Y-127425241D01*
X142268320Y-127660273D01*
X142160147Y-127921426D01*
X142105000Y-128198665D01*
X142105000Y-128481335D01*
X142160147Y-128758574D01*
X142268320Y-129019727D01*
X142425363Y-129254759D01*
X142625241Y-129454637D01*
X142860273Y-129611680D01*
X143121426Y-129719853D01*
X143398665Y-129775000D01*
X143681335Y-129775000D01*
X143958574Y-129719853D01*
X144020001Y-129694409D01*
X144020001Y-130495197D01*
X143135199Y-131380000D01*
X140568178Y-131380000D01*
X140443475Y-131193368D01*
X140236632Y-130986525D01*
X139993411Y-130824010D01*
X139754514Y-130725056D01*
X139779410Y-130694720D01*
X139779411Y-130694719D01*
X139861589Y-130540973D01*
X139912195Y-130374150D01*
X139925000Y-130244137D01*
X139925000Y-130244127D01*
X139929281Y-130200661D01*
X139925000Y-130157195D01*
X139925000Y-129638491D01*
X140121426Y-129719853D01*
X140398665Y-129775000D01*
X140681335Y-129775000D01*
X140958574Y-129719853D01*
X141219727Y-129611680D01*
X141454759Y-129454637D01*
X141654637Y-129254759D01*
X141811680Y-129019727D01*
X141919853Y-128758574D01*
X141975000Y-128481335D01*
X141975000Y-128198665D01*
X141919853Y-127921426D01*
X141811680Y-127660273D01*
X141654637Y-127425241D01*
X141454759Y-127225363D01*
X141219727Y-127068320D01*
X140958574Y-126960147D01*
X140681335Y-126905000D01*
X140398665Y-126905000D01*
X140121426Y-126960147D01*
X139925000Y-127041509D01*
X139925000Y-120046578D01*
X140363561Y-119608017D01*
X140398665Y-119615000D01*
X140681335Y-119615000D01*
X140958574Y-119559853D01*
X141219727Y-119451680D01*
X141454759Y-119294637D01*
X141654637Y-119094759D01*
X141811680Y-118859727D01*
X141919853Y-118598574D01*
X141975000Y-118321335D01*
X141975000Y-118038665D01*
X141919853Y-117761426D01*
X141811680Y-117500273D01*
X141654637Y-117265241D01*
X141454759Y-117065363D01*
X141219727Y-116908320D01*
X140958574Y-116800147D01*
X140681335Y-116745000D01*
X140398665Y-116745000D01*
X140121426Y-116800147D01*
X139860273Y-116908320D01*
X139625241Y-117065363D01*
X139425363Y-117265241D01*
X139268320Y-117500273D01*
X139160147Y-117761426D01*
X139105000Y-118038665D01*
X139105000Y-118321335D01*
X139111983Y-118356439D01*
X138932270Y-118536152D01*
X138975000Y-118321335D01*
X138975000Y-118038665D01*
X138919853Y-117761426D01*
X138811680Y-117500273D01*
X138654637Y-117265241D01*
X138454759Y-117065363D01*
X138219727Y-116908320D01*
X137958574Y-116800147D01*
X137681335Y-116745000D01*
X137398665Y-116745000D01*
X137121426Y-116800147D01*
X136860273Y-116908320D01*
X136625241Y-117065363D01*
X136425363Y-117265241D01*
X136268320Y-117500273D01*
X136160147Y-117761426D01*
X136105000Y-118038665D01*
X136105000Y-118321335D01*
X136160147Y-118598574D01*
X136268320Y-118859727D01*
X136425363Y-119094759D01*
X136625241Y-119294637D01*
X136655000Y-119314521D01*
X136655001Y-125187422D01*
X135623518Y-126218906D01*
X135605990Y-126176589D01*
X135443475Y-125933368D01*
X135236632Y-125726525D01*
X135062240Y-125610000D01*
X135236632Y-125493475D01*
X135443475Y-125286632D01*
X135605990Y-125043411D01*
X135717932Y-124773158D01*
X135775000Y-124486260D01*
X135775000Y-124193740D01*
X135717932Y-123906842D01*
X135605990Y-123636589D01*
X135443475Y-123393368D01*
X135236632Y-123186525D01*
X135054466Y-123064805D01*
X135171355Y-122995178D01*
X135387588Y-122800269D01*
X135561641Y-122566920D01*
X135686825Y-122304099D01*
X135731476Y-122156890D01*
X135610155Y-121927000D01*
X134417000Y-121927000D01*
X134417000Y-121947000D01*
X134163000Y-121947000D01*
X134163000Y-121927000D01*
X132969845Y-121927000D01*
X132848524Y-122156890D01*
X132893175Y-122304099D01*
X133018359Y-122566920D01*
X133192412Y-122800269D01*
X133408645Y-122995178D01*
X133525534Y-123064805D01*
X133343368Y-123186525D01*
X133136525Y-123393368D01*
X132974010Y-123636589D01*
X132862068Y-123906842D01*
X132805000Y-124193740D01*
X132805000Y-124486260D01*
X132862068Y-124773158D01*
X132974010Y-125043411D01*
X133136525Y-125286632D01*
X133343368Y-125493475D01*
X133517760Y-125610000D01*
X133343368Y-125726525D01*
X133136525Y-125933368D01*
X132974010Y-126176589D01*
X132862068Y-126446842D01*
X132805000Y-126733740D01*
X132805000Y-127026260D01*
X132862068Y-127313158D01*
X132974010Y-127583411D01*
X133136525Y-127826632D01*
X133343368Y-128033475D01*
X133586589Y-128195990D01*
X133856842Y-128307932D01*
X134143740Y-128365000D01*
X134405000Y-128365000D01*
X134405001Y-129276314D01*
X134214201Y-129467114D01*
X134062629Y-129693957D01*
X133958225Y-129946011D01*
X133905000Y-130213589D01*
X133905000Y-130486411D01*
X133958225Y-130753989D01*
X134062629Y-131006043D01*
X134094411Y-131053608D01*
X134085182Y-131061182D01*
X134057469Y-131094950D01*
X132302780Y-132849640D01*
X132209638Y-132710242D01*
X132009760Y-132510364D01*
X131777242Y-132355001D01*
X132009760Y-132199638D01*
X132209638Y-131999760D01*
X132366681Y-131764728D01*
X132474854Y-131503575D01*
X132530001Y-131226336D01*
X132530001Y-130943666D01*
X132474854Y-130666427D01*
X132366681Y-130405274D01*
X132209638Y-130170242D01*
X132009760Y-129970364D01*
X131777242Y-129815001D01*
X132009760Y-129659638D01*
X132209638Y-129459760D01*
X132366681Y-129224728D01*
X132474854Y-128963575D01*
X132530001Y-128686336D01*
X132530001Y-128403666D01*
X132474854Y-128126427D01*
X132366681Y-127865274D01*
X132209638Y-127630242D01*
X132009760Y-127430364D01*
X131777242Y-127275001D01*
X132009760Y-127119638D01*
X132209638Y-126919760D01*
X132366681Y-126684728D01*
X132474854Y-126423575D01*
X132530001Y-126146336D01*
X132530001Y-125863666D01*
X132474854Y-125586427D01*
X132366681Y-125325274D01*
X132209638Y-125090242D01*
X132009760Y-124890364D01*
X131777242Y-124735001D01*
X132009760Y-124579638D01*
X132209638Y-124379760D01*
X132366681Y-124144728D01*
X132474854Y-123883575D01*
X132530001Y-123606336D01*
X132530001Y-123323666D01*
X132474854Y-123046427D01*
X132366681Y-122785274D01*
X132209638Y-122550242D01*
X132009760Y-122350364D01*
X131777242Y-122195001D01*
X132009760Y-122039638D01*
X132209638Y-121839760D01*
X132366681Y-121604728D01*
X132474854Y-121343575D01*
X132530001Y-121066336D01*
X132530001Y-120783666D01*
X132474854Y-120506427D01*
X132366681Y-120245274D01*
X132209638Y-120010242D01*
X132009760Y-119810364D01*
X131774728Y-119653321D01*
X131764136Y-119648934D01*
X131950132Y-119537386D01*
X132158520Y-119348415D01*
X132326038Y-119122421D01*
X132446247Y-118868088D01*
X132486905Y-118734040D01*
X132364917Y-118512003D01*
X132467202Y-118512003D01*
X132848790Y-118893592D01*
X132805000Y-119113740D01*
X132805000Y-119406260D01*
X132862068Y-119693158D01*
X132974010Y-119963411D01*
X133136525Y-120206632D01*
X133343368Y-120413475D01*
X133525534Y-120535195D01*
X133408645Y-120604822D01*
X133192412Y-120799731D01*
X133018359Y-121033080D01*
X132893175Y-121295901D01*
X132848524Y-121443110D01*
X132969845Y-121673000D01*
X134163000Y-121673000D01*
X134163000Y-121653000D01*
X134417000Y-121653000D01*
X134417000Y-121673000D01*
X135610155Y-121673000D01*
X135731476Y-121443110D01*
X135686825Y-121295901D01*
X135561641Y-121033080D01*
X135387588Y-120799731D01*
X135171355Y-120604822D01*
X135054466Y-120535195D01*
X135236632Y-120413475D01*
X135443475Y-120206632D01*
X135605990Y-119963411D01*
X135717932Y-119693158D01*
X135775000Y-119406260D01*
X135775000Y-119113740D01*
X135717932Y-118826842D01*
X135605990Y-118556589D01*
X135443475Y-118313368D01*
X135236632Y-118106525D01*
X135062240Y-117990000D01*
X135236632Y-117873475D01*
X135443475Y-117666632D01*
X135605990Y-117423411D01*
X135717932Y-117153158D01*
X135775000Y-116866260D01*
X135775000Y-116573740D01*
X135717932Y-116286842D01*
X135605990Y-116016589D01*
X135443475Y-115773368D01*
X135311620Y-115641513D01*
X135384180Y-115619502D01*
X135494494Y-115560537D01*
X135591185Y-115481185D01*
X135670537Y-115384494D01*
X135729502Y-115274180D01*
X135765812Y-115154482D01*
X135778072Y-115030000D01*
X135778072Y-113330000D01*
X135765812Y-113205518D01*
X135729502Y-113085820D01*
X135670537Y-112975506D01*
X135591185Y-112878815D01*
X135494494Y-112799463D01*
X135384180Y-112740498D01*
X135264482Y-112704188D01*
X135140000Y-112691928D01*
X133869509Y-112691928D01*
X133864002Y-112636013D01*
X133820545Y-112492752D01*
X133749973Y-112360723D01*
X133678798Y-112273996D01*
X133655000Y-112244998D01*
X133626003Y-112221201D01*
X132533073Y-111128272D01*
X132533073Y-109965001D01*
X132532568Y-109959872D01*
X136555000Y-109959872D01*
X136555000Y-110400128D01*
X136640890Y-110831925D01*
X136809369Y-111238669D01*
X137053962Y-111604729D01*
X137365271Y-111916038D01*
X137731331Y-112160631D01*
X138138075Y-112329110D01*
X138569872Y-112415000D01*
X139010128Y-112415000D01*
X139441925Y-112329110D01*
X139848669Y-112160631D01*
X140214729Y-111916038D01*
X140526038Y-111604729D01*
X140770631Y-111238669D01*
X140939110Y-110831925D01*
X141025000Y-110400128D01*
X141025000Y-109959872D01*
X140939110Y-109528075D01*
X140770631Y-109121331D01*
X140526038Y-108755271D01*
X140214729Y-108443962D01*
X139848669Y-108199369D01*
X139441925Y-108030890D01*
X139010128Y-107945000D01*
X138569872Y-107945000D01*
X138138075Y-108030890D01*
X137731331Y-108199369D01*
X137365271Y-108443962D01*
X137053962Y-108755271D01*
X136809369Y-109121331D01*
X136640890Y-109528075D01*
X136555000Y-109959872D01*
X132532568Y-109959872D01*
X132520813Y-109840519D01*
X132484503Y-109720821D01*
X132425538Y-109610507D01*
X132346186Y-109513816D01*
X132249495Y-109434464D01*
X132139181Y-109375499D01*
X132019483Y-109339189D01*
X131895001Y-109326929D01*
X130295001Y-109326929D01*
X130275000Y-109328899D01*
X130275000Y-107415000D01*
X146913000Y-107415000D01*
X146913000Y-109451184D01*
G37*
%TD.AperFunction*%
D19*
X131222001Y-118258001D02*
X131242001Y-118258001D01*
X131242001Y-118512001D01*
X131222001Y-118512001D01*
X131222001Y-118532001D01*
X130968001Y-118532001D01*
X130968001Y-118512001D01*
X130948001Y-118512001D01*
X130948001Y-118258001D01*
X130968001Y-118258001D01*
X130968001Y-118238001D01*
X131222001Y-118238001D01*
X131222001Y-118258001D01*
%TA.AperFunction,Conductor*%
D20*
G36*
X131222001Y-118258001D02*
G01*
X131242001Y-118258001D01*
X131242001Y-118512001D01*
X131222001Y-118512001D01*
X131222001Y-118532001D01*
X130968001Y-118532001D01*
X130968001Y-118512001D01*
X130948001Y-118512001D01*
X130948001Y-118258001D01*
X130968001Y-118258001D01*
X130968001Y-118238001D01*
X131222001Y-118238001D01*
X131222001Y-118258001D01*
G37*
%TD.AperFunction*%
%TD*%
M02*
