%TF.GenerationSoftware,KiCad,Pcbnew,(5.1.12)-1*%
%TF.CreationDate,2024-12-20T23:38:59+09:00*%
%TF.ProjectId,Cuicuit,43756963-7569-4742-9e6b-696361645f70,rev?*%
%TF.SameCoordinates,Original*%
%TF.FileFunction,Soldermask,Bot*%
%TF.FilePolarity,Negative*%
%FSLAX46Y46*%
G04 Gerber Fmt 4.6, Leading zero omitted, Abs format (unit mm)*
G04 Created by KiCad (PCBNEW (5.1.12)-1) date 2024-12-20 23:38:59*
%MOMM*%
%LPD*%
G01*
G04 APERTURE LIST*
%ADD10C,1.600000*%
%ADD11O,1.600000X1.600000*%
%ADD12C,1.500000*%
%ADD13R,1.500000X1.500000*%
%ADD14R,1.600000X1.600000*%
%ADD15R,1.700000X1.700000*%
%ADD16O,1.700000X1.700000*%
%ADD17C,3.200000*%
G04 APERTURE END LIST*
D10*
%TO.C,1N4007*%
X140540000Y-118180000D03*
D11*
X140540000Y-128340000D03*
%TD*%
D12*
%TO.C,2SC1815*%
X135290000Y-132890000D03*
X135290000Y-130350000D03*
D13*
X135290000Y-135430000D03*
%TD*%
D14*
%TO.C,Arduino_nano_33_ble1*%
X131095001Y-110765001D03*
D11*
X146335001Y-143785001D03*
X131095001Y-113305001D03*
X146335001Y-141245001D03*
X131095001Y-115845001D03*
X146335001Y-138705001D03*
X131095001Y-118385001D03*
X146335001Y-136165001D03*
X131095001Y-120925001D03*
X146335001Y-133625001D03*
X131095001Y-123465001D03*
X146335001Y-131085001D03*
X131095001Y-126005001D03*
X146335001Y-128545001D03*
X131095001Y-128545001D03*
X146335001Y-126005001D03*
X131095001Y-131085001D03*
X146335001Y-123465001D03*
X131095001Y-133625001D03*
X146335001Y-120925001D03*
X131095001Y-136165001D03*
X146335001Y-118385001D03*
X131095001Y-138705001D03*
X146335001Y-115845001D03*
X131095001Y-141245001D03*
X146335001Y-113305001D03*
X131095001Y-143785001D03*
X146335001Y-110765001D03*
X131095001Y-146325001D03*
X146335001Y-146325001D03*
%TD*%
D15*
%TO.C,Bend*%
X139290000Y-134680000D03*
D16*
X139290000Y-132140000D03*
%TD*%
D15*
%TO.C,BLE*%
X134290000Y-114180000D03*
D16*
X134290000Y-116720000D03*
X134290000Y-119260000D03*
X134290000Y-121800000D03*
X134290000Y-124340000D03*
X134290000Y-126880000D03*
%TD*%
D15*
%TO.C,DCDC*%
X143040000Y-140930000D03*
D16*
X143040000Y-138390000D03*
X143040000Y-135850000D03*
%TD*%
D17*
%TO.C,H1*%
X138790000Y-110180000D03*
%TD*%
%TO.C,H2*%
X138790000Y-146430000D03*
%TD*%
D16*
%TO.C,Motor*%
X134790000Y-138390000D03*
D15*
X134790000Y-140930000D03*
%TD*%
D11*
%TO.C,R1*%
X143540000Y-128340000D03*
D10*
X143540000Y-118180000D03*
%TD*%
%TO.C,R2*%
X137540000Y-118180000D03*
D11*
X137540000Y-128340000D03*
%TD*%
D15*
%TO.C,PW*%
X138790000Y-140930000D03*
D16*
X138790000Y-138390000D03*
%TD*%
M02*
