%TF.GenerationSoftware,KiCad,Pcbnew,(5.1.12)-1*%
%TF.CreationDate,2024-12-20T23:38:59+09:00*%
%TF.ProjectId,Cuicuit,43756963-7569-4742-9e6b-696361645f70,rev?*%
%TF.SameCoordinates,Original*%
%TF.FileFunction,Legend,Top*%
%TF.FilePolarity,Positive*%
%FSLAX46Y46*%
G04 Gerber Fmt 4.6, Leading zero omitted, Abs format (unit mm)*
G04 Created by KiCad (PCBNEW (5.1.12)-1) date 2024-12-20 23:38:59*
%MOMM*%
%LPD*%
G01*
G04 APERTURE LIST*
%ADD10C,0.120000*%
%ADD11C,0.150000*%
%ADD12C,1.600000*%
%ADD13O,1.600000X1.600000*%
%ADD14C,1.500000*%
%ADD15R,1.500000X1.500000*%
%ADD16R,1.600000X1.600000*%
%ADD17R,1.700000X1.700000*%
%ADD18O,1.700000X1.700000*%
%ADD19C,3.200000*%
G04 APERTURE END LIST*
D10*
%TO.C,1N4007*%
X141910000Y-119990000D02*
X139170000Y-119990000D01*
X139170000Y-119990000D02*
X139170000Y-126530000D01*
X139170000Y-126530000D02*
X141910000Y-126530000D01*
X141910000Y-126530000D02*
X141910000Y-119990000D01*
X140540000Y-119220000D02*
X140540000Y-119990000D01*
X140540000Y-127300000D02*
X140540000Y-126530000D01*
%TO.C,2SC1815*%
X137140000Y-134690000D02*
X137140000Y-131090000D01*
X136412795Y-135214184D02*
G75*
G03*
X137140000Y-134690000I-1122795J2324184D01*
G01*
X134191193Y-135246400D02*
G75*
G02*
X132690000Y-132890000I1098807J2356400D01*
G01*
X134191193Y-130533600D02*
G75*
G03*
X132690000Y-132890000I1098807J-2356400D01*
G01*
X136412795Y-130565816D02*
G75*
G02*
X137140000Y-131090000I-1122795J-2324184D01*
G01*
%TO.C,Arduino_nano_33_ble1*%
X132365001Y-112035001D02*
X132365001Y-109495001D01*
X132365001Y-109495001D02*
X129695001Y-109495001D01*
X129695001Y-112035001D02*
X129695001Y-150265001D01*
X129695001Y-106825001D02*
X129695001Y-109495001D01*
X145065001Y-109495001D02*
X147735001Y-109495001D01*
X145065001Y-109495001D02*
X145065001Y-147595001D01*
X145065001Y-147595001D02*
X147735001Y-147595001D01*
X132365001Y-112035001D02*
X129695001Y-112035001D01*
X132365001Y-112035001D02*
X132365001Y-147595001D01*
X132365001Y-147595001D02*
X129695001Y-147595001D01*
X129695001Y-150265001D02*
X147735001Y-150265001D01*
X147735001Y-150265001D02*
X147735001Y-106825001D01*
X147735001Y-106825001D02*
X129695001Y-106825001D01*
%TO.C,R1*%
X143540000Y-127300000D02*
X143540000Y-126530000D01*
X143540000Y-119220000D02*
X143540000Y-119990000D01*
X144910000Y-126530000D02*
X144910000Y-119990000D01*
X142170000Y-126530000D02*
X144910000Y-126530000D01*
X142170000Y-119990000D02*
X142170000Y-126530000D01*
X144910000Y-119990000D02*
X142170000Y-119990000D01*
%TO.C,R2*%
X138910000Y-119990000D02*
X136170000Y-119990000D01*
X136170000Y-119990000D02*
X136170000Y-126530000D01*
X136170000Y-126530000D02*
X138910000Y-126530000D01*
X138910000Y-126530000D02*
X138910000Y-119990000D01*
X137540000Y-119220000D02*
X137540000Y-119990000D01*
X137540000Y-127300000D02*
X137540000Y-126530000D01*
%TO.C,1N4007*%
D11*
X140992380Y-125402857D02*
X140992380Y-125974285D01*
X140992380Y-125688571D02*
X139992380Y-125688571D01*
X140135238Y-125783809D01*
X140230476Y-125879047D01*
X140278095Y-125974285D01*
X140992380Y-124974285D02*
X139992380Y-124974285D01*
X140992380Y-124402857D01*
X139992380Y-124402857D01*
X140325714Y-123498095D02*
X140992380Y-123498095D01*
X139944761Y-123736190D02*
X140659047Y-123974285D01*
X140659047Y-123355238D01*
X139992380Y-122783809D02*
X139992380Y-122688571D01*
X140040000Y-122593333D01*
X140087619Y-122545714D01*
X140182857Y-122498095D01*
X140373333Y-122450476D01*
X140611428Y-122450476D01*
X140801904Y-122498095D01*
X140897142Y-122545714D01*
X140944761Y-122593333D01*
X140992380Y-122688571D01*
X140992380Y-122783809D01*
X140944761Y-122879047D01*
X140897142Y-122926666D01*
X140801904Y-122974285D01*
X140611428Y-123021904D01*
X140373333Y-123021904D01*
X140182857Y-122974285D01*
X140087619Y-122926666D01*
X140040000Y-122879047D01*
X139992380Y-122783809D01*
X139992380Y-121831428D02*
X139992380Y-121736190D01*
X140040000Y-121640952D01*
X140087619Y-121593333D01*
X140182857Y-121545714D01*
X140373333Y-121498095D01*
X140611428Y-121498095D01*
X140801904Y-121545714D01*
X140897142Y-121593333D01*
X140944761Y-121640952D01*
X140992380Y-121736190D01*
X140992380Y-121831428D01*
X140944761Y-121926666D01*
X140897142Y-121974285D01*
X140801904Y-122021904D01*
X140611428Y-122069523D01*
X140373333Y-122069523D01*
X140182857Y-122021904D01*
X140087619Y-121974285D01*
X140040000Y-121926666D01*
X139992380Y-121831428D01*
X139992380Y-121164761D02*
X139992380Y-120498095D01*
X140992380Y-120926666D01*
%TO.C,2SC1815*%
X132837619Y-136096666D02*
X132790000Y-136049047D01*
X132742380Y-135953809D01*
X132742380Y-135715714D01*
X132790000Y-135620476D01*
X132837619Y-135572857D01*
X132932857Y-135525238D01*
X133028095Y-135525238D01*
X133170952Y-135572857D01*
X133742380Y-136144285D01*
X133742380Y-135525238D01*
X133694761Y-135144285D02*
X133742380Y-135001428D01*
X133742380Y-134763333D01*
X133694761Y-134668095D01*
X133647142Y-134620476D01*
X133551904Y-134572857D01*
X133456666Y-134572857D01*
X133361428Y-134620476D01*
X133313809Y-134668095D01*
X133266190Y-134763333D01*
X133218571Y-134953809D01*
X133170952Y-135049047D01*
X133123333Y-135096666D01*
X133028095Y-135144285D01*
X132932857Y-135144285D01*
X132837619Y-135096666D01*
X132790000Y-135049047D01*
X132742380Y-134953809D01*
X132742380Y-134715714D01*
X132790000Y-134572857D01*
X133647142Y-133572857D02*
X133694761Y-133620476D01*
X133742380Y-133763333D01*
X133742380Y-133858571D01*
X133694761Y-134001428D01*
X133599523Y-134096666D01*
X133504285Y-134144285D01*
X133313809Y-134191904D01*
X133170952Y-134191904D01*
X132980476Y-134144285D01*
X132885238Y-134096666D01*
X132790000Y-134001428D01*
X132742380Y-133858571D01*
X132742380Y-133763333D01*
X132790000Y-133620476D01*
X132837619Y-133572857D01*
X133742380Y-132620476D02*
X133742380Y-133191904D01*
X133742380Y-132906190D02*
X132742380Y-132906190D01*
X132885238Y-133001428D01*
X132980476Y-133096666D01*
X133028095Y-133191904D01*
X133170952Y-132049047D02*
X133123333Y-132144285D01*
X133075714Y-132191904D01*
X132980476Y-132239523D01*
X132932857Y-132239523D01*
X132837619Y-132191904D01*
X132790000Y-132144285D01*
X132742380Y-132049047D01*
X132742380Y-131858571D01*
X132790000Y-131763333D01*
X132837619Y-131715714D01*
X132932857Y-131668095D01*
X132980476Y-131668095D01*
X133075714Y-131715714D01*
X133123333Y-131763333D01*
X133170952Y-131858571D01*
X133170952Y-132049047D01*
X133218571Y-132144285D01*
X133266190Y-132191904D01*
X133361428Y-132239523D01*
X133551904Y-132239523D01*
X133647142Y-132191904D01*
X133694761Y-132144285D01*
X133742380Y-132049047D01*
X133742380Y-131858571D01*
X133694761Y-131763333D01*
X133647142Y-131715714D01*
X133551904Y-131668095D01*
X133361428Y-131668095D01*
X133266190Y-131715714D01*
X133218571Y-131763333D01*
X133170952Y-131858571D01*
X133742380Y-130715714D02*
X133742380Y-131287142D01*
X133742380Y-131001428D02*
X132742380Y-131001428D01*
X132885238Y-131096666D01*
X132980476Y-131191904D01*
X133028095Y-131287142D01*
X132742380Y-129810952D02*
X132742380Y-130287142D01*
X133218571Y-130334761D01*
X133170952Y-130287142D01*
X133123333Y-130191904D01*
X133123333Y-129953809D01*
X133170952Y-129858571D01*
X133218571Y-129810952D01*
X133313809Y-129763333D01*
X133551904Y-129763333D01*
X133647142Y-129810952D01*
X133694761Y-129858571D01*
X133742380Y-129953809D01*
X133742380Y-130191904D01*
X133694761Y-130287142D01*
X133647142Y-130334761D01*
%TO.C,R1*%
X143992380Y-123346666D02*
X143516190Y-123680000D01*
X143992380Y-123918095D02*
X142992380Y-123918095D01*
X142992380Y-123537142D01*
X143040000Y-123441904D01*
X143087619Y-123394285D01*
X143182857Y-123346666D01*
X143325714Y-123346666D01*
X143420952Y-123394285D01*
X143468571Y-123441904D01*
X143516190Y-123537142D01*
X143516190Y-123918095D01*
X143992380Y-122394285D02*
X143992380Y-122965714D01*
X143992380Y-122680000D02*
X142992380Y-122680000D01*
X143135238Y-122775238D01*
X143230476Y-122870476D01*
X143278095Y-122965714D01*
%TO.C,R2*%
X137992380Y-123426666D02*
X137516190Y-123760000D01*
X137992380Y-123998095D02*
X136992380Y-123998095D01*
X136992380Y-123617142D01*
X137040000Y-123521904D01*
X137087619Y-123474285D01*
X137182857Y-123426666D01*
X137325714Y-123426666D01*
X137420952Y-123474285D01*
X137468571Y-123521904D01*
X137516190Y-123617142D01*
X137516190Y-123998095D01*
X137087619Y-123045714D02*
X137040000Y-122998095D01*
X136992380Y-122902857D01*
X136992380Y-122664761D01*
X137040000Y-122569523D01*
X137087619Y-122521904D01*
X137182857Y-122474285D01*
X137278095Y-122474285D01*
X137420952Y-122521904D01*
X137992380Y-123093333D01*
X137992380Y-122474285D01*
%TD*%
%LPC*%
D12*
%TO.C,1N4007*%
X140540000Y-118180000D03*
D13*
X140540000Y-128340000D03*
%TD*%
D14*
%TO.C,2SC1815*%
X135290000Y-132890000D03*
X135290000Y-130350000D03*
D15*
X135290000Y-135430000D03*
%TD*%
D16*
%TO.C,Arduino_nano_33_ble1*%
X131095001Y-110765001D03*
D13*
X146335001Y-143785001D03*
X131095001Y-113305001D03*
X146335001Y-141245001D03*
X131095001Y-115845001D03*
X146335001Y-138705001D03*
X131095001Y-118385001D03*
X146335001Y-136165001D03*
X131095001Y-120925001D03*
X146335001Y-133625001D03*
X131095001Y-123465001D03*
X146335001Y-131085001D03*
X131095001Y-126005001D03*
X146335001Y-128545001D03*
X131095001Y-128545001D03*
X146335001Y-126005001D03*
X131095001Y-131085001D03*
X146335001Y-123465001D03*
X131095001Y-133625001D03*
X146335001Y-120925001D03*
X131095001Y-136165001D03*
X146335001Y-118385001D03*
X131095001Y-138705001D03*
X146335001Y-115845001D03*
X131095001Y-141245001D03*
X146335001Y-113305001D03*
X131095001Y-143785001D03*
X146335001Y-110765001D03*
X131095001Y-146325001D03*
X146335001Y-146325001D03*
%TD*%
D17*
%TO.C,Bend*%
X139290000Y-134680000D03*
D18*
X139290000Y-132140000D03*
%TD*%
D17*
%TO.C,BLE*%
X134290000Y-114180000D03*
D18*
X134290000Y-116720000D03*
X134290000Y-119260000D03*
X134290000Y-121800000D03*
X134290000Y-124340000D03*
X134290000Y-126880000D03*
%TD*%
D17*
%TO.C,DCDC*%
X143040000Y-140930000D03*
D18*
X143040000Y-138390000D03*
X143040000Y-135850000D03*
%TD*%
D19*
%TO.C,H1*%
X138790000Y-110180000D03*
%TD*%
%TO.C,H2*%
X138790000Y-146430000D03*
%TD*%
D18*
%TO.C,Motor*%
X134790000Y-138390000D03*
D17*
X134790000Y-140930000D03*
%TD*%
D13*
%TO.C,R1*%
X143540000Y-128340000D03*
D12*
X143540000Y-118180000D03*
%TD*%
%TO.C,R2*%
X137540000Y-118180000D03*
D13*
X137540000Y-128340000D03*
%TD*%
D17*
%TO.C,PW*%
X138790000Y-140930000D03*
D18*
X138790000Y-138390000D03*
%TD*%
M02*
