M48
; DRILL file {KiCad (5.1.12)-1} date 12/20/24 23:39:04
; FORMAT={-:-/ absolute / inch / decimal}
; #@! TF.CreationDate,2024-12-20T23:39:04+09:00
; #@! TF.GenerationSoftware,Kicad,Pcbnew,(5.1.12)-1
; #@! TF.FileFunction,Plated,1,2,PTH
FMAT,2
INCH
T1C0.0315
T2C0.0394
%
G90
G05
T1
X5.3264Y-5.1319
X5.3264Y-5.2319
X5.3264Y-5.3319
X5.415Y-4.6528
X5.415Y-5.0528
X5.5331Y-4.6528
X5.5331Y-5.0528
X5.6512Y-4.6528
X5.6512Y-5.0528
T2
X5.1612Y-4.3608
X5.1612Y-4.4608
X5.1612Y-4.5608
X5.1612Y-4.6608
X5.1612Y-4.7608
X5.1612Y-4.8608
X5.1612Y-4.9608
X5.1612Y-5.0608
X5.1612Y-5.1608
X5.1612Y-5.2608
X5.1612Y-5.3608
X5.1612Y-5.4608
X5.1612Y-5.5608
X5.1612Y-5.6608
X5.1612Y-5.7608
X5.287Y-4.4953
X5.287Y-4.5953
X5.287Y-4.6953
X5.287Y-4.7953
X5.287Y-4.8953
X5.287Y-4.9953
X5.3067Y-5.4484
X5.3067Y-5.5484
X5.4642Y-5.4484
X5.4642Y-5.5484
X5.4839Y-5.2024
X5.4839Y-5.3024
X5.6315Y-5.3484
X5.6315Y-5.4484
X5.6315Y-5.5484
X5.7612Y-4.3608
X5.7612Y-4.4608
X5.7612Y-4.5608
X5.7612Y-4.6608
X5.7612Y-4.7608
X5.7612Y-4.8608
X5.7612Y-4.9608
X5.7612Y-5.0608
X5.7612Y-5.1608
X5.7612Y-5.2608
X5.7612Y-5.3608
X5.7612Y-5.4608
X5.7612Y-5.5608
X5.7612Y-5.6608
X5.7612Y-5.7608
T0
M30
