%TF.GenerationSoftware,KiCad,Pcbnew,(5.1.12)-1*%
%TF.CreationDate,2024-12-20T23:38:59+09:00*%
%TF.ProjectId,Cuicuit,43756963-7569-4742-9e6b-696361645f70,rev?*%
%TF.SameCoordinates,Original*%
%TF.FileFunction,Legend,Bot*%
%TF.FilePolarity,Positive*%
%FSLAX46Y46*%
G04 Gerber Fmt 4.6, Leading zero omitted, Abs format (unit mm)*
G04 Created by KiCad (PCBNEW (5.1.12)-1) date 2024-12-20 23:38:59*
%MOMM*%
%LPD*%
G01*
G04 APERTURE LIST*
%ADD10C,0.100000*%
%ADD11C,0.010000*%
%ADD12C,0.120000*%
%ADD13C,0.150000*%
%ADD14C,1.600000*%
%ADD15O,1.600000X1.600000*%
%ADD16C,1.500000*%
%ADD17R,1.500000X1.500000*%
%ADD18R,1.600000X1.600000*%
%ADD19R,1.700000X1.700000*%
%ADD20O,1.700000X1.700000*%
%ADD21C,3.200000*%
G04 APERTURE END LIST*
D10*
X136182857Y-149406190D02*
X136349523Y-149168095D01*
X136468571Y-149406190D02*
X136468571Y-148906190D01*
X136278095Y-148906190D01*
X136230476Y-148930000D01*
X136206666Y-148953809D01*
X136182857Y-149001428D01*
X136182857Y-149072857D01*
X136206666Y-149120476D01*
X136230476Y-149144285D01*
X136278095Y-149168095D01*
X136468571Y-149168095D01*
X136016190Y-149072857D02*
X135897142Y-149406190D01*
X135778095Y-149072857D02*
X135897142Y-149406190D01*
X135944761Y-149525238D01*
X135968571Y-149549047D01*
X136016190Y-149572857D01*
X135516190Y-149406190D02*
X135563809Y-149382380D01*
X135587619Y-149358571D01*
X135611428Y-149310952D01*
X135611428Y-149168095D01*
X135587619Y-149120476D01*
X135563809Y-149096666D01*
X135516190Y-149072857D01*
X135444761Y-149072857D01*
X135397142Y-149096666D01*
X135373333Y-149120476D01*
X135349523Y-149168095D01*
X135349523Y-149310952D01*
X135373333Y-149358571D01*
X135397142Y-149382380D01*
X135444761Y-149406190D01*
X135516190Y-149406190D01*
X135135238Y-149358571D02*
X135111428Y-149382380D01*
X135135238Y-149406190D01*
X135159047Y-149382380D01*
X135135238Y-149358571D01*
X135135238Y-149406190D01*
X134897142Y-149406190D02*
X134897142Y-148906190D01*
X134611428Y-149406190D01*
X134611428Y-148906190D01*
X146379761Y-148028809D02*
X146355952Y-148005000D01*
X146308333Y-147981190D01*
X146189285Y-147981190D01*
X146141666Y-148005000D01*
X146117857Y-148028809D01*
X146094047Y-148076428D01*
X146094047Y-148124047D01*
X146117857Y-148195476D01*
X146403571Y-148481190D01*
X146094047Y-148481190D01*
X145784523Y-147981190D02*
X145736904Y-147981190D01*
X145689285Y-148005000D01*
X145665476Y-148028809D01*
X145641666Y-148076428D01*
X145617857Y-148171666D01*
X145617857Y-148290714D01*
X145641666Y-148385952D01*
X145665476Y-148433571D01*
X145689285Y-148457380D01*
X145736904Y-148481190D01*
X145784523Y-148481190D01*
X145832142Y-148457380D01*
X145855952Y-148433571D01*
X145879761Y-148385952D01*
X145903571Y-148290714D01*
X145903571Y-148171666D01*
X145879761Y-148076428D01*
X145855952Y-148028809D01*
X145832142Y-148005000D01*
X145784523Y-147981190D01*
X145427380Y-148028809D02*
X145403571Y-148005000D01*
X145355952Y-147981190D01*
X145236904Y-147981190D01*
X145189285Y-148005000D01*
X145165476Y-148028809D01*
X145141666Y-148076428D01*
X145141666Y-148124047D01*
X145165476Y-148195476D01*
X145451190Y-148481190D01*
X145141666Y-148481190D01*
X144713095Y-148147857D02*
X144713095Y-148481190D01*
X144832142Y-147957380D02*
X144951190Y-148314523D01*
X144641666Y-148314523D01*
X144094047Y-147957380D02*
X144522619Y-148600238D01*
X143665476Y-148481190D02*
X143951190Y-148481190D01*
X143808333Y-148481190D02*
X143808333Y-147981190D01*
X143855952Y-148052619D01*
X143903571Y-148100238D01*
X143951190Y-148124047D01*
X143475000Y-148028809D02*
X143451190Y-148005000D01*
X143403571Y-147981190D01*
X143284523Y-147981190D01*
X143236904Y-148005000D01*
X143213095Y-148028809D01*
X143189285Y-148076428D01*
X143189285Y-148124047D01*
X143213095Y-148195476D01*
X143498809Y-148481190D01*
X143189285Y-148481190D01*
X142617857Y-147957380D02*
X143046428Y-148600238D01*
X142475000Y-148028809D02*
X142451190Y-148005000D01*
X142403571Y-147981190D01*
X142284523Y-147981190D01*
X142236904Y-148005000D01*
X142213095Y-148028809D01*
X142189285Y-148076428D01*
X142189285Y-148124047D01*
X142213095Y-148195476D01*
X142498809Y-148481190D01*
X142189285Y-148481190D01*
X141879761Y-147981190D02*
X141832142Y-147981190D01*
X141784523Y-148005000D01*
X141760714Y-148028809D01*
X141736904Y-148076428D01*
X141713095Y-148171666D01*
X141713095Y-148290714D01*
X141736904Y-148385952D01*
X141760714Y-148433571D01*
X141784523Y-148457380D01*
X141832142Y-148481190D01*
X141879761Y-148481190D01*
X141927380Y-148457380D01*
X141951190Y-148433571D01*
X141975000Y-148385952D01*
X141998809Y-148290714D01*
X141998809Y-148171666D01*
X141975000Y-148076428D01*
X141951190Y-148028809D01*
X141927380Y-148005000D01*
X141879761Y-147981190D01*
X146355952Y-149331190D02*
X146355952Y-148831190D01*
X146070238Y-149331190D01*
X146070238Y-148831190D01*
X145641666Y-149307380D02*
X145689285Y-149331190D01*
X145784523Y-149331190D01*
X145832142Y-149307380D01*
X145855952Y-149259761D01*
X145855952Y-149069285D01*
X145832142Y-149021666D01*
X145784523Y-148997857D01*
X145689285Y-148997857D01*
X145641666Y-149021666D01*
X145617857Y-149069285D01*
X145617857Y-149116904D01*
X145855952Y-149164523D01*
X145451190Y-148997857D02*
X145355952Y-149331190D01*
X145260714Y-149093095D01*
X145165476Y-149331190D01*
X145070238Y-148997857D01*
X144213095Y-149283571D02*
X144236904Y-149307380D01*
X144308333Y-149331190D01*
X144355952Y-149331190D01*
X144427380Y-149307380D01*
X144475000Y-149259761D01*
X144498809Y-149212142D01*
X144522619Y-149116904D01*
X144522619Y-149045476D01*
X144498809Y-148950238D01*
X144475000Y-148902619D01*
X144427380Y-148855000D01*
X144355952Y-148831190D01*
X144308333Y-148831190D01*
X144236904Y-148855000D01*
X144213095Y-148878809D01*
X143927380Y-149331190D02*
X143975000Y-149307380D01*
X143998809Y-149283571D01*
X144022619Y-149235952D01*
X144022619Y-149093095D01*
X143998809Y-149045476D01*
X143975000Y-149021666D01*
X143927380Y-148997857D01*
X143855952Y-148997857D01*
X143808333Y-149021666D01*
X143784523Y-149045476D01*
X143760714Y-149093095D01*
X143760714Y-149235952D01*
X143784523Y-149283571D01*
X143808333Y-149307380D01*
X143855952Y-149331190D01*
X143927380Y-149331190D01*
X143546428Y-148997857D02*
X143546428Y-149331190D01*
X143546428Y-149045476D02*
X143522619Y-149021666D01*
X143475000Y-148997857D01*
X143403571Y-148997857D01*
X143355952Y-149021666D01*
X143332142Y-149069285D01*
X143332142Y-149331190D01*
X143165476Y-148997857D02*
X142975000Y-148997857D01*
X143094047Y-148831190D02*
X143094047Y-149259761D01*
X143070238Y-149307380D01*
X143022619Y-149331190D01*
X142975000Y-149331190D01*
X142808333Y-149331190D02*
X142808333Y-148997857D01*
X142808333Y-149093095D02*
X142784523Y-149045476D01*
X142760714Y-149021666D01*
X142713095Y-148997857D01*
X142665476Y-148997857D01*
X142427380Y-149331190D02*
X142475000Y-149307380D01*
X142498809Y-149283571D01*
X142522619Y-149235952D01*
X142522619Y-149093095D01*
X142498809Y-149045476D01*
X142475000Y-149021666D01*
X142427380Y-148997857D01*
X142355952Y-148997857D01*
X142308333Y-149021666D01*
X142284523Y-149045476D01*
X142260714Y-149093095D01*
X142260714Y-149235952D01*
X142284523Y-149283571D01*
X142308333Y-149307380D01*
X142355952Y-149331190D01*
X142427380Y-149331190D01*
X141975000Y-149331190D02*
X142022619Y-149307380D01*
X142046428Y-149259761D01*
X142046428Y-148831190D01*
X141713095Y-149331190D02*
X141760714Y-149307380D01*
X141784523Y-149259761D01*
X141784523Y-148831190D01*
X141332142Y-149307380D02*
X141379761Y-149331190D01*
X141475000Y-149331190D01*
X141522619Y-149307380D01*
X141546428Y-149259761D01*
X141546428Y-149069285D01*
X141522619Y-149021666D01*
X141475000Y-148997857D01*
X141379761Y-148997857D01*
X141332142Y-149021666D01*
X141308333Y-149069285D01*
X141308333Y-149116904D01*
X141546428Y-149164523D01*
X141094047Y-149331190D02*
X141094047Y-148997857D01*
X141094047Y-149093095D02*
X141070238Y-149045476D01*
X141046428Y-149021666D01*
X140998809Y-148997857D01*
X140951190Y-148997857D01*
X140451190Y-148997857D02*
X140332142Y-149331190D01*
X140213095Y-148997857D01*
X139832142Y-149307380D02*
X139879761Y-149331190D01*
X139975000Y-149331190D01*
X140022619Y-149307380D01*
X140046428Y-149259761D01*
X140046428Y-149069285D01*
X140022619Y-149021666D01*
X139975000Y-148997857D01*
X139879761Y-148997857D01*
X139832142Y-149021666D01*
X139808333Y-149069285D01*
X139808333Y-149116904D01*
X140046428Y-149164523D01*
X139594047Y-149331190D02*
X139594047Y-148997857D01*
X139594047Y-149093095D02*
X139570238Y-149045476D01*
X139546428Y-149021666D01*
X139498809Y-148997857D01*
X139451190Y-148997857D01*
X139284523Y-149283571D02*
X139260714Y-149307380D01*
X139284523Y-149331190D01*
X139308333Y-149307380D01*
X139284523Y-149283571D01*
X139284523Y-149331190D01*
X138784523Y-149331190D02*
X139070238Y-149331190D01*
X138927380Y-149331190D02*
X138927380Y-148831190D01*
X138975000Y-148902619D01*
X139022619Y-148950238D01*
X139070238Y-148974047D01*
X138570238Y-149283571D02*
X138546428Y-149307380D01*
X138570238Y-149331190D01*
X138594047Y-149307380D01*
X138570238Y-149283571D01*
X138570238Y-149331190D01*
X138236904Y-148831190D02*
X138189285Y-148831190D01*
X138141666Y-148855000D01*
X138117857Y-148878809D01*
X138094047Y-148926428D01*
X138070238Y-149021666D01*
X138070238Y-149140714D01*
X138094047Y-149235952D01*
X138117857Y-149283571D01*
X138141666Y-149307380D01*
X138189285Y-149331190D01*
X138236904Y-149331190D01*
X138284523Y-149307380D01*
X138308333Y-149283571D01*
X138332142Y-149235952D01*
X138355952Y-149140714D01*
X138355952Y-149021666D01*
X138332142Y-148926428D01*
X138308333Y-148878809D01*
X138284523Y-148855000D01*
X138236904Y-148831190D01*
D11*
%TO.C,G\u002A\u002A\u002A*%
G36*
X134804305Y-142154351D02*
G01*
X134676100Y-142175925D01*
X134551418Y-142210292D01*
X134432594Y-142256580D01*
X134321961Y-142313921D01*
X134221852Y-142381444D01*
X134157724Y-142435761D01*
X134102451Y-142487466D01*
X134037661Y-142454918D01*
X133945537Y-142415301D01*
X133839073Y-142381914D01*
X133744133Y-142359731D01*
X133688853Y-142351208D01*
X133620927Y-142345079D01*
X133544477Y-142341374D01*
X133463624Y-142340123D01*
X133382489Y-142341359D01*
X133305196Y-142345113D01*
X133235864Y-142351415D01*
X133204658Y-142355658D01*
X133114504Y-142372167D01*
X133037524Y-142391408D01*
X132974388Y-142413080D01*
X132925766Y-142436879D01*
X132892327Y-142462506D01*
X132874740Y-142489657D01*
X132872066Y-142505548D01*
X132874853Y-142524246D01*
X132884895Y-142537155D01*
X132904715Y-142545436D01*
X132936835Y-142550249D01*
X132973874Y-142552414D01*
X133071917Y-142561289D01*
X133177770Y-142580318D01*
X133269999Y-142603788D01*
X133312473Y-142616944D01*
X133339673Y-142627387D01*
X133351260Y-142634914D01*
X133346894Y-142639323D01*
X133331260Y-142640467D01*
X133311370Y-142642071D01*
X133280081Y-142646377D01*
X133242568Y-142652626D01*
X133221284Y-142656592D01*
X133082870Y-142692002D01*
X132947476Y-142743825D01*
X132815526Y-142811741D01*
X132687444Y-142895430D01*
X132563656Y-142994571D01*
X132444585Y-143108844D01*
X132330656Y-143237930D01*
X132222294Y-143381507D01*
X132182157Y-143440567D01*
X132144443Y-143498752D01*
X132114446Y-143547954D01*
X132089718Y-143592730D01*
X132067811Y-143637640D01*
X132046278Y-143687245D01*
X132035441Y-143713849D01*
X132014190Y-143771362D01*
X131991284Y-143841269D01*
X131967631Y-143920069D01*
X131944141Y-144004263D01*
X131921720Y-144090350D01*
X131901278Y-144174831D01*
X131883723Y-144254205D01*
X131869963Y-144324973D01*
X131860908Y-144383634D01*
X131860315Y-144388537D01*
X131856453Y-144418920D01*
X131852677Y-144444524D01*
X131850538Y-144456270D01*
X131848652Y-144473182D01*
X131847024Y-144503935D01*
X131845681Y-144545442D01*
X131844654Y-144594614D01*
X131843972Y-144648360D01*
X131843665Y-144703591D01*
X131843760Y-144757219D01*
X131844289Y-144806155D01*
X131845280Y-144847308D01*
X131846569Y-144874804D01*
X131849401Y-144912456D01*
X131852657Y-144937137D01*
X131857500Y-144952791D01*
X131865091Y-144963364D01*
X131875116Y-144971707D01*
X131891528Y-144982862D01*
X131902628Y-144983972D01*
X131916619Y-144975193D01*
X131920084Y-144972570D01*
X131935162Y-144955067D01*
X131950627Y-144924415D01*
X131967039Y-144879901D01*
X131992996Y-144810506D01*
X132026628Y-144733821D01*
X132065023Y-144655773D01*
X132105270Y-144582287D01*
X132143479Y-144520742D01*
X132164799Y-144489813D01*
X132182672Y-144465341D01*
X132195078Y-144450001D01*
X132199871Y-144446183D01*
X132200202Y-144455630D01*
X132197943Y-144477776D01*
X132193544Y-144508662D01*
X132190842Y-144525213D01*
X132179992Y-144595831D01*
X132172112Y-144664049D01*
X132166867Y-144734529D01*
X132163922Y-144811932D01*
X132162944Y-144900917D01*
X132162944Y-144913767D01*
X132165836Y-145050255D01*
X132174697Y-145174357D01*
X132190260Y-145289795D01*
X132213261Y-145400287D01*
X132244434Y-145509553D01*
X132284513Y-145621314D01*
X132319292Y-145705400D01*
X132374481Y-145825047D01*
X132435478Y-145943623D01*
X132500766Y-146058743D01*
X132568828Y-146168027D01*
X132638149Y-146269089D01*
X132707211Y-146359547D01*
X132774497Y-146437017D01*
X132804195Y-146467401D01*
X132860376Y-146522434D01*
X132879825Y-146611334D01*
X132896629Y-146682720D01*
X132914959Y-146748385D01*
X132935932Y-146810688D01*
X132960668Y-146871989D01*
X132990285Y-146934647D01*
X133025903Y-147001021D01*
X133068641Y-147073471D01*
X133119616Y-147154356D01*
X133179949Y-147246035D01*
X133182979Y-147250567D01*
X133255011Y-147357284D01*
X133319430Y-147450486D01*
X133377169Y-147531279D01*
X133429162Y-147600767D01*
X133476344Y-147660054D01*
X133519647Y-147710243D01*
X133560005Y-147752440D01*
X133598352Y-147787748D01*
X133635622Y-147817272D01*
X133672748Y-147842116D01*
X133693333Y-147854123D01*
X133745536Y-147879264D01*
X133795424Y-147894144D01*
X133846674Y-147898942D01*
X133902962Y-147893840D01*
X133967967Y-147879019D01*
X134001003Y-147869239D01*
X134039398Y-147857462D01*
X134072080Y-147847829D01*
X134095559Y-147841341D01*
X134106302Y-147839001D01*
X134116490Y-147846705D01*
X134127412Y-147867106D01*
X134137435Y-147896131D01*
X134144922Y-147929710D01*
X134146212Y-147938387D01*
X134147747Y-147979888D01*
X134143581Y-148028163D01*
X134134783Y-148076074D01*
X134122419Y-148116485D01*
X134118148Y-148126131D01*
X134105641Y-148144385D01*
X134084842Y-148162466D01*
X134052584Y-148182924D01*
X134036233Y-148192087D01*
X133983858Y-148221210D01*
X133943917Y-148245154D01*
X133913748Y-148266409D01*
X133890687Y-148287466D01*
X133872073Y-148310814D01*
X133855243Y-148338946D01*
X133837534Y-148374351D01*
X133834458Y-148380821D01*
X133817827Y-148415883D01*
X133804087Y-148444745D01*
X133794711Y-148464321D01*
X133791186Y-148471509D01*
X133783316Y-148470037D01*
X133764608Y-148464333D01*
X133752269Y-148460179D01*
X133717492Y-148451674D01*
X133678388Y-148447461D01*
X133640925Y-148447696D01*
X133611068Y-148452538D01*
X133601797Y-148456212D01*
X133580311Y-148473397D01*
X133554409Y-148503066D01*
X133526338Y-148542141D01*
X133498352Y-148587542D01*
X133477672Y-148626074D01*
X133437260Y-148717869D01*
X133401318Y-148822221D01*
X133371525Y-148933878D01*
X133361330Y-148974553D01*
X133352276Y-149001728D01*
X133343032Y-149018655D01*
X133332947Y-149028151D01*
X133296493Y-149060512D01*
X133261457Y-149108135D01*
X133228633Y-149169362D01*
X133198816Y-149242533D01*
X133172800Y-149325990D01*
X133155153Y-149399537D01*
X133147048Y-149439169D01*
X133143426Y-149465114D01*
X133145354Y-149480272D01*
X133153897Y-149487541D01*
X133170121Y-149489821D01*
X133188408Y-149490000D01*
X133233816Y-149490000D01*
X133247961Y-149418773D01*
X133263569Y-149352005D01*
X133283139Y-149286700D01*
X133305158Y-149227112D01*
X133328117Y-149177492D01*
X133342202Y-149153537D01*
X133357881Y-149130500D01*
X133369563Y-149114409D01*
X133374411Y-149109000D01*
X133386683Y-149111811D01*
X133406715Y-149118716D01*
X133428765Y-149127428D01*
X133447089Y-149135658D01*
X133455942Y-149141118D01*
X133456098Y-149141546D01*
X133454888Y-149152205D01*
X133451887Y-149174634D01*
X133448010Y-149202134D01*
X133441672Y-149265110D01*
X133438476Y-149343615D01*
X133438467Y-149436533D01*
X133438476Y-149437084D01*
X133439333Y-149490000D01*
X133529261Y-149490000D01*
X133529665Y-149386284D01*
X133530812Y-149336367D01*
X133533590Y-149283461D01*
X133537544Y-149234885D01*
X133540870Y-149206642D01*
X133551671Y-149130717D01*
X133616152Y-149061886D01*
X133662718Y-149017232D01*
X133721827Y-148969471D01*
X133794113Y-148918187D01*
X133880211Y-148862965D01*
X133980754Y-148803388D01*
X134096378Y-148739041D01*
X134163233Y-148703261D01*
X134360471Y-148606024D01*
X134570500Y-148515735D01*
X134790263Y-148433373D01*
X135016704Y-148359918D01*
X135246767Y-148296349D01*
X135477395Y-148243644D01*
X135705532Y-148202784D01*
X135742266Y-148197314D01*
X135803279Y-148190310D01*
X135873346Y-148185276D01*
X135948845Y-148182210D01*
X136026156Y-148181111D01*
X136101658Y-148181978D01*
X136171730Y-148184810D01*
X136232752Y-148189605D01*
X136281102Y-148196362D01*
X136286868Y-148197509D01*
X136320348Y-148203954D01*
X136347121Y-148208074D01*
X136363216Y-148209305D01*
X136365965Y-148208724D01*
X136363563Y-148199822D01*
X136352593Y-148178847D01*
X136334236Y-148147575D01*
X136309670Y-148107780D01*
X136293489Y-148082331D01*
X136180941Y-148082331D01*
X136001820Y-148086943D01*
X135839287Y-148096451D01*
X135666131Y-148116586D01*
X135484497Y-148146855D01*
X135296535Y-148186766D01*
X135104391Y-148235825D01*
X134910212Y-148293541D01*
X134716145Y-148359421D01*
X134565400Y-148416488D01*
X134496623Y-148445050D01*
X134417233Y-148480194D01*
X134330711Y-148520212D01*
X134240539Y-148563396D01*
X134150197Y-148608036D01*
X134063169Y-148652424D01*
X133982934Y-148694851D01*
X133912974Y-148733609D01*
X133879620Y-148753051D01*
X133840616Y-148775795D01*
X133807015Y-148794368D01*
X133781315Y-148807472D01*
X133766013Y-148813808D01*
X133762850Y-148813785D01*
X133764668Y-148803276D01*
X133771506Y-148780524D01*
X133782231Y-148749064D01*
X133793423Y-148718473D01*
X133822237Y-148644196D01*
X133852742Y-148569577D01*
X133856641Y-148560503D01*
X133748791Y-148560503D01*
X133747488Y-148569524D01*
X133740889Y-148591092D01*
X133730044Y-148622058D01*
X133716006Y-148659272D01*
X133714762Y-148662461D01*
X133697640Y-148708630D01*
X133681131Y-148757294D01*
X133667375Y-148801924D01*
X133659980Y-148829541D01*
X133649881Y-148867408D01*
X133639074Y-148894856D01*
X133624419Y-148918223D01*
X133603948Y-148942546D01*
X133563415Y-148985924D01*
X133531189Y-149016588D01*
X133505615Y-149035517D01*
X133485041Y-149043693D01*
X133467814Y-149042095D01*
X133452797Y-149032190D01*
X133451699Y-149021272D01*
X133455015Y-148996565D01*
X133462322Y-148960505D01*
X133472888Y-148916725D01*
X133502452Y-148813057D01*
X133534010Y-148725175D01*
X133568034Y-148652001D01*
X133604997Y-148592456D01*
X133627167Y-148564651D01*
X133655233Y-148532676D01*
X133699914Y-148544491D01*
X133725447Y-148551767D01*
X133743501Y-148557888D01*
X133748791Y-148560503D01*
X133856641Y-148560503D01*
X133883012Y-148499142D01*
X133911121Y-148437413D01*
X133926866Y-148405006D01*
X133940984Y-148379626D01*
X133957023Y-148357729D01*
X133977228Y-148337652D01*
X134003842Y-148317736D01*
X134039109Y-148296320D01*
X134085272Y-148271743D01*
X134144574Y-148242345D01*
X134150533Y-148239455D01*
X134443539Y-148106813D01*
X134745453Y-147988469D01*
X135055930Y-147884537D01*
X135374628Y-147795132D01*
X135701204Y-147720368D01*
X135721099Y-147716339D01*
X135770548Y-147706330D01*
X135814862Y-147697233D01*
X135851122Y-147689659D01*
X135876404Y-147684217D01*
X135887487Y-147681609D01*
X135898118Y-147686719D01*
X135916607Y-147704835D01*
X135941896Y-147734568D01*
X135972927Y-147774529D01*
X136008641Y-147823329D01*
X136047979Y-147879579D01*
X136089884Y-147941889D01*
X136114598Y-147979716D01*
X136180941Y-148082331D01*
X136293489Y-148082331D01*
X136280075Y-148061236D01*
X136246630Y-148009720D01*
X136210513Y-147955005D01*
X136172905Y-147898866D01*
X136134985Y-147843079D01*
X136097931Y-147789417D01*
X136062924Y-147739657D01*
X136031141Y-147695571D01*
X136003764Y-147658937D01*
X135984405Y-147634457D01*
X135966041Y-147612193D01*
X135750733Y-147612193D01*
X135750733Y-147612206D01*
X135743241Y-147616118D01*
X135724385Y-147620665D01*
X135714749Y-147622339D01*
X135679853Y-147628712D01*
X135631586Y-147638825D01*
X135572915Y-147651962D01*
X135506807Y-147667406D01*
X135436228Y-147684441D01*
X135364144Y-147702351D01*
X135293521Y-147720419D01*
X135227326Y-147737929D01*
X135168525Y-147754164D01*
X135166533Y-147754731D01*
X135036311Y-147793324D01*
X134903296Y-147835645D01*
X134770689Y-147880540D01*
X134641694Y-147926859D01*
X134519514Y-147973448D01*
X134407352Y-148019156D01*
X134308411Y-148062831D01*
X134302933Y-148065377D01*
X134271615Y-148079786D01*
X134246804Y-148090841D01*
X134231949Y-148097023D01*
X134229271Y-148097795D01*
X134229597Y-148089541D01*
X134232018Y-148068776D01*
X134236032Y-148039723D01*
X134236747Y-148034871D01*
X134240629Y-147982199D01*
X134237996Y-147927322D01*
X134229519Y-147876105D01*
X134215869Y-147834414D01*
X134213189Y-147828901D01*
X134205092Y-147811341D01*
X134202618Y-147801903D01*
X134202825Y-147801583D01*
X134211400Y-147798244D01*
X134232940Y-147790497D01*
X134264395Y-147779424D01*
X134302710Y-147766107D01*
X134311400Y-147763107D01*
X134497263Y-147695708D01*
X134672305Y-147625546D01*
X134835729Y-147553054D01*
X134986736Y-147478661D01*
X135124528Y-147402799D01*
X135248307Y-147325897D01*
X135357274Y-147248387D01*
X135450632Y-147170699D01*
X135502413Y-147120468D01*
X135546194Y-147074988D01*
X135551537Y-147116211D01*
X135563512Y-147175988D01*
X135585016Y-147246849D01*
X135615208Y-147326490D01*
X135653245Y-147412609D01*
X135679498Y-147466461D01*
X135701916Y-147511143D01*
X135721440Y-147550494D01*
X135736878Y-147582077D01*
X135747039Y-147603456D01*
X135750733Y-147612193D01*
X135966041Y-147612193D01*
X135938407Y-147578692D01*
X135895129Y-147587249D01*
X135870199Y-147591496D01*
X135853122Y-147593124D01*
X135848774Y-147592520D01*
X135844218Y-147584287D01*
X135833296Y-147563227D01*
X135817193Y-147531666D01*
X135797096Y-147491933D01*
X135774192Y-147446356D01*
X135769423Y-147436834D01*
X135732061Y-147360511D01*
X135702649Y-147296172D01*
X135680360Y-147241321D01*
X135664365Y-147193461D01*
X135653837Y-147150095D01*
X135647948Y-147108729D01*
X135645868Y-147066865D01*
X135645847Y-147064301D01*
X135646627Y-147019129D01*
X135650544Y-146981821D01*
X135658998Y-146947608D01*
X135673388Y-146911721D01*
X135695112Y-146869390D01*
X135711666Y-146839934D01*
X135757699Y-146759501D01*
X135819833Y-146754598D01*
X135871110Y-146747914D01*
X135912856Y-146735293D01*
X135952157Y-146714053D01*
X135980430Y-146693834D01*
X136022398Y-146668704D01*
X136060863Y-146658252D01*
X136143931Y-146643025D01*
X136216712Y-146620219D01*
X136284933Y-146587757D01*
X136328221Y-146561367D01*
X136372303Y-146528864D01*
X136417025Y-146489817D01*
X136457209Y-146449091D01*
X136487677Y-146411553D01*
X136487681Y-146411548D01*
X136503579Y-146397606D01*
X136527541Y-146385260D01*
X136533900Y-146383003D01*
X136592404Y-146359123D01*
X136653131Y-146325377D01*
X136708952Y-146286013D01*
X136735979Y-146262560D01*
X136759643Y-146240214D01*
X136778025Y-146223179D01*
X136788192Y-146214162D01*
X136789280Y-146213401D01*
X136791836Y-146220912D01*
X136796789Y-146240388D01*
X136801728Y-146261703D01*
X136815199Y-146303682D01*
X136833095Y-146329766D01*
X136855111Y-146339757D01*
X136880944Y-146333453D01*
X136895842Y-146323626D01*
X136918394Y-146296227D01*
X136934858Y-146256358D01*
X136944656Y-146207559D01*
X136947208Y-146153370D01*
X136941938Y-146097332D01*
X136936866Y-146072480D01*
X136931448Y-146047679D01*
X136931156Y-146030679D01*
X136937495Y-146014729D01*
X136951967Y-145993077D01*
X136955724Y-145987813D01*
X136992150Y-145926485D01*
X137024659Y-145851329D01*
X137052805Y-145765093D01*
X137076141Y-145670522D01*
X137094221Y-145570364D01*
X137106599Y-145467364D01*
X137112829Y-145364269D01*
X137112464Y-145263826D01*
X137105058Y-145168781D01*
X137097262Y-145116661D01*
X137090907Y-145079288D01*
X137086393Y-145048482D01*
X137084191Y-145027776D01*
X137084486Y-145020759D01*
X137089411Y-145026235D01*
X137099606Y-145044065D01*
X137113389Y-145071161D01*
X137123507Y-145092349D01*
X137139477Y-145125238D01*
X137153753Y-145152240D01*
X137164323Y-145169670D01*
X137168033Y-145173988D01*
X137191005Y-145180205D01*
X137215519Y-145173592D01*
X137227837Y-145163897D01*
X137234956Y-145154695D01*
X137238344Y-145144243D01*
X137238074Y-145128406D01*
X137234217Y-145103052D01*
X137229364Y-145077114D01*
X137223417Y-145043155D01*
X137216218Y-144997497D01*
X137208536Y-144945255D01*
X137201136Y-144891543D01*
X137200362Y-144885613D01*
X137102962Y-144885613D01*
X137102167Y-144890188D01*
X137094489Y-144886830D01*
X137077924Y-144874030D01*
X137055605Y-144854277D01*
X137047899Y-144847030D01*
X137018463Y-144820750D01*
X136996288Y-144805684D01*
X136978123Y-144799767D01*
X136972977Y-144799467D01*
X136949851Y-144801990D01*
X136935406Y-144810819D01*
X136929357Y-144827847D01*
X136931424Y-144854967D01*
X136941324Y-144894073D01*
X136953319Y-144931229D01*
X136992305Y-145071182D01*
X137014767Y-145213264D01*
X137020715Y-145357898D01*
X137010162Y-145505503D01*
X136983120Y-145656502D01*
X136974515Y-145691968D01*
X136951254Y-145774477D01*
X136927162Y-145841580D01*
X136901560Y-145894799D01*
X136873768Y-145935661D01*
X136858541Y-145952225D01*
X136833419Y-145979126D01*
X136820873Y-146000769D01*
X136819609Y-146021610D01*
X136828333Y-146046104D01*
X136830171Y-146049866D01*
X136841269Y-146077448D01*
X136848270Y-146102503D01*
X136853730Y-146129805D01*
X136821750Y-146108103D01*
X136798978Y-146094827D01*
X136779606Y-146087155D01*
X136774513Y-146086401D01*
X136761850Y-146092884D01*
X136743110Y-146110215D01*
X136721701Y-146135214D01*
X136720502Y-146136764D01*
X136661659Y-146201017D01*
X136595178Y-146251381D01*
X136522578Y-146286815D01*
X136484225Y-146298667D01*
X136458364Y-146307578D01*
X136438431Y-146321860D01*
X136418109Y-146346203D01*
X136415676Y-146349561D01*
X136357350Y-146416990D01*
X136287216Y-146474969D01*
X136208992Y-146520760D01*
X136151484Y-146544071D01*
X136123720Y-146552779D01*
X136103086Y-146558248D01*
X136093963Y-146559321D01*
X136093926Y-146559287D01*
X136096621Y-146550747D01*
X136107518Y-146530691D01*
X136125084Y-146501458D01*
X136147782Y-146465385D01*
X136174078Y-146424812D01*
X136202438Y-146382075D01*
X136231327Y-146339515D01*
X136259210Y-146299469D01*
X136284552Y-146264274D01*
X136305820Y-146236270D01*
X136306448Y-146235479D01*
X136356934Y-146170154D01*
X136396486Y-146114316D01*
X136426251Y-146065586D01*
X136447378Y-146021586D01*
X136461013Y-145979937D01*
X136468304Y-145938260D01*
X136470399Y-145895562D01*
X136465999Y-145833710D01*
X136453646Y-145764114D01*
X136434610Y-145690262D01*
X136410163Y-145615645D01*
X136381575Y-145543752D01*
X136350118Y-145478073D01*
X136317062Y-145422096D01*
X136283677Y-145379312D01*
X136281585Y-145377130D01*
X136233218Y-145337751D01*
X136180430Y-145313284D01*
X136125359Y-145304187D01*
X136070142Y-145310921D01*
X136034929Y-145324128D01*
X135987861Y-145355297D01*
X135943564Y-145400667D01*
X135903827Y-145457534D01*
X135870440Y-145523193D01*
X135845191Y-145594942D01*
X135838667Y-145620734D01*
X135826438Y-145668080D01*
X135810588Y-145720766D01*
X135794151Y-145768835D01*
X135790926Y-145777367D01*
X135775521Y-145814885D01*
X135756151Y-145858588D01*
X135734480Y-145905079D01*
X135712173Y-145950964D01*
X135690893Y-145992848D01*
X135672305Y-146027337D01*
X135658074Y-146051034D01*
X135653946Y-146056767D01*
X135644878Y-146067267D01*
X135642970Y-146064734D01*
X135646513Y-146048300D01*
X135648673Y-146030780D01*
X135650395Y-146000184D01*
X135651539Y-145960366D01*
X135651963Y-145915181D01*
X135651924Y-145900134D01*
X135648243Y-145799916D01*
X135637830Y-145709624D01*
X135619810Y-145623295D01*
X135602360Y-145562534D01*
X135581927Y-145497967D01*
X135516047Y-145454082D01*
X135481838Y-145429063D01*
X135439853Y-145394847D01*
X135392354Y-145353612D01*
X135341606Y-145307534D01*
X135289871Y-145258790D01*
X135239412Y-145209558D01*
X135192491Y-145162014D01*
X135151373Y-145118335D01*
X135118320Y-145080699D01*
X135095595Y-145051281D01*
X135092585Y-145046728D01*
X135076392Y-145024635D01*
X135060998Y-145014132D01*
X135040457Y-145011277D01*
X135039109Y-145011263D01*
X135016862Y-145015318D01*
X135003645Y-145029444D01*
X134997835Y-145056095D01*
X134997200Y-145074548D01*
X135002192Y-145128132D01*
X135017373Y-145192103D01*
X135043043Y-145267694D01*
X135047166Y-145278438D01*
X135071722Y-145341678D01*
X135040811Y-145323186D01*
X134911962Y-145240662D01*
X134784179Y-145148356D01*
X134658965Y-145047856D01*
X134537825Y-144940755D01*
X134422263Y-144828641D01*
X134313783Y-144713107D01*
X134213890Y-144595743D01*
X134124089Y-144478139D01*
X134045882Y-144361885D01*
X133980776Y-144248574D01*
X133936960Y-144156001D01*
X133922540Y-144120153D01*
X133910288Y-144086614D01*
X133902184Y-144060921D01*
X133900611Y-144054401D01*
X133888841Y-144022345D01*
X133870441Y-144001915D01*
X133848210Y-143994590D01*
X133824948Y-144001847D01*
X133815614Y-144009529D01*
X133809195Y-144018120D01*
X133805480Y-144030473D01*
X133804174Y-144050064D01*
X133804983Y-144080368D01*
X133806856Y-144113086D01*
X133822997Y-144283972D01*
X133849305Y-144442387D01*
X133886294Y-144589773D01*
X133934476Y-144727572D01*
X133994364Y-144857224D01*
X134066471Y-144980171D01*
X134151310Y-145097853D01*
X134162213Y-145111495D01*
X134185082Y-145140608D01*
X134202798Y-145164701D01*
X134213339Y-145180920D01*
X134215238Y-145186318D01*
X134205420Y-145186938D01*
X134184123Y-145184374D01*
X134161788Y-145180324D01*
X134086595Y-145159180D01*
X134005646Y-145126327D01*
X133922715Y-145084056D01*
X133841573Y-145034658D01*
X133765992Y-144980421D01*
X133699746Y-144923637D01*
X133648112Y-144868460D01*
X133591434Y-144793861D01*
X133534193Y-144709696D01*
X133479252Y-144620711D01*
X133429476Y-144531650D01*
X133387727Y-144447261D01*
X133371460Y-144410001D01*
X133340532Y-144322057D01*
X133318675Y-144231160D01*
X133306338Y-144140999D01*
X133303970Y-144055261D01*
X133312018Y-143977635D01*
X133316397Y-143957034D01*
X133325532Y-143913809D01*
X133328407Y-143883752D01*
X133324936Y-143864266D01*
X133315032Y-143852751D01*
X133312889Y-143851498D01*
X133292938Y-143844208D01*
X133282340Y-143842734D01*
X133266067Y-143848760D01*
X133240338Y-143865787D01*
X133207033Y-143892237D01*
X133168034Y-143926532D01*
X133125220Y-143967096D01*
X133081961Y-144010799D01*
X132999278Y-144105806D01*
X132926722Y-144208512D01*
X132863415Y-144320622D01*
X132808479Y-144443842D01*
X132761036Y-144579876D01*
X132728302Y-144697426D01*
X132707230Y-144788244D01*
X132692759Y-144868853D01*
X132684240Y-144944345D01*
X132681024Y-145019815D01*
X132681346Y-145066167D01*
X132682788Y-145108709D01*
X132685446Y-145146860D01*
X132689930Y-145183508D01*
X132696855Y-145221544D01*
X132706831Y-145263856D01*
X132720472Y-145313334D01*
X132738390Y-145372868D01*
X132761196Y-145445346D01*
X132762688Y-145450029D01*
X132785052Y-145520407D01*
X132802768Y-145577437D01*
X132816369Y-145623892D01*
X132826384Y-145662544D01*
X132833344Y-145696169D01*
X132837779Y-145727540D01*
X132840220Y-145759429D01*
X132841197Y-145794611D01*
X132841241Y-145835860D01*
X132841076Y-145859917D01*
X132839993Y-146001734D01*
X132929628Y-146001734D01*
X132935611Y-145897998D01*
X132937828Y-145846720D01*
X132937878Y-145799989D01*
X132935283Y-145755132D01*
X132929564Y-145709476D01*
X132920243Y-145660345D01*
X132906841Y-145605068D01*
X132888880Y-145540969D01*
X132865880Y-145465374D01*
X132848084Y-145409067D01*
X132821655Y-145323263D01*
X132801428Y-145250066D01*
X132786876Y-145186550D01*
X132777468Y-145129783D01*
X132772677Y-145076838D01*
X132771972Y-145024785D01*
X132773194Y-144994435D01*
X132784140Y-144889593D01*
X132804681Y-144778459D01*
X132833621Y-144664576D01*
X132869767Y-144551488D01*
X132911923Y-144442737D01*
X132958897Y-144341867D01*
X133009493Y-144252422D01*
X133037244Y-144211034D01*
X133062435Y-144177221D01*
X133090719Y-144141438D01*
X133119916Y-144106189D01*
X133147844Y-144073982D01*
X133172322Y-144047323D01*
X133191169Y-144028718D01*
X133202203Y-144020675D01*
X133203027Y-144020534D01*
X133206440Y-144028365D01*
X133209078Y-144049325D01*
X133210552Y-144079613D01*
X133210733Y-144095799D01*
X133217670Y-144199858D01*
X133238697Y-144306765D01*
X133274137Y-144417487D01*
X133324313Y-144532997D01*
X133389546Y-144654264D01*
X133405271Y-144680689D01*
X133468050Y-144779973D01*
X133528153Y-144865071D01*
X133587455Y-144938111D01*
X133647830Y-145001216D01*
X133711155Y-145056514D01*
X133779303Y-145106129D01*
X133782303Y-145108123D01*
X133873415Y-145164618D01*
X133958872Y-145208924D01*
X134042816Y-145242663D01*
X134129387Y-145267459D01*
X134222726Y-145284933D01*
X134239433Y-145287274D01*
X134284292Y-145293183D01*
X134315461Y-145296733D01*
X134336026Y-145297886D01*
X134349071Y-145296605D01*
X134357681Y-145292849D01*
X134364939Y-145286581D01*
X134365828Y-145285696D01*
X134374926Y-145273930D01*
X134378345Y-145260648D01*
X134375174Y-145243969D01*
X134364503Y-145222012D01*
X134345422Y-145192897D01*
X134317020Y-145154741D01*
X134279205Y-145106687D01*
X134219210Y-145030308D01*
X134169284Y-144963649D01*
X134127884Y-144904106D01*
X134093469Y-144849073D01*
X134064497Y-144795944D01*
X134039426Y-144742113D01*
X134016716Y-144684975D01*
X133997883Y-144631161D01*
X133984810Y-144589821D01*
X133971345Y-144543605D01*
X133958411Y-144496122D01*
X133946933Y-144450983D01*
X133937834Y-144411799D01*
X133932039Y-144382181D01*
X133930399Y-144367429D01*
X133934794Y-144371012D01*
X133946944Y-144386612D01*
X133965303Y-144412098D01*
X133988321Y-144445339D01*
X134005692Y-144471056D01*
X134097994Y-144599588D01*
X134202022Y-144727679D01*
X134315631Y-144853379D01*
X134436682Y-144974738D01*
X134563033Y-145089804D01*
X134692541Y-145196628D01*
X134823065Y-145293260D01*
X134952463Y-145377749D01*
X135078593Y-145448144D01*
X135078702Y-145448199D01*
X135130426Y-145473483D01*
X135169876Y-145490307D01*
X135199178Y-145499118D01*
X135220460Y-145500362D01*
X135235850Y-145494485D01*
X135246486Y-145483383D01*
X135256236Y-145466667D01*
X135257800Y-145452051D01*
X135250019Y-145435195D01*
X135231737Y-145411757D01*
X135225434Y-145404411D01*
X135209140Y-145383000D01*
X135190120Y-145354179D01*
X135170689Y-145321989D01*
X135153162Y-145290470D01*
X135139854Y-145263661D01*
X135133079Y-145245601D01*
X135132666Y-145242512D01*
X135138347Y-145246041D01*
X135154069Y-145259682D01*
X135177856Y-145281623D01*
X135207731Y-145310050D01*
X135232149Y-145333759D01*
X135292658Y-145392030D01*
X135344353Y-145439604D01*
X135389585Y-145478518D01*
X135430705Y-145510805D01*
X135464276Y-145534623D01*
X135491478Y-145556270D01*
X135508320Y-145579718D01*
X135517230Y-145601786D01*
X135541396Y-145695529D01*
X135555713Y-145799243D01*
X135560067Y-145909040D01*
X135554341Y-146021033D01*
X135538418Y-146131334D01*
X135533722Y-146154134D01*
X135523019Y-146206172D01*
X135517212Y-146244065D01*
X135516705Y-146269995D01*
X135521907Y-146286146D01*
X135533223Y-146294699D01*
X135551061Y-146297838D01*
X135560537Y-146298067D01*
X135576335Y-146296211D01*
X135590960Y-146288860D01*
X135608068Y-146273339D01*
X135631314Y-146246971D01*
X135632845Y-146245151D01*
X135693016Y-146165800D01*
X135751155Y-146074602D01*
X135805238Y-145975696D01*
X135853242Y-145873218D01*
X135893144Y-145771307D01*
X135922919Y-145674103D01*
X135932674Y-145632031D01*
X135949714Y-145573135D01*
X135974892Y-145518393D01*
X136006183Y-145470650D01*
X136041564Y-145432754D01*
X136079008Y-145407553D01*
X136097110Y-145400804D01*
X136137562Y-145398034D01*
X136176469Y-145411956D01*
X136213866Y-145442610D01*
X136249792Y-145490033D01*
X136284284Y-145554263D01*
X136312753Y-145622774D01*
X136338329Y-145697273D01*
X136358095Y-145767768D01*
X136371256Y-145830920D01*
X136377013Y-145883390D01*
X136377207Y-145892719D01*
X136375062Y-145929855D01*
X136367712Y-145965432D01*
X136353925Y-146001900D01*
X136332470Y-146041710D01*
X136302115Y-146087313D01*
X136261631Y-146141157D01*
X136236462Y-146172860D01*
X136206438Y-146211940D01*
X136172075Y-146259429D01*
X136137709Y-146309198D01*
X136108949Y-146353101D01*
X136064714Y-146422804D01*
X136028203Y-146479598D01*
X135998252Y-146524987D01*
X135973697Y-146560473D01*
X135953374Y-146587562D01*
X135936121Y-146607756D01*
X135920772Y-146622561D01*
X135906165Y-146633479D01*
X135891135Y-146642015D01*
X135882039Y-146646344D01*
X135847612Y-146656756D01*
X135808135Y-146661067D01*
X135771519Y-146658778D01*
X135755101Y-146654383D01*
X135735465Y-146650341D01*
X135718222Y-146656403D01*
X135700836Y-146674450D01*
X135680770Y-146706363D01*
X135677765Y-146711751D01*
X135645224Y-146767434D01*
X135606366Y-146828809D01*
X135564351Y-146891241D01*
X135522340Y-146950097D01*
X135483496Y-147000743D01*
X135467229Y-147020394D01*
X135417917Y-147072955D01*
X135358820Y-147126348D01*
X135288070Y-147182116D01*
X135203796Y-147241805D01*
X135179233Y-147258294D01*
X135078640Y-147321170D01*
X134966508Y-147383625D01*
X134842051Y-147446004D01*
X134704484Y-147508655D01*
X134553023Y-147571922D01*
X134386882Y-147636153D01*
X134205276Y-147701693D01*
X134061877Y-147750766D01*
X133994873Y-147772702D01*
X133941021Y-147788765D01*
X133897688Y-147799212D01*
X133862241Y-147804300D01*
X133832046Y-147804285D01*
X133804470Y-147799423D01*
X133776880Y-147789973D01*
X133755799Y-147780599D01*
X133708622Y-147752229D01*
X133655607Y-147709301D01*
X133597755Y-147652746D01*
X133536066Y-147583498D01*
X133509479Y-147551134D01*
X133479061Y-147511781D01*
X133442713Y-147462303D01*
X133401889Y-147404891D01*
X133358045Y-147341740D01*
X133312637Y-147275041D01*
X133267120Y-147206988D01*
X133222949Y-147139773D01*
X133181580Y-147075590D01*
X133144470Y-147016631D01*
X133113072Y-146965090D01*
X133088843Y-146923158D01*
X133074602Y-146895939D01*
X133016421Y-146754502D01*
X132972900Y-146604741D01*
X132944021Y-146446580D01*
X132929767Y-146279942D01*
X132928567Y-146240924D01*
X132927419Y-146208764D01*
X132925644Y-146184149D01*
X132923566Y-146171105D01*
X132922866Y-146170026D01*
X132912608Y-146169049D01*
X132891379Y-146167770D01*
X132878416Y-146167133D01*
X132861249Y-146166222D01*
X132849365Y-146167034D01*
X132841863Y-146172130D01*
X132837844Y-146184068D01*
X132836409Y-146205412D01*
X132836659Y-146238720D01*
X132837626Y-146283251D01*
X132838025Y-146318300D01*
X132837723Y-146345961D01*
X132836796Y-146362604D01*
X132835927Y-146365801D01*
X132829602Y-146359606D01*
X132815022Y-146342794D01*
X132794443Y-146318027D01*
X132773124Y-146291717D01*
X132701538Y-146197298D01*
X132633705Y-146096824D01*
X132567808Y-145987338D01*
X132502026Y-145865885D01*
X132461754Y-145785834D01*
X132405691Y-145666119D01*
X132360025Y-145555387D01*
X132323896Y-145449974D01*
X132296443Y-145346212D01*
X132276807Y-145240437D01*
X132264126Y-145128982D01*
X132257541Y-145008183D01*
X132256085Y-144909534D01*
X132257767Y-144793966D01*
X132263447Y-144691048D01*
X132273677Y-144596851D01*
X132289009Y-144507445D01*
X132309995Y-144418901D01*
X132337186Y-144327290D01*
X132338323Y-144323775D01*
X132353586Y-144273649D01*
X132361905Y-144236963D01*
X132363080Y-144211626D01*
X132356912Y-144195547D01*
X132343202Y-144186634D01*
X132324911Y-144183074D01*
X132309658Y-144183512D01*
X132295251Y-144189827D01*
X132277823Y-144204526D01*
X132255125Y-144228348D01*
X132150209Y-144351857D01*
X132059756Y-144477456D01*
X131981346Y-144608526D01*
X131976545Y-144617434D01*
X131931210Y-144702101D01*
X131936103Y-144596267D01*
X131940592Y-144521502D01*
X131947237Y-144451236D01*
X131956673Y-144381497D01*
X131969532Y-144308309D01*
X131986448Y-144227702D01*
X132008054Y-144135700D01*
X132012217Y-144118732D01*
X132039185Y-144012717D01*
X132064502Y-143920979D01*
X132089093Y-143841059D01*
X132113885Y-143770498D01*
X132139804Y-143706839D01*
X132167776Y-143647621D01*
X132198728Y-143590386D01*
X132232115Y-143535010D01*
X132308530Y-143422006D01*
X132392738Y-143312576D01*
X132482610Y-143208932D01*
X132576013Y-143113288D01*
X132670817Y-143027859D01*
X132764891Y-142954857D01*
X132834759Y-142908947D01*
X132955274Y-142843359D01*
X133073653Y-142793338D01*
X133192342Y-142758152D01*
X133313787Y-142737065D01*
X133432810Y-142729442D01*
X133486899Y-142728178D01*
X133526330Y-142725855D01*
X133553373Y-142721759D01*
X133570299Y-142715177D01*
X133579381Y-142705395D01*
X133582890Y-142691700D01*
X133583266Y-142682192D01*
X133580805Y-142667768D01*
X133571529Y-142653844D01*
X133552606Y-142637126D01*
X133530349Y-142620757D01*
X133461874Y-142579562D01*
X133379245Y-142542453D01*
X133284951Y-142510371D01*
X133181476Y-142484259D01*
X133157145Y-142479296D01*
X133131528Y-142473808D01*
X133114742Y-142469273D01*
X133110578Y-142467009D01*
X133121936Y-142463163D01*
X133147014Y-142458411D01*
X133182646Y-142453131D01*
X133225669Y-142447701D01*
X133272917Y-142442497D01*
X133321225Y-142437898D01*
X133367429Y-142434281D01*
X133401233Y-142432326D01*
X133553305Y-142432580D01*
X133697314Y-142447615D01*
X133791825Y-142466553D01*
X133847934Y-142482283D01*
X133907688Y-142502676D01*
X133966248Y-142525797D01*
X134018774Y-142549712D01*
X134060430Y-142572486D01*
X134066417Y-142576326D01*
X134089749Y-142589562D01*
X134109842Y-142597303D01*
X134115500Y-142598134D01*
X134127952Y-142592306D01*
X134148655Y-142576536D01*
X134174451Y-142553398D01*
X134193447Y-142534609D01*
X134275768Y-142460224D01*
X134366981Y-142396042D01*
X134427831Y-142362021D01*
X134464714Y-142344235D01*
X134500681Y-142328201D01*
X134532388Y-142315263D01*
X134556495Y-142306765D01*
X134569660Y-142304051D01*
X134570906Y-142304484D01*
X134566455Y-142310549D01*
X134551458Y-142322463D01*
X134538685Y-142331299D01*
X134513767Y-142350095D01*
X134485272Y-142375144D01*
X134456019Y-142403494D01*
X134428825Y-142432191D01*
X134406506Y-142458285D01*
X134391880Y-142478823D01*
X134387600Y-142489633D01*
X134393645Y-142518183D01*
X134411440Y-142534693D01*
X134433964Y-142538867D01*
X134454887Y-142536683D01*
X134467346Y-142531359D01*
X134467850Y-142530697D01*
X134478445Y-142524071D01*
X134501848Y-142514577D01*
X134534412Y-142503348D01*
X134572492Y-142491515D01*
X134612442Y-142480211D01*
X134650614Y-142470566D01*
X134683363Y-142463714D01*
X134683933Y-142463614D01*
X134768162Y-142452182D01*
X134863691Y-142444788D01*
X134965353Y-142441520D01*
X135067979Y-142442469D01*
X135166404Y-142447726D01*
X135230474Y-142454070D01*
X135343401Y-142474350D01*
X135462685Y-142508009D01*
X135585711Y-142554063D01*
X135709860Y-142611533D01*
X135832518Y-142679435D01*
X135834928Y-142680887D01*
X135943745Y-142753998D01*
X136044741Y-142836714D01*
X136135940Y-142926964D01*
X136215367Y-143022672D01*
X136281044Y-143121765D01*
X136313554Y-143183079D01*
X136322003Y-143199638D01*
X136331766Y-143215957D01*
X136344143Y-143233492D01*
X136360433Y-143253697D01*
X136381937Y-143278030D01*
X136409956Y-143307944D01*
X136445788Y-143344896D01*
X136490735Y-143390342D01*
X136546096Y-143445736D01*
X136564929Y-143464510D01*
X136623649Y-143522434D01*
X136681299Y-143578205D01*
X136735931Y-143630009D01*
X136785602Y-143676032D01*
X136828365Y-143714462D01*
X136862275Y-143743485D01*
X136875586Y-143754120D01*
X136912118Y-143783147D01*
X136937142Y-143805072D01*
X136949797Y-143819082D01*
X136949711Y-143824297D01*
X136929282Y-143823362D01*
X136898245Y-143816025D01*
X136860996Y-143803736D01*
X136821932Y-143787945D01*
X136785491Y-143770127D01*
X136744956Y-143750551D01*
X136714905Y-143742170D01*
X136693439Y-143744631D01*
X136683760Y-143751294D01*
X136674316Y-143766810D01*
X136674561Y-143786531D01*
X136685223Y-143812351D01*
X136707033Y-143846163D01*
X136733920Y-143881398D01*
X136813786Y-143987009D01*
X136880418Y-144087937D01*
X136935423Y-144187657D01*
X136980406Y-144289644D01*
X137016972Y-144397372D01*
X137046728Y-144514317D01*
X137062289Y-144592034D01*
X137071209Y-144642975D01*
X137079706Y-144695510D01*
X137087414Y-144746882D01*
X137093961Y-144794335D01*
X137098981Y-144835112D01*
X137102104Y-144866457D01*
X137102962Y-144885613D01*
X137200362Y-144885613D01*
X137198510Y-144871434D01*
X137180991Y-144742304D01*
X137163235Y-144628036D01*
X137144601Y-144526561D01*
X137124452Y-144435812D01*
X137102148Y-144353722D01*
X137077048Y-144278222D01*
X137048516Y-144207246D01*
X137015910Y-144138726D01*
X136978592Y-144070594D01*
X136935922Y-144000782D01*
X136923245Y-143981139D01*
X136902134Y-143948520D01*
X136889492Y-143927713D01*
X136884492Y-143916375D01*
X136886309Y-143912164D01*
X136894116Y-143912736D01*
X136899565Y-143913979D01*
X136917127Y-143916523D01*
X136947377Y-143919256D01*
X136986076Y-143921851D01*
X137028987Y-143923979D01*
X137029199Y-143923988D01*
X137083121Y-143925392D01*
X137122503Y-143924094D01*
X137149615Y-143919422D01*
X137166728Y-143910704D01*
X137176114Y-143897269D01*
X137179954Y-143879401D01*
X137180250Y-143868862D01*
X137177487Y-143859437D01*
X137169628Y-143849235D01*
X137154635Y-143836363D01*
X137130472Y-143818932D01*
X137095102Y-143795048D01*
X137074121Y-143781117D01*
X137013365Y-143739263D01*
X136953441Y-143694494D01*
X136892401Y-143645118D01*
X136828294Y-143589446D01*
X136759173Y-143525784D01*
X136683088Y-143452443D01*
X136600025Y-143369682D01*
X136547360Y-143316254D01*
X136505338Y-143272847D01*
X136472432Y-143237702D01*
X136447116Y-143209065D01*
X136427864Y-143185178D01*
X136413151Y-143164285D01*
X136401450Y-143144630D01*
X136396784Y-143135767D01*
X136345018Y-143046858D01*
X136280202Y-142956209D01*
X136205412Y-142867244D01*
X136123723Y-142783389D01*
X136038212Y-142708068D01*
X135961458Y-142651036D01*
X135859078Y-142586782D01*
X135751466Y-142528133D01*
X135641709Y-142476395D01*
X135532889Y-142432870D01*
X135428092Y-142398865D01*
X135330402Y-142375682D01*
X135297282Y-142370195D01*
X135245912Y-142363029D01*
X135203452Y-142357841D01*
X135164661Y-142354221D01*
X135124293Y-142351762D01*
X135077105Y-142350054D01*
X135022600Y-142348783D01*
X134939534Y-142348201D01*
X134865212Y-142350362D01*
X134791604Y-142355678D01*
X134710682Y-142364558D01*
X134708079Y-142364881D01*
X134683498Y-142366904D01*
X134673626Y-142365252D01*
X134676775Y-142360476D01*
X134691256Y-142353128D01*
X134715381Y-142343761D01*
X134747463Y-142332927D01*
X134785812Y-142321177D01*
X134828741Y-142309065D01*
X134872927Y-142297567D01*
X134590800Y-142297567D01*
X134586566Y-142301800D01*
X134582333Y-142297567D01*
X134586566Y-142293334D01*
X134590800Y-142297567D01*
X134872927Y-142297567D01*
X134874561Y-142297142D01*
X134921585Y-142285961D01*
X134968124Y-142276074D01*
X134995170Y-142270981D01*
X135052441Y-142260254D01*
X135094941Y-142250763D01*
X135124703Y-142241679D01*
X135143764Y-142232179D01*
X135154159Y-142221434D01*
X135157923Y-142208619D01*
X135158066Y-142204843D01*
X135154397Y-142186099D01*
X135142386Y-142171488D01*
X135120532Y-142160618D01*
X135087331Y-142153098D01*
X135041280Y-142148538D01*
X134980876Y-142146545D01*
X134933700Y-142146439D01*
X134804305Y-142154351D01*
G37*
X134804305Y-142154351D02*
X134676100Y-142175925D01*
X134551418Y-142210292D01*
X134432594Y-142256580D01*
X134321961Y-142313921D01*
X134221852Y-142381444D01*
X134157724Y-142435761D01*
X134102451Y-142487466D01*
X134037661Y-142454918D01*
X133945537Y-142415301D01*
X133839073Y-142381914D01*
X133744133Y-142359731D01*
X133688853Y-142351208D01*
X133620927Y-142345079D01*
X133544477Y-142341374D01*
X133463624Y-142340123D01*
X133382489Y-142341359D01*
X133305196Y-142345113D01*
X133235864Y-142351415D01*
X133204658Y-142355658D01*
X133114504Y-142372167D01*
X133037524Y-142391408D01*
X132974388Y-142413080D01*
X132925766Y-142436879D01*
X132892327Y-142462506D01*
X132874740Y-142489657D01*
X132872066Y-142505548D01*
X132874853Y-142524246D01*
X132884895Y-142537155D01*
X132904715Y-142545436D01*
X132936835Y-142550249D01*
X132973874Y-142552414D01*
X133071917Y-142561289D01*
X133177770Y-142580318D01*
X133269999Y-142603788D01*
X133312473Y-142616944D01*
X133339673Y-142627387D01*
X133351260Y-142634914D01*
X133346894Y-142639323D01*
X133331260Y-142640467D01*
X133311370Y-142642071D01*
X133280081Y-142646377D01*
X133242568Y-142652626D01*
X133221284Y-142656592D01*
X133082870Y-142692002D01*
X132947476Y-142743825D01*
X132815526Y-142811741D01*
X132687444Y-142895430D01*
X132563656Y-142994571D01*
X132444585Y-143108844D01*
X132330656Y-143237930D01*
X132222294Y-143381507D01*
X132182157Y-143440567D01*
X132144443Y-143498752D01*
X132114446Y-143547954D01*
X132089718Y-143592730D01*
X132067811Y-143637640D01*
X132046278Y-143687245D01*
X132035441Y-143713849D01*
X132014190Y-143771362D01*
X131991284Y-143841269D01*
X131967631Y-143920069D01*
X131944141Y-144004263D01*
X131921720Y-144090350D01*
X131901278Y-144174831D01*
X131883723Y-144254205D01*
X131869963Y-144324973D01*
X131860908Y-144383634D01*
X131860315Y-144388537D01*
X131856453Y-144418920D01*
X131852677Y-144444524D01*
X131850538Y-144456270D01*
X131848652Y-144473182D01*
X131847024Y-144503935D01*
X131845681Y-144545442D01*
X131844654Y-144594614D01*
X131843972Y-144648360D01*
X131843665Y-144703591D01*
X131843760Y-144757219D01*
X131844289Y-144806155D01*
X131845280Y-144847308D01*
X131846569Y-144874804D01*
X131849401Y-144912456D01*
X131852657Y-144937137D01*
X131857500Y-144952791D01*
X131865091Y-144963364D01*
X131875116Y-144971707D01*
X131891528Y-144982862D01*
X131902628Y-144983972D01*
X131916619Y-144975193D01*
X131920084Y-144972570D01*
X131935162Y-144955067D01*
X131950627Y-144924415D01*
X131967039Y-144879901D01*
X131992996Y-144810506D01*
X132026628Y-144733821D01*
X132065023Y-144655773D01*
X132105270Y-144582287D01*
X132143479Y-144520742D01*
X132164799Y-144489813D01*
X132182672Y-144465341D01*
X132195078Y-144450001D01*
X132199871Y-144446183D01*
X132200202Y-144455630D01*
X132197943Y-144477776D01*
X132193544Y-144508662D01*
X132190842Y-144525213D01*
X132179992Y-144595831D01*
X132172112Y-144664049D01*
X132166867Y-144734529D01*
X132163922Y-144811932D01*
X132162944Y-144900917D01*
X132162944Y-144913767D01*
X132165836Y-145050255D01*
X132174697Y-145174357D01*
X132190260Y-145289795D01*
X132213261Y-145400287D01*
X132244434Y-145509553D01*
X132284513Y-145621314D01*
X132319292Y-145705400D01*
X132374481Y-145825047D01*
X132435478Y-145943623D01*
X132500766Y-146058743D01*
X132568828Y-146168027D01*
X132638149Y-146269089D01*
X132707211Y-146359547D01*
X132774497Y-146437017D01*
X132804195Y-146467401D01*
X132860376Y-146522434D01*
X132879825Y-146611334D01*
X132896629Y-146682720D01*
X132914959Y-146748385D01*
X132935932Y-146810688D01*
X132960668Y-146871989D01*
X132990285Y-146934647D01*
X133025903Y-147001021D01*
X133068641Y-147073471D01*
X133119616Y-147154356D01*
X133179949Y-147246035D01*
X133182979Y-147250567D01*
X133255011Y-147357284D01*
X133319430Y-147450486D01*
X133377169Y-147531279D01*
X133429162Y-147600767D01*
X133476344Y-147660054D01*
X133519647Y-147710243D01*
X133560005Y-147752440D01*
X133598352Y-147787748D01*
X133635622Y-147817272D01*
X133672748Y-147842116D01*
X133693333Y-147854123D01*
X133745536Y-147879264D01*
X133795424Y-147894144D01*
X133846674Y-147898942D01*
X133902962Y-147893840D01*
X133967967Y-147879019D01*
X134001003Y-147869239D01*
X134039398Y-147857462D01*
X134072080Y-147847829D01*
X134095559Y-147841341D01*
X134106302Y-147839001D01*
X134116490Y-147846705D01*
X134127412Y-147867106D01*
X134137435Y-147896131D01*
X134144922Y-147929710D01*
X134146212Y-147938387D01*
X134147747Y-147979888D01*
X134143581Y-148028163D01*
X134134783Y-148076074D01*
X134122419Y-148116485D01*
X134118148Y-148126131D01*
X134105641Y-148144385D01*
X134084842Y-148162466D01*
X134052584Y-148182924D01*
X134036233Y-148192087D01*
X133983858Y-148221210D01*
X133943917Y-148245154D01*
X133913748Y-148266409D01*
X133890687Y-148287466D01*
X133872073Y-148310814D01*
X133855243Y-148338946D01*
X133837534Y-148374351D01*
X133834458Y-148380821D01*
X133817827Y-148415883D01*
X133804087Y-148444745D01*
X133794711Y-148464321D01*
X133791186Y-148471509D01*
X133783316Y-148470037D01*
X133764608Y-148464333D01*
X133752269Y-148460179D01*
X133717492Y-148451674D01*
X133678388Y-148447461D01*
X133640925Y-148447696D01*
X133611068Y-148452538D01*
X133601797Y-148456212D01*
X133580311Y-148473397D01*
X133554409Y-148503066D01*
X133526338Y-148542141D01*
X133498352Y-148587542D01*
X133477672Y-148626074D01*
X133437260Y-148717869D01*
X133401318Y-148822221D01*
X133371525Y-148933878D01*
X133361330Y-148974553D01*
X133352276Y-149001728D01*
X133343032Y-149018655D01*
X133332947Y-149028151D01*
X133296493Y-149060512D01*
X133261457Y-149108135D01*
X133228633Y-149169362D01*
X133198816Y-149242533D01*
X133172800Y-149325990D01*
X133155153Y-149399537D01*
X133147048Y-149439169D01*
X133143426Y-149465114D01*
X133145354Y-149480272D01*
X133153897Y-149487541D01*
X133170121Y-149489821D01*
X133188408Y-149490000D01*
X133233816Y-149490000D01*
X133247961Y-149418773D01*
X133263569Y-149352005D01*
X133283139Y-149286700D01*
X133305158Y-149227112D01*
X133328117Y-149177492D01*
X133342202Y-149153537D01*
X133357881Y-149130500D01*
X133369563Y-149114409D01*
X133374411Y-149109000D01*
X133386683Y-149111811D01*
X133406715Y-149118716D01*
X133428765Y-149127428D01*
X133447089Y-149135658D01*
X133455942Y-149141118D01*
X133456098Y-149141546D01*
X133454888Y-149152205D01*
X133451887Y-149174634D01*
X133448010Y-149202134D01*
X133441672Y-149265110D01*
X133438476Y-149343615D01*
X133438467Y-149436533D01*
X133438476Y-149437084D01*
X133439333Y-149490000D01*
X133529261Y-149490000D01*
X133529665Y-149386284D01*
X133530812Y-149336367D01*
X133533590Y-149283461D01*
X133537544Y-149234885D01*
X133540870Y-149206642D01*
X133551671Y-149130717D01*
X133616152Y-149061886D01*
X133662718Y-149017232D01*
X133721827Y-148969471D01*
X133794113Y-148918187D01*
X133880211Y-148862965D01*
X133980754Y-148803388D01*
X134096378Y-148739041D01*
X134163233Y-148703261D01*
X134360471Y-148606024D01*
X134570500Y-148515735D01*
X134790263Y-148433373D01*
X135016704Y-148359918D01*
X135246767Y-148296349D01*
X135477395Y-148243644D01*
X135705532Y-148202784D01*
X135742266Y-148197314D01*
X135803279Y-148190310D01*
X135873346Y-148185276D01*
X135948845Y-148182210D01*
X136026156Y-148181111D01*
X136101658Y-148181978D01*
X136171730Y-148184810D01*
X136232752Y-148189605D01*
X136281102Y-148196362D01*
X136286868Y-148197509D01*
X136320348Y-148203954D01*
X136347121Y-148208074D01*
X136363216Y-148209305D01*
X136365965Y-148208724D01*
X136363563Y-148199822D01*
X136352593Y-148178847D01*
X136334236Y-148147575D01*
X136309670Y-148107780D01*
X136293489Y-148082331D01*
X136180941Y-148082331D01*
X136001820Y-148086943D01*
X135839287Y-148096451D01*
X135666131Y-148116586D01*
X135484497Y-148146855D01*
X135296535Y-148186766D01*
X135104391Y-148235825D01*
X134910212Y-148293541D01*
X134716145Y-148359421D01*
X134565400Y-148416488D01*
X134496623Y-148445050D01*
X134417233Y-148480194D01*
X134330711Y-148520212D01*
X134240539Y-148563396D01*
X134150197Y-148608036D01*
X134063169Y-148652424D01*
X133982934Y-148694851D01*
X133912974Y-148733609D01*
X133879620Y-148753051D01*
X133840616Y-148775795D01*
X133807015Y-148794368D01*
X133781315Y-148807472D01*
X133766013Y-148813808D01*
X133762850Y-148813785D01*
X133764668Y-148803276D01*
X133771506Y-148780524D01*
X133782231Y-148749064D01*
X133793423Y-148718473D01*
X133822237Y-148644196D01*
X133852742Y-148569577D01*
X133856641Y-148560503D01*
X133748791Y-148560503D01*
X133747488Y-148569524D01*
X133740889Y-148591092D01*
X133730044Y-148622058D01*
X133716006Y-148659272D01*
X133714762Y-148662461D01*
X133697640Y-148708630D01*
X133681131Y-148757294D01*
X133667375Y-148801924D01*
X133659980Y-148829541D01*
X133649881Y-148867408D01*
X133639074Y-148894856D01*
X133624419Y-148918223D01*
X133603948Y-148942546D01*
X133563415Y-148985924D01*
X133531189Y-149016588D01*
X133505615Y-149035517D01*
X133485041Y-149043693D01*
X133467814Y-149042095D01*
X133452797Y-149032190D01*
X133451699Y-149021272D01*
X133455015Y-148996565D01*
X133462322Y-148960505D01*
X133472888Y-148916725D01*
X133502452Y-148813057D01*
X133534010Y-148725175D01*
X133568034Y-148652001D01*
X133604997Y-148592456D01*
X133627167Y-148564651D01*
X133655233Y-148532676D01*
X133699914Y-148544491D01*
X133725447Y-148551767D01*
X133743501Y-148557888D01*
X133748791Y-148560503D01*
X133856641Y-148560503D01*
X133883012Y-148499142D01*
X133911121Y-148437413D01*
X133926866Y-148405006D01*
X133940984Y-148379626D01*
X133957023Y-148357729D01*
X133977228Y-148337652D01*
X134003842Y-148317736D01*
X134039109Y-148296320D01*
X134085272Y-148271743D01*
X134144574Y-148242345D01*
X134150533Y-148239455D01*
X134443539Y-148106813D01*
X134745453Y-147988469D01*
X135055930Y-147884537D01*
X135374628Y-147795132D01*
X135701204Y-147720368D01*
X135721099Y-147716339D01*
X135770548Y-147706330D01*
X135814862Y-147697233D01*
X135851122Y-147689659D01*
X135876404Y-147684217D01*
X135887487Y-147681609D01*
X135898118Y-147686719D01*
X135916607Y-147704835D01*
X135941896Y-147734568D01*
X135972927Y-147774529D01*
X136008641Y-147823329D01*
X136047979Y-147879579D01*
X136089884Y-147941889D01*
X136114598Y-147979716D01*
X136180941Y-148082331D01*
X136293489Y-148082331D01*
X136280075Y-148061236D01*
X136246630Y-148009720D01*
X136210513Y-147955005D01*
X136172905Y-147898866D01*
X136134985Y-147843079D01*
X136097931Y-147789417D01*
X136062924Y-147739657D01*
X136031141Y-147695571D01*
X136003764Y-147658937D01*
X135984405Y-147634457D01*
X135966041Y-147612193D01*
X135750733Y-147612193D01*
X135750733Y-147612206D01*
X135743241Y-147616118D01*
X135724385Y-147620665D01*
X135714749Y-147622339D01*
X135679853Y-147628712D01*
X135631586Y-147638825D01*
X135572915Y-147651962D01*
X135506807Y-147667406D01*
X135436228Y-147684441D01*
X135364144Y-147702351D01*
X135293521Y-147720419D01*
X135227326Y-147737929D01*
X135168525Y-147754164D01*
X135166533Y-147754731D01*
X135036311Y-147793324D01*
X134903296Y-147835645D01*
X134770689Y-147880540D01*
X134641694Y-147926859D01*
X134519514Y-147973448D01*
X134407352Y-148019156D01*
X134308411Y-148062831D01*
X134302933Y-148065377D01*
X134271615Y-148079786D01*
X134246804Y-148090841D01*
X134231949Y-148097023D01*
X134229271Y-148097795D01*
X134229597Y-148089541D01*
X134232018Y-148068776D01*
X134236032Y-148039723D01*
X134236747Y-148034871D01*
X134240629Y-147982199D01*
X134237996Y-147927322D01*
X134229519Y-147876105D01*
X134215869Y-147834414D01*
X134213189Y-147828901D01*
X134205092Y-147811341D01*
X134202618Y-147801903D01*
X134202825Y-147801583D01*
X134211400Y-147798244D01*
X134232940Y-147790497D01*
X134264395Y-147779424D01*
X134302710Y-147766107D01*
X134311400Y-147763107D01*
X134497263Y-147695708D01*
X134672305Y-147625546D01*
X134835729Y-147553054D01*
X134986736Y-147478661D01*
X135124528Y-147402799D01*
X135248307Y-147325897D01*
X135357274Y-147248387D01*
X135450632Y-147170699D01*
X135502413Y-147120468D01*
X135546194Y-147074988D01*
X135551537Y-147116211D01*
X135563512Y-147175988D01*
X135585016Y-147246849D01*
X135615208Y-147326490D01*
X135653245Y-147412609D01*
X135679498Y-147466461D01*
X135701916Y-147511143D01*
X135721440Y-147550494D01*
X135736878Y-147582077D01*
X135747039Y-147603456D01*
X135750733Y-147612193D01*
X135966041Y-147612193D01*
X135938407Y-147578692D01*
X135895129Y-147587249D01*
X135870199Y-147591496D01*
X135853122Y-147593124D01*
X135848774Y-147592520D01*
X135844218Y-147584287D01*
X135833296Y-147563227D01*
X135817193Y-147531666D01*
X135797096Y-147491933D01*
X135774192Y-147446356D01*
X135769423Y-147436834D01*
X135732061Y-147360511D01*
X135702649Y-147296172D01*
X135680360Y-147241321D01*
X135664365Y-147193461D01*
X135653837Y-147150095D01*
X135647948Y-147108729D01*
X135645868Y-147066865D01*
X135645847Y-147064301D01*
X135646627Y-147019129D01*
X135650544Y-146981821D01*
X135658998Y-146947608D01*
X135673388Y-146911721D01*
X135695112Y-146869390D01*
X135711666Y-146839934D01*
X135757699Y-146759501D01*
X135819833Y-146754598D01*
X135871110Y-146747914D01*
X135912856Y-146735293D01*
X135952157Y-146714053D01*
X135980430Y-146693834D01*
X136022398Y-146668704D01*
X136060863Y-146658252D01*
X136143931Y-146643025D01*
X136216712Y-146620219D01*
X136284933Y-146587757D01*
X136328221Y-146561367D01*
X136372303Y-146528864D01*
X136417025Y-146489817D01*
X136457209Y-146449091D01*
X136487677Y-146411553D01*
X136487681Y-146411548D01*
X136503579Y-146397606D01*
X136527541Y-146385260D01*
X136533900Y-146383003D01*
X136592404Y-146359123D01*
X136653131Y-146325377D01*
X136708952Y-146286013D01*
X136735979Y-146262560D01*
X136759643Y-146240214D01*
X136778025Y-146223179D01*
X136788192Y-146214162D01*
X136789280Y-146213401D01*
X136791836Y-146220912D01*
X136796789Y-146240388D01*
X136801728Y-146261703D01*
X136815199Y-146303682D01*
X136833095Y-146329766D01*
X136855111Y-146339757D01*
X136880944Y-146333453D01*
X136895842Y-146323626D01*
X136918394Y-146296227D01*
X136934858Y-146256358D01*
X136944656Y-146207559D01*
X136947208Y-146153370D01*
X136941938Y-146097332D01*
X136936866Y-146072480D01*
X136931448Y-146047679D01*
X136931156Y-146030679D01*
X136937495Y-146014729D01*
X136951967Y-145993077D01*
X136955724Y-145987813D01*
X136992150Y-145926485D01*
X137024659Y-145851329D01*
X137052805Y-145765093D01*
X137076141Y-145670522D01*
X137094221Y-145570364D01*
X137106599Y-145467364D01*
X137112829Y-145364269D01*
X137112464Y-145263826D01*
X137105058Y-145168781D01*
X137097262Y-145116661D01*
X137090907Y-145079288D01*
X137086393Y-145048482D01*
X137084191Y-145027776D01*
X137084486Y-145020759D01*
X137089411Y-145026235D01*
X137099606Y-145044065D01*
X137113389Y-145071161D01*
X137123507Y-145092349D01*
X137139477Y-145125238D01*
X137153753Y-145152240D01*
X137164323Y-145169670D01*
X137168033Y-145173988D01*
X137191005Y-145180205D01*
X137215519Y-145173592D01*
X137227837Y-145163897D01*
X137234956Y-145154695D01*
X137238344Y-145144243D01*
X137238074Y-145128406D01*
X137234217Y-145103052D01*
X137229364Y-145077114D01*
X137223417Y-145043155D01*
X137216218Y-144997497D01*
X137208536Y-144945255D01*
X137201136Y-144891543D01*
X137200362Y-144885613D01*
X137102962Y-144885613D01*
X137102167Y-144890188D01*
X137094489Y-144886830D01*
X137077924Y-144874030D01*
X137055605Y-144854277D01*
X137047899Y-144847030D01*
X137018463Y-144820750D01*
X136996288Y-144805684D01*
X136978123Y-144799767D01*
X136972977Y-144799467D01*
X136949851Y-144801990D01*
X136935406Y-144810819D01*
X136929357Y-144827847D01*
X136931424Y-144854967D01*
X136941324Y-144894073D01*
X136953319Y-144931229D01*
X136992305Y-145071182D01*
X137014767Y-145213264D01*
X137020715Y-145357898D01*
X137010162Y-145505503D01*
X136983120Y-145656502D01*
X136974515Y-145691968D01*
X136951254Y-145774477D01*
X136927162Y-145841580D01*
X136901560Y-145894799D01*
X136873768Y-145935661D01*
X136858541Y-145952225D01*
X136833419Y-145979126D01*
X136820873Y-146000769D01*
X136819609Y-146021610D01*
X136828333Y-146046104D01*
X136830171Y-146049866D01*
X136841269Y-146077448D01*
X136848270Y-146102503D01*
X136853730Y-146129805D01*
X136821750Y-146108103D01*
X136798978Y-146094827D01*
X136779606Y-146087155D01*
X136774513Y-146086401D01*
X136761850Y-146092884D01*
X136743110Y-146110215D01*
X136721701Y-146135214D01*
X136720502Y-146136764D01*
X136661659Y-146201017D01*
X136595178Y-146251381D01*
X136522578Y-146286815D01*
X136484225Y-146298667D01*
X136458364Y-146307578D01*
X136438431Y-146321860D01*
X136418109Y-146346203D01*
X136415676Y-146349561D01*
X136357350Y-146416990D01*
X136287216Y-146474969D01*
X136208992Y-146520760D01*
X136151484Y-146544071D01*
X136123720Y-146552779D01*
X136103086Y-146558248D01*
X136093963Y-146559321D01*
X136093926Y-146559287D01*
X136096621Y-146550747D01*
X136107518Y-146530691D01*
X136125084Y-146501458D01*
X136147782Y-146465385D01*
X136174078Y-146424812D01*
X136202438Y-146382075D01*
X136231327Y-146339515D01*
X136259210Y-146299469D01*
X136284552Y-146264274D01*
X136305820Y-146236270D01*
X136306448Y-146235479D01*
X136356934Y-146170154D01*
X136396486Y-146114316D01*
X136426251Y-146065586D01*
X136447378Y-146021586D01*
X136461013Y-145979937D01*
X136468304Y-145938260D01*
X136470399Y-145895562D01*
X136465999Y-145833710D01*
X136453646Y-145764114D01*
X136434610Y-145690262D01*
X136410163Y-145615645D01*
X136381575Y-145543752D01*
X136350118Y-145478073D01*
X136317062Y-145422096D01*
X136283677Y-145379312D01*
X136281585Y-145377130D01*
X136233218Y-145337751D01*
X136180430Y-145313284D01*
X136125359Y-145304187D01*
X136070142Y-145310921D01*
X136034929Y-145324128D01*
X135987861Y-145355297D01*
X135943564Y-145400667D01*
X135903827Y-145457534D01*
X135870440Y-145523193D01*
X135845191Y-145594942D01*
X135838667Y-145620734D01*
X135826438Y-145668080D01*
X135810588Y-145720766D01*
X135794151Y-145768835D01*
X135790926Y-145777367D01*
X135775521Y-145814885D01*
X135756151Y-145858588D01*
X135734480Y-145905079D01*
X135712173Y-145950964D01*
X135690893Y-145992848D01*
X135672305Y-146027337D01*
X135658074Y-146051034D01*
X135653946Y-146056767D01*
X135644878Y-146067267D01*
X135642970Y-146064734D01*
X135646513Y-146048300D01*
X135648673Y-146030780D01*
X135650395Y-146000184D01*
X135651539Y-145960366D01*
X135651963Y-145915181D01*
X135651924Y-145900134D01*
X135648243Y-145799916D01*
X135637830Y-145709624D01*
X135619810Y-145623295D01*
X135602360Y-145562534D01*
X135581927Y-145497967D01*
X135516047Y-145454082D01*
X135481838Y-145429063D01*
X135439853Y-145394847D01*
X135392354Y-145353612D01*
X135341606Y-145307534D01*
X135289871Y-145258790D01*
X135239412Y-145209558D01*
X135192491Y-145162014D01*
X135151373Y-145118335D01*
X135118320Y-145080699D01*
X135095595Y-145051281D01*
X135092585Y-145046728D01*
X135076392Y-145024635D01*
X135060998Y-145014132D01*
X135040457Y-145011277D01*
X135039109Y-145011263D01*
X135016862Y-145015318D01*
X135003645Y-145029444D01*
X134997835Y-145056095D01*
X134997200Y-145074548D01*
X135002192Y-145128132D01*
X135017373Y-145192103D01*
X135043043Y-145267694D01*
X135047166Y-145278438D01*
X135071722Y-145341678D01*
X135040811Y-145323186D01*
X134911962Y-145240662D01*
X134784179Y-145148356D01*
X134658965Y-145047856D01*
X134537825Y-144940755D01*
X134422263Y-144828641D01*
X134313783Y-144713107D01*
X134213890Y-144595743D01*
X134124089Y-144478139D01*
X134045882Y-144361885D01*
X133980776Y-144248574D01*
X133936960Y-144156001D01*
X133922540Y-144120153D01*
X133910288Y-144086614D01*
X133902184Y-144060921D01*
X133900611Y-144054401D01*
X133888841Y-144022345D01*
X133870441Y-144001915D01*
X133848210Y-143994590D01*
X133824948Y-144001847D01*
X133815614Y-144009529D01*
X133809195Y-144018120D01*
X133805480Y-144030473D01*
X133804174Y-144050064D01*
X133804983Y-144080368D01*
X133806856Y-144113086D01*
X133822997Y-144283972D01*
X133849305Y-144442387D01*
X133886294Y-144589773D01*
X133934476Y-144727572D01*
X133994364Y-144857224D01*
X134066471Y-144980171D01*
X134151310Y-145097853D01*
X134162213Y-145111495D01*
X134185082Y-145140608D01*
X134202798Y-145164701D01*
X134213339Y-145180920D01*
X134215238Y-145186318D01*
X134205420Y-145186938D01*
X134184123Y-145184374D01*
X134161788Y-145180324D01*
X134086595Y-145159180D01*
X134005646Y-145126327D01*
X133922715Y-145084056D01*
X133841573Y-145034658D01*
X133765992Y-144980421D01*
X133699746Y-144923637D01*
X133648112Y-144868460D01*
X133591434Y-144793861D01*
X133534193Y-144709696D01*
X133479252Y-144620711D01*
X133429476Y-144531650D01*
X133387727Y-144447261D01*
X133371460Y-144410001D01*
X133340532Y-144322057D01*
X133318675Y-144231160D01*
X133306338Y-144140999D01*
X133303970Y-144055261D01*
X133312018Y-143977635D01*
X133316397Y-143957034D01*
X133325532Y-143913809D01*
X133328407Y-143883752D01*
X133324936Y-143864266D01*
X133315032Y-143852751D01*
X133312889Y-143851498D01*
X133292938Y-143844208D01*
X133282340Y-143842734D01*
X133266067Y-143848760D01*
X133240338Y-143865787D01*
X133207033Y-143892237D01*
X133168034Y-143926532D01*
X133125220Y-143967096D01*
X133081961Y-144010799D01*
X132999278Y-144105806D01*
X132926722Y-144208512D01*
X132863415Y-144320622D01*
X132808479Y-144443842D01*
X132761036Y-144579876D01*
X132728302Y-144697426D01*
X132707230Y-144788244D01*
X132692759Y-144868853D01*
X132684240Y-144944345D01*
X132681024Y-145019815D01*
X132681346Y-145066167D01*
X132682788Y-145108709D01*
X132685446Y-145146860D01*
X132689930Y-145183508D01*
X132696855Y-145221544D01*
X132706831Y-145263856D01*
X132720472Y-145313334D01*
X132738390Y-145372868D01*
X132761196Y-145445346D01*
X132762688Y-145450029D01*
X132785052Y-145520407D01*
X132802768Y-145577437D01*
X132816369Y-145623892D01*
X132826384Y-145662544D01*
X132833344Y-145696169D01*
X132837779Y-145727540D01*
X132840220Y-145759429D01*
X132841197Y-145794611D01*
X132841241Y-145835860D01*
X132841076Y-145859917D01*
X132839993Y-146001734D01*
X132929628Y-146001734D01*
X132935611Y-145897998D01*
X132937828Y-145846720D01*
X132937878Y-145799989D01*
X132935283Y-145755132D01*
X132929564Y-145709476D01*
X132920243Y-145660345D01*
X132906841Y-145605068D01*
X132888880Y-145540969D01*
X132865880Y-145465374D01*
X132848084Y-145409067D01*
X132821655Y-145323263D01*
X132801428Y-145250066D01*
X132786876Y-145186550D01*
X132777468Y-145129783D01*
X132772677Y-145076838D01*
X132771972Y-145024785D01*
X132773194Y-144994435D01*
X132784140Y-144889593D01*
X132804681Y-144778459D01*
X132833621Y-144664576D01*
X132869767Y-144551488D01*
X132911923Y-144442737D01*
X132958897Y-144341867D01*
X133009493Y-144252422D01*
X133037244Y-144211034D01*
X133062435Y-144177221D01*
X133090719Y-144141438D01*
X133119916Y-144106189D01*
X133147844Y-144073982D01*
X133172322Y-144047323D01*
X133191169Y-144028718D01*
X133202203Y-144020675D01*
X133203027Y-144020534D01*
X133206440Y-144028365D01*
X133209078Y-144049325D01*
X133210552Y-144079613D01*
X133210733Y-144095799D01*
X133217670Y-144199858D01*
X133238697Y-144306765D01*
X133274137Y-144417487D01*
X133324313Y-144532997D01*
X133389546Y-144654264D01*
X133405271Y-144680689D01*
X133468050Y-144779973D01*
X133528153Y-144865071D01*
X133587455Y-144938111D01*
X133647830Y-145001216D01*
X133711155Y-145056514D01*
X133779303Y-145106129D01*
X133782303Y-145108123D01*
X133873415Y-145164618D01*
X133958872Y-145208924D01*
X134042816Y-145242663D01*
X134129387Y-145267459D01*
X134222726Y-145284933D01*
X134239433Y-145287274D01*
X134284292Y-145293183D01*
X134315461Y-145296733D01*
X134336026Y-145297886D01*
X134349071Y-145296605D01*
X134357681Y-145292849D01*
X134364939Y-145286581D01*
X134365828Y-145285696D01*
X134374926Y-145273930D01*
X134378345Y-145260648D01*
X134375174Y-145243969D01*
X134364503Y-145222012D01*
X134345422Y-145192897D01*
X134317020Y-145154741D01*
X134279205Y-145106687D01*
X134219210Y-145030308D01*
X134169284Y-144963649D01*
X134127884Y-144904106D01*
X134093469Y-144849073D01*
X134064497Y-144795944D01*
X134039426Y-144742113D01*
X134016716Y-144684975D01*
X133997883Y-144631161D01*
X133984810Y-144589821D01*
X133971345Y-144543605D01*
X133958411Y-144496122D01*
X133946933Y-144450983D01*
X133937834Y-144411799D01*
X133932039Y-144382181D01*
X133930399Y-144367429D01*
X133934794Y-144371012D01*
X133946944Y-144386612D01*
X133965303Y-144412098D01*
X133988321Y-144445339D01*
X134005692Y-144471056D01*
X134097994Y-144599588D01*
X134202022Y-144727679D01*
X134315631Y-144853379D01*
X134436682Y-144974738D01*
X134563033Y-145089804D01*
X134692541Y-145196628D01*
X134823065Y-145293260D01*
X134952463Y-145377749D01*
X135078593Y-145448144D01*
X135078702Y-145448199D01*
X135130426Y-145473483D01*
X135169876Y-145490307D01*
X135199178Y-145499118D01*
X135220460Y-145500362D01*
X135235850Y-145494485D01*
X135246486Y-145483383D01*
X135256236Y-145466667D01*
X135257800Y-145452051D01*
X135250019Y-145435195D01*
X135231737Y-145411757D01*
X135225434Y-145404411D01*
X135209140Y-145383000D01*
X135190120Y-145354179D01*
X135170689Y-145321989D01*
X135153162Y-145290470D01*
X135139854Y-145263661D01*
X135133079Y-145245601D01*
X135132666Y-145242512D01*
X135138347Y-145246041D01*
X135154069Y-145259682D01*
X135177856Y-145281623D01*
X135207731Y-145310050D01*
X135232149Y-145333759D01*
X135292658Y-145392030D01*
X135344353Y-145439604D01*
X135389585Y-145478518D01*
X135430705Y-145510805D01*
X135464276Y-145534623D01*
X135491478Y-145556270D01*
X135508320Y-145579718D01*
X135517230Y-145601786D01*
X135541396Y-145695529D01*
X135555713Y-145799243D01*
X135560067Y-145909040D01*
X135554341Y-146021033D01*
X135538418Y-146131334D01*
X135533722Y-146154134D01*
X135523019Y-146206172D01*
X135517212Y-146244065D01*
X135516705Y-146269995D01*
X135521907Y-146286146D01*
X135533223Y-146294699D01*
X135551061Y-146297838D01*
X135560537Y-146298067D01*
X135576335Y-146296211D01*
X135590960Y-146288860D01*
X135608068Y-146273339D01*
X135631314Y-146246971D01*
X135632845Y-146245151D01*
X135693016Y-146165800D01*
X135751155Y-146074602D01*
X135805238Y-145975696D01*
X135853242Y-145873218D01*
X135893144Y-145771307D01*
X135922919Y-145674103D01*
X135932674Y-145632031D01*
X135949714Y-145573135D01*
X135974892Y-145518393D01*
X136006183Y-145470650D01*
X136041564Y-145432754D01*
X136079008Y-145407553D01*
X136097110Y-145400804D01*
X136137562Y-145398034D01*
X136176469Y-145411956D01*
X136213866Y-145442610D01*
X136249792Y-145490033D01*
X136284284Y-145554263D01*
X136312753Y-145622774D01*
X136338329Y-145697273D01*
X136358095Y-145767768D01*
X136371256Y-145830920D01*
X136377013Y-145883390D01*
X136377207Y-145892719D01*
X136375062Y-145929855D01*
X136367712Y-145965432D01*
X136353925Y-146001900D01*
X136332470Y-146041710D01*
X136302115Y-146087313D01*
X136261631Y-146141157D01*
X136236462Y-146172860D01*
X136206438Y-146211940D01*
X136172075Y-146259429D01*
X136137709Y-146309198D01*
X136108949Y-146353101D01*
X136064714Y-146422804D01*
X136028203Y-146479598D01*
X135998252Y-146524987D01*
X135973697Y-146560473D01*
X135953374Y-146587562D01*
X135936121Y-146607756D01*
X135920772Y-146622561D01*
X135906165Y-146633479D01*
X135891135Y-146642015D01*
X135882039Y-146646344D01*
X135847612Y-146656756D01*
X135808135Y-146661067D01*
X135771519Y-146658778D01*
X135755101Y-146654383D01*
X135735465Y-146650341D01*
X135718222Y-146656403D01*
X135700836Y-146674450D01*
X135680770Y-146706363D01*
X135677765Y-146711751D01*
X135645224Y-146767434D01*
X135606366Y-146828809D01*
X135564351Y-146891241D01*
X135522340Y-146950097D01*
X135483496Y-147000743D01*
X135467229Y-147020394D01*
X135417917Y-147072955D01*
X135358820Y-147126348D01*
X135288070Y-147182116D01*
X135203796Y-147241805D01*
X135179233Y-147258294D01*
X135078640Y-147321170D01*
X134966508Y-147383625D01*
X134842051Y-147446004D01*
X134704484Y-147508655D01*
X134553023Y-147571922D01*
X134386882Y-147636153D01*
X134205276Y-147701693D01*
X134061877Y-147750766D01*
X133994873Y-147772702D01*
X133941021Y-147788765D01*
X133897688Y-147799212D01*
X133862241Y-147804300D01*
X133832046Y-147804285D01*
X133804470Y-147799423D01*
X133776880Y-147789973D01*
X133755799Y-147780599D01*
X133708622Y-147752229D01*
X133655607Y-147709301D01*
X133597755Y-147652746D01*
X133536066Y-147583498D01*
X133509479Y-147551134D01*
X133479061Y-147511781D01*
X133442713Y-147462303D01*
X133401889Y-147404891D01*
X133358045Y-147341740D01*
X133312637Y-147275041D01*
X133267120Y-147206988D01*
X133222949Y-147139773D01*
X133181580Y-147075590D01*
X133144470Y-147016631D01*
X133113072Y-146965090D01*
X133088843Y-146923158D01*
X133074602Y-146895939D01*
X133016421Y-146754502D01*
X132972900Y-146604741D01*
X132944021Y-146446580D01*
X132929767Y-146279942D01*
X132928567Y-146240924D01*
X132927419Y-146208764D01*
X132925644Y-146184149D01*
X132923566Y-146171105D01*
X132922866Y-146170026D01*
X132912608Y-146169049D01*
X132891379Y-146167770D01*
X132878416Y-146167133D01*
X132861249Y-146166222D01*
X132849365Y-146167034D01*
X132841863Y-146172130D01*
X132837844Y-146184068D01*
X132836409Y-146205412D01*
X132836659Y-146238720D01*
X132837626Y-146283251D01*
X132838025Y-146318300D01*
X132837723Y-146345961D01*
X132836796Y-146362604D01*
X132835927Y-146365801D01*
X132829602Y-146359606D01*
X132815022Y-146342794D01*
X132794443Y-146318027D01*
X132773124Y-146291717D01*
X132701538Y-146197298D01*
X132633705Y-146096824D01*
X132567808Y-145987338D01*
X132502026Y-145865885D01*
X132461754Y-145785834D01*
X132405691Y-145666119D01*
X132360025Y-145555387D01*
X132323896Y-145449974D01*
X132296443Y-145346212D01*
X132276807Y-145240437D01*
X132264126Y-145128982D01*
X132257541Y-145008183D01*
X132256085Y-144909534D01*
X132257767Y-144793966D01*
X132263447Y-144691048D01*
X132273677Y-144596851D01*
X132289009Y-144507445D01*
X132309995Y-144418901D01*
X132337186Y-144327290D01*
X132338323Y-144323775D01*
X132353586Y-144273649D01*
X132361905Y-144236963D01*
X132363080Y-144211626D01*
X132356912Y-144195547D01*
X132343202Y-144186634D01*
X132324911Y-144183074D01*
X132309658Y-144183512D01*
X132295251Y-144189827D01*
X132277823Y-144204526D01*
X132255125Y-144228348D01*
X132150209Y-144351857D01*
X132059756Y-144477456D01*
X131981346Y-144608526D01*
X131976545Y-144617434D01*
X131931210Y-144702101D01*
X131936103Y-144596267D01*
X131940592Y-144521502D01*
X131947237Y-144451236D01*
X131956673Y-144381497D01*
X131969532Y-144308309D01*
X131986448Y-144227702D01*
X132008054Y-144135700D01*
X132012217Y-144118732D01*
X132039185Y-144012717D01*
X132064502Y-143920979D01*
X132089093Y-143841059D01*
X132113885Y-143770498D01*
X132139804Y-143706839D01*
X132167776Y-143647621D01*
X132198728Y-143590386D01*
X132232115Y-143535010D01*
X132308530Y-143422006D01*
X132392738Y-143312576D01*
X132482610Y-143208932D01*
X132576013Y-143113288D01*
X132670817Y-143027859D01*
X132764891Y-142954857D01*
X132834759Y-142908947D01*
X132955274Y-142843359D01*
X133073653Y-142793338D01*
X133192342Y-142758152D01*
X133313787Y-142737065D01*
X133432810Y-142729442D01*
X133486899Y-142728178D01*
X133526330Y-142725855D01*
X133553373Y-142721759D01*
X133570299Y-142715177D01*
X133579381Y-142705395D01*
X133582890Y-142691700D01*
X133583266Y-142682192D01*
X133580805Y-142667768D01*
X133571529Y-142653844D01*
X133552606Y-142637126D01*
X133530349Y-142620757D01*
X133461874Y-142579562D01*
X133379245Y-142542453D01*
X133284951Y-142510371D01*
X133181476Y-142484259D01*
X133157145Y-142479296D01*
X133131528Y-142473808D01*
X133114742Y-142469273D01*
X133110578Y-142467009D01*
X133121936Y-142463163D01*
X133147014Y-142458411D01*
X133182646Y-142453131D01*
X133225669Y-142447701D01*
X133272917Y-142442497D01*
X133321225Y-142437898D01*
X133367429Y-142434281D01*
X133401233Y-142432326D01*
X133553305Y-142432580D01*
X133697314Y-142447615D01*
X133791825Y-142466553D01*
X133847934Y-142482283D01*
X133907688Y-142502676D01*
X133966248Y-142525797D01*
X134018774Y-142549712D01*
X134060430Y-142572486D01*
X134066417Y-142576326D01*
X134089749Y-142589562D01*
X134109842Y-142597303D01*
X134115500Y-142598134D01*
X134127952Y-142592306D01*
X134148655Y-142576536D01*
X134174451Y-142553398D01*
X134193447Y-142534609D01*
X134275768Y-142460224D01*
X134366981Y-142396042D01*
X134427831Y-142362021D01*
X134464714Y-142344235D01*
X134500681Y-142328201D01*
X134532388Y-142315263D01*
X134556495Y-142306765D01*
X134569660Y-142304051D01*
X134570906Y-142304484D01*
X134566455Y-142310549D01*
X134551458Y-142322463D01*
X134538685Y-142331299D01*
X134513767Y-142350095D01*
X134485272Y-142375144D01*
X134456019Y-142403494D01*
X134428825Y-142432191D01*
X134406506Y-142458285D01*
X134391880Y-142478823D01*
X134387600Y-142489633D01*
X134393645Y-142518183D01*
X134411440Y-142534693D01*
X134433964Y-142538867D01*
X134454887Y-142536683D01*
X134467346Y-142531359D01*
X134467850Y-142530697D01*
X134478445Y-142524071D01*
X134501848Y-142514577D01*
X134534412Y-142503348D01*
X134572492Y-142491515D01*
X134612442Y-142480211D01*
X134650614Y-142470566D01*
X134683363Y-142463714D01*
X134683933Y-142463614D01*
X134768162Y-142452182D01*
X134863691Y-142444788D01*
X134965353Y-142441520D01*
X135067979Y-142442469D01*
X135166404Y-142447726D01*
X135230474Y-142454070D01*
X135343401Y-142474350D01*
X135462685Y-142508009D01*
X135585711Y-142554063D01*
X135709860Y-142611533D01*
X135832518Y-142679435D01*
X135834928Y-142680887D01*
X135943745Y-142753998D01*
X136044741Y-142836714D01*
X136135940Y-142926964D01*
X136215367Y-143022672D01*
X136281044Y-143121765D01*
X136313554Y-143183079D01*
X136322003Y-143199638D01*
X136331766Y-143215957D01*
X136344143Y-143233492D01*
X136360433Y-143253697D01*
X136381937Y-143278030D01*
X136409956Y-143307944D01*
X136445788Y-143344896D01*
X136490735Y-143390342D01*
X136546096Y-143445736D01*
X136564929Y-143464510D01*
X136623649Y-143522434D01*
X136681299Y-143578205D01*
X136735931Y-143630009D01*
X136785602Y-143676032D01*
X136828365Y-143714462D01*
X136862275Y-143743485D01*
X136875586Y-143754120D01*
X136912118Y-143783147D01*
X136937142Y-143805072D01*
X136949797Y-143819082D01*
X136949711Y-143824297D01*
X136929282Y-143823362D01*
X136898245Y-143816025D01*
X136860996Y-143803736D01*
X136821932Y-143787945D01*
X136785491Y-143770127D01*
X136744956Y-143750551D01*
X136714905Y-143742170D01*
X136693439Y-143744631D01*
X136683760Y-143751294D01*
X136674316Y-143766810D01*
X136674561Y-143786531D01*
X136685223Y-143812351D01*
X136707033Y-143846163D01*
X136733920Y-143881398D01*
X136813786Y-143987009D01*
X136880418Y-144087937D01*
X136935423Y-144187657D01*
X136980406Y-144289644D01*
X137016972Y-144397372D01*
X137046728Y-144514317D01*
X137062289Y-144592034D01*
X137071209Y-144642975D01*
X137079706Y-144695510D01*
X137087414Y-144746882D01*
X137093961Y-144794335D01*
X137098981Y-144835112D01*
X137102104Y-144866457D01*
X137102962Y-144885613D01*
X137200362Y-144885613D01*
X137198510Y-144871434D01*
X137180991Y-144742304D01*
X137163235Y-144628036D01*
X137144601Y-144526561D01*
X137124452Y-144435812D01*
X137102148Y-144353722D01*
X137077048Y-144278222D01*
X137048516Y-144207246D01*
X137015910Y-144138726D01*
X136978592Y-144070594D01*
X136935922Y-144000782D01*
X136923245Y-143981139D01*
X136902134Y-143948520D01*
X136889492Y-143927713D01*
X136884492Y-143916375D01*
X136886309Y-143912164D01*
X136894116Y-143912736D01*
X136899565Y-143913979D01*
X136917127Y-143916523D01*
X136947377Y-143919256D01*
X136986076Y-143921851D01*
X137028987Y-143923979D01*
X137029199Y-143923988D01*
X137083121Y-143925392D01*
X137122503Y-143924094D01*
X137149615Y-143919422D01*
X137166728Y-143910704D01*
X137176114Y-143897269D01*
X137179954Y-143879401D01*
X137180250Y-143868862D01*
X137177487Y-143859437D01*
X137169628Y-143849235D01*
X137154635Y-143836363D01*
X137130472Y-143818932D01*
X137095102Y-143795048D01*
X137074121Y-143781117D01*
X137013365Y-143739263D01*
X136953441Y-143694494D01*
X136892401Y-143645118D01*
X136828294Y-143589446D01*
X136759173Y-143525784D01*
X136683088Y-143452443D01*
X136600025Y-143369682D01*
X136547360Y-143316254D01*
X136505338Y-143272847D01*
X136472432Y-143237702D01*
X136447116Y-143209065D01*
X136427864Y-143185178D01*
X136413151Y-143164285D01*
X136401450Y-143144630D01*
X136396784Y-143135767D01*
X136345018Y-143046858D01*
X136280202Y-142956209D01*
X136205412Y-142867244D01*
X136123723Y-142783389D01*
X136038212Y-142708068D01*
X135961458Y-142651036D01*
X135859078Y-142586782D01*
X135751466Y-142528133D01*
X135641709Y-142476395D01*
X135532889Y-142432870D01*
X135428092Y-142398865D01*
X135330402Y-142375682D01*
X135297282Y-142370195D01*
X135245912Y-142363029D01*
X135203452Y-142357841D01*
X135164661Y-142354221D01*
X135124293Y-142351762D01*
X135077105Y-142350054D01*
X135022600Y-142348783D01*
X134939534Y-142348201D01*
X134865212Y-142350362D01*
X134791604Y-142355678D01*
X134710682Y-142364558D01*
X134708079Y-142364881D01*
X134683498Y-142366904D01*
X134673626Y-142365252D01*
X134676775Y-142360476D01*
X134691256Y-142353128D01*
X134715381Y-142343761D01*
X134747463Y-142332927D01*
X134785812Y-142321177D01*
X134828741Y-142309065D01*
X134872927Y-142297567D01*
X134590800Y-142297567D01*
X134586566Y-142301800D01*
X134582333Y-142297567D01*
X134586566Y-142293334D01*
X134590800Y-142297567D01*
X134872927Y-142297567D01*
X134874561Y-142297142D01*
X134921585Y-142285961D01*
X134968124Y-142276074D01*
X134995170Y-142270981D01*
X135052441Y-142260254D01*
X135094941Y-142250763D01*
X135124703Y-142241679D01*
X135143764Y-142232179D01*
X135154159Y-142221434D01*
X135157923Y-142208619D01*
X135158066Y-142204843D01*
X135154397Y-142186099D01*
X135142386Y-142171488D01*
X135120532Y-142160618D01*
X135087331Y-142153098D01*
X135041280Y-142148538D01*
X134980876Y-142146545D01*
X134933700Y-142146439D01*
X134804305Y-142154351D01*
G36*
X134092093Y-145744605D02*
G01*
X134065866Y-145749850D01*
X134065866Y-145943525D01*
X134065954Y-145998608D01*
X134066201Y-146047422D01*
X134066581Y-146087630D01*
X134067068Y-146116895D01*
X134067636Y-146132880D01*
X134067983Y-146135159D01*
X134076600Y-146134732D01*
X134100596Y-146134252D01*
X134138413Y-146133734D01*
X134188497Y-146133193D01*
X134249292Y-146132643D01*
X134319243Y-146132098D01*
X134396793Y-146131574D01*
X134480389Y-146131085D01*
X134525287Y-146130852D01*
X134980474Y-146128587D01*
X134978254Y-145936044D01*
X134976033Y-145743500D01*
X134936164Y-145743858D01*
X134911485Y-145745114D01*
X134894544Y-145747889D01*
X134890966Y-145749545D01*
X134889244Y-145759395D01*
X134887886Y-145783238D01*
X134886976Y-145818136D01*
X134886602Y-145861151D01*
X134886704Y-145894210D01*
X134886913Y-145946580D01*
X134886477Y-145984431D01*
X134885188Y-146010168D01*
X134882839Y-146026201D01*
X134879221Y-146034935D01*
X134874245Y-146038734D01*
X134863091Y-146039842D01*
X134836855Y-146040849D01*
X134797392Y-146041731D01*
X134746552Y-146042465D01*
X134686189Y-146043024D01*
X134618156Y-146043386D01*
X134544304Y-146043526D01*
X134509859Y-146043510D01*
X134159000Y-146043096D01*
X134159000Y-145749570D01*
X134138660Y-145744465D01*
X134115246Y-145742410D01*
X134092093Y-145744605D01*
G37*
X134092093Y-145744605D02*
X134065866Y-145749850D01*
X134065866Y-145943525D01*
X134065954Y-145998608D01*
X134066201Y-146047422D01*
X134066581Y-146087630D01*
X134067068Y-146116895D01*
X134067636Y-146132880D01*
X134067983Y-146135159D01*
X134076600Y-146134732D01*
X134100596Y-146134252D01*
X134138413Y-146133734D01*
X134188497Y-146133193D01*
X134249292Y-146132643D01*
X134319243Y-146132098D01*
X134396793Y-146131574D01*
X134480389Y-146131085D01*
X134525287Y-146130852D01*
X134980474Y-146128587D01*
X134978254Y-145936044D01*
X134976033Y-145743500D01*
X134936164Y-145743858D01*
X134911485Y-145745114D01*
X134894544Y-145747889D01*
X134890966Y-145749545D01*
X134889244Y-145759395D01*
X134887886Y-145783238D01*
X134886976Y-145818136D01*
X134886602Y-145861151D01*
X134886704Y-145894210D01*
X134886913Y-145946580D01*
X134886477Y-145984431D01*
X134885188Y-146010168D01*
X134882839Y-146026201D01*
X134879221Y-146034935D01*
X134874245Y-146038734D01*
X134863091Y-146039842D01*
X134836855Y-146040849D01*
X134797392Y-146041731D01*
X134746552Y-146042465D01*
X134686189Y-146043024D01*
X134618156Y-146043386D01*
X134544304Y-146043526D01*
X134509859Y-146043510D01*
X134159000Y-146043096D01*
X134159000Y-145749570D01*
X134138660Y-145744465D01*
X134115246Y-145742410D01*
X134092093Y-145744605D01*
G36*
X132740006Y-145744465D02*
G01*
X132719666Y-145749570D01*
X132719666Y-146137471D01*
X133634066Y-146136639D01*
X133634066Y-145747734D01*
X133615016Y-145746456D01*
X133592518Y-145745263D01*
X133568452Y-145744339D01*
X133540938Y-145743500D01*
X133540935Y-145889550D01*
X133540933Y-146035600D01*
X132812799Y-146035600D01*
X132812799Y-145749850D01*
X132786572Y-145744605D01*
X132760737Y-145742402D01*
X132740006Y-145744465D01*
G37*
X132740006Y-145744465D02*
X132719666Y-145749570D01*
X132719666Y-146137471D01*
X133634066Y-146136639D01*
X133634066Y-145747734D01*
X133615016Y-145746456D01*
X133592518Y-145745263D01*
X133568452Y-145744339D01*
X133540938Y-145743500D01*
X133540935Y-145889550D01*
X133540933Y-146035600D01*
X132812799Y-146035600D01*
X132812799Y-145749850D01*
X132786572Y-145744605D01*
X132760737Y-145742402D01*
X132740006Y-145744465D01*
G36*
X134435356Y-145338148D02*
G01*
X134414824Y-145341026D01*
X134381403Y-145347335D01*
X134362179Y-145354605D01*
X134354601Y-145366288D01*
X134356117Y-145385833D01*
X134362726Y-145411478D01*
X134369360Y-145431934D01*
X134377677Y-145439777D01*
X134393640Y-145438779D01*
X134402895Y-145436878D01*
X134423849Y-145434228D01*
X134456975Y-145432080D01*
X134497516Y-145430672D01*
X134535766Y-145430234D01*
X134579189Y-145430520D01*
X134608217Y-145431595D01*
X134625383Y-145433787D01*
X134633218Y-145437422D01*
X134634254Y-145442826D01*
X134634228Y-145442934D01*
X134630207Y-145458118D01*
X134623448Y-145482695D01*
X134619176Y-145497967D01*
X134612061Y-145535985D01*
X134608038Y-145584579D01*
X134607098Y-145637907D01*
X134609234Y-145690128D01*
X134614436Y-145735398D01*
X134619557Y-145758675D01*
X134639673Y-145810652D01*
X134665223Y-145847975D01*
X134695572Y-145870084D01*
X134730082Y-145876418D01*
X134749598Y-145873254D01*
X134778356Y-145856860D01*
X134802917Y-145825184D01*
X134822449Y-145779543D01*
X134832079Y-145742893D01*
X134840573Y-145686053D01*
X134843919Y-145624532D01*
X134841938Y-145565916D01*
X134837101Y-145529717D01*
X134833753Y-145507942D01*
X134833459Y-145495151D01*
X134834354Y-145493734D01*
X134846957Y-145498639D01*
X134867978Y-145511274D01*
X134892836Y-145528524D01*
X134916948Y-145547268D01*
X134930285Y-145559000D01*
X134960737Y-145587769D01*
X134998018Y-145573241D01*
X135020510Y-145564283D01*
X135035249Y-145558048D01*
X135038040Y-145556644D01*
X135037586Y-145547490D01*
X135028203Y-145530218D01*
X135012736Y-145508882D01*
X134994029Y-145487534D01*
X134980709Y-145474911D01*
X134946869Y-145450552D01*
X134901496Y-145424352D01*
X134849451Y-145398702D01*
X134795597Y-145375991D01*
X134744796Y-145358610D01*
X134743097Y-145358117D01*
X134691051Y-145346810D01*
X134628300Y-145338850D01*
X134560798Y-145334546D01*
X134494499Y-145334209D01*
X134435356Y-145338148D01*
G37*
X134435356Y-145338148D02*
X134414824Y-145341026D01*
X134381403Y-145347335D01*
X134362179Y-145354605D01*
X134354601Y-145366288D01*
X134356117Y-145385833D01*
X134362726Y-145411478D01*
X134369360Y-145431934D01*
X134377677Y-145439777D01*
X134393640Y-145438779D01*
X134402895Y-145436878D01*
X134423849Y-145434228D01*
X134456975Y-145432080D01*
X134497516Y-145430672D01*
X134535766Y-145430234D01*
X134579189Y-145430520D01*
X134608217Y-145431595D01*
X134625383Y-145433787D01*
X134633218Y-145437422D01*
X134634254Y-145442826D01*
X134634228Y-145442934D01*
X134630207Y-145458118D01*
X134623448Y-145482695D01*
X134619176Y-145497967D01*
X134612061Y-145535985D01*
X134608038Y-145584579D01*
X134607098Y-145637907D01*
X134609234Y-145690128D01*
X134614436Y-145735398D01*
X134619557Y-145758675D01*
X134639673Y-145810652D01*
X134665223Y-145847975D01*
X134695572Y-145870084D01*
X134730082Y-145876418D01*
X134749598Y-145873254D01*
X134778356Y-145856860D01*
X134802917Y-145825184D01*
X134822449Y-145779543D01*
X134832079Y-145742893D01*
X134840573Y-145686053D01*
X134843919Y-145624532D01*
X134841938Y-145565916D01*
X134837101Y-145529717D01*
X134833753Y-145507942D01*
X134833459Y-145495151D01*
X134834354Y-145493734D01*
X134846957Y-145498639D01*
X134867978Y-145511274D01*
X134892836Y-145528524D01*
X134916948Y-145547268D01*
X134930285Y-145559000D01*
X134960737Y-145587769D01*
X134998018Y-145573241D01*
X135020510Y-145564283D01*
X135035249Y-145558048D01*
X135038040Y-145556644D01*
X135037586Y-145547490D01*
X135028203Y-145530218D01*
X135012736Y-145508882D01*
X134994029Y-145487534D01*
X134980709Y-145474911D01*
X134946869Y-145450552D01*
X134901496Y-145424352D01*
X134849451Y-145398702D01*
X134795597Y-145375991D01*
X134744796Y-145358610D01*
X134743097Y-145358117D01*
X134691051Y-145346810D01*
X134628300Y-145338850D01*
X134560798Y-145334546D01*
X134494499Y-145334209D01*
X134435356Y-145338148D01*
G36*
X133272052Y-145340307D02*
G01*
X133207937Y-145349553D01*
X133147730Y-145366433D01*
X133086445Y-145391696D01*
X133056690Y-145407908D01*
X133025665Y-145428599D01*
X132996819Y-145450967D01*
X132973596Y-145472211D01*
X132959442Y-145489533D01*
X132956733Y-145497106D01*
X132963575Y-145506396D01*
X132981049Y-145519444D01*
X132994325Y-145527323D01*
X133031917Y-145547859D01*
X133055708Y-145523773D01*
X133076274Y-145507242D01*
X133105481Y-145488806D01*
X133131057Y-145475382D01*
X133160352Y-145463170D01*
X133193571Y-145451738D01*
X133226530Y-145442214D01*
X133255042Y-145435723D01*
X133274924Y-145433393D01*
X133281519Y-145434894D01*
X133281291Y-145444333D01*
X133277335Y-145465677D01*
X133270482Y-145494522D01*
X133269587Y-145497967D01*
X133258769Y-145556473D01*
X133255092Y-145618667D01*
X133258076Y-145680985D01*
X133267244Y-145739863D01*
X133282117Y-145791737D01*
X133302217Y-145833045D01*
X133317074Y-145851766D01*
X133342213Y-145871596D01*
X133367193Y-145877661D01*
X133391756Y-145873743D01*
X133426861Y-145855652D01*
X133454381Y-145822502D01*
X133474275Y-145774391D01*
X133486504Y-145711420D01*
X133491029Y-145633688D01*
X133491056Y-145624967D01*
X133489544Y-145571831D01*
X133485442Y-145526514D01*
X133479157Y-145493343D01*
X133478537Y-145491229D01*
X133471683Y-145465966D01*
X133471153Y-145448556D01*
X133477802Y-145430826D01*
X133486509Y-145415029D01*
X133498543Y-145392091D01*
X133505901Y-145374423D01*
X133506964Y-145369507D01*
X133498940Y-145358030D01*
X133475645Y-145348787D01*
X133438635Y-145342088D01*
X133389462Y-145338242D01*
X133346199Y-145337415D01*
X133272052Y-145340307D01*
G37*
X133272052Y-145340307D02*
X133207937Y-145349553D01*
X133147730Y-145366433D01*
X133086445Y-145391696D01*
X133056690Y-145407908D01*
X133025665Y-145428599D01*
X132996819Y-145450967D01*
X132973596Y-145472211D01*
X132959442Y-145489533D01*
X132956733Y-145497106D01*
X132963575Y-145506396D01*
X132981049Y-145519444D01*
X132994325Y-145527323D01*
X133031917Y-145547859D01*
X133055708Y-145523773D01*
X133076274Y-145507242D01*
X133105481Y-145488806D01*
X133131057Y-145475382D01*
X133160352Y-145463170D01*
X133193571Y-145451738D01*
X133226530Y-145442214D01*
X133255042Y-145435723D01*
X133274924Y-145433393D01*
X133281519Y-145434894D01*
X133281291Y-145444333D01*
X133277335Y-145465677D01*
X133270482Y-145494522D01*
X133269587Y-145497967D01*
X133258769Y-145556473D01*
X133255092Y-145618667D01*
X133258076Y-145680985D01*
X133267244Y-145739863D01*
X133282117Y-145791737D01*
X133302217Y-145833045D01*
X133317074Y-145851766D01*
X133342213Y-145871596D01*
X133367193Y-145877661D01*
X133391756Y-145873743D01*
X133426861Y-145855652D01*
X133454381Y-145822502D01*
X133474275Y-145774391D01*
X133486504Y-145711420D01*
X133491029Y-145633688D01*
X133491056Y-145624967D01*
X133489544Y-145571831D01*
X133485442Y-145526514D01*
X133479157Y-145493343D01*
X133478537Y-145491229D01*
X133471683Y-145465966D01*
X133471153Y-145448556D01*
X133477802Y-145430826D01*
X133486509Y-145415029D01*
X133498543Y-145392091D01*
X133505901Y-145374423D01*
X133506964Y-145369507D01*
X133498940Y-145358030D01*
X133475645Y-145348787D01*
X133438635Y-145342088D01*
X133389462Y-145338242D01*
X133346199Y-145337415D01*
X133272052Y-145340307D01*
D12*
%TO.C,Bend*%
X137960000Y-133410000D02*
X140620000Y-133410000D01*
X137960000Y-133410000D02*
X137960000Y-130810000D01*
X137960000Y-130810000D02*
X140620000Y-130810000D01*
X140620000Y-133410000D02*
X140620000Y-130810000D01*
X140620000Y-136010000D02*
X140620000Y-134680000D01*
X139290000Y-136010000D02*
X140620000Y-136010000D01*
%TO.C,BLE*%
X135620000Y-115450000D02*
X132960000Y-115450000D01*
X135620000Y-115450000D02*
X135620000Y-128210000D01*
X135620000Y-128210000D02*
X132960000Y-128210000D01*
X132960000Y-115450000D02*
X132960000Y-128210000D01*
X132960000Y-112850000D02*
X132960000Y-114180000D01*
X134290000Y-112850000D02*
X132960000Y-112850000D01*
%TO.C,DCDC*%
X141710000Y-139660000D02*
X144370000Y-139660000D01*
X141710000Y-139660000D02*
X141710000Y-134520000D01*
X141710000Y-134520000D02*
X144370000Y-134520000D01*
X144370000Y-139660000D02*
X144370000Y-134520000D01*
X144370000Y-142260000D02*
X144370000Y-140930000D01*
X143040000Y-142260000D02*
X144370000Y-142260000D01*
%TO.C,Motor*%
X134790000Y-142260000D02*
X136120000Y-142260000D01*
X136120000Y-142260000D02*
X136120000Y-140930000D01*
X136120000Y-139660000D02*
X136120000Y-137060000D01*
X133460000Y-137060000D02*
X136120000Y-137060000D01*
X133460000Y-139660000D02*
X133460000Y-137060000D01*
X133460000Y-139660000D02*
X136120000Y-139660000D01*
%TO.C,PW*%
X137460000Y-139660000D02*
X140120000Y-139660000D01*
X137460000Y-139660000D02*
X137460000Y-137060000D01*
X137460000Y-137060000D02*
X140120000Y-137060000D01*
X140120000Y-139660000D02*
X140120000Y-137060000D01*
X140120000Y-142260000D02*
X140120000Y-140930000D01*
X138790000Y-142260000D02*
X140120000Y-142260000D01*
%TO.C,Bend*%
D13*
X140551904Y-130108571D02*
X140409047Y-130156190D01*
X140361428Y-130203809D01*
X140313809Y-130299047D01*
X140313809Y-130441904D01*
X140361428Y-130537142D01*
X140409047Y-130584761D01*
X140504285Y-130632380D01*
X140885238Y-130632380D01*
X140885238Y-129632380D01*
X140551904Y-129632380D01*
X140456666Y-129680000D01*
X140409047Y-129727619D01*
X140361428Y-129822857D01*
X140361428Y-129918095D01*
X140409047Y-130013333D01*
X140456666Y-130060952D01*
X140551904Y-130108571D01*
X140885238Y-130108571D01*
X139504285Y-130584761D02*
X139599523Y-130632380D01*
X139790000Y-130632380D01*
X139885238Y-130584761D01*
X139932857Y-130489523D01*
X139932857Y-130108571D01*
X139885238Y-130013333D01*
X139790000Y-129965714D01*
X139599523Y-129965714D01*
X139504285Y-130013333D01*
X139456666Y-130108571D01*
X139456666Y-130203809D01*
X139932857Y-130299047D01*
X139028095Y-129965714D02*
X139028095Y-130632380D01*
X139028095Y-130060952D02*
X138980476Y-130013333D01*
X138885238Y-129965714D01*
X138742380Y-129965714D01*
X138647142Y-130013333D01*
X138599523Y-130108571D01*
X138599523Y-130632380D01*
X137694761Y-130632380D02*
X137694761Y-129632380D01*
X137694761Y-130584761D02*
X137790000Y-130632380D01*
X137980476Y-130632380D01*
X138075714Y-130584761D01*
X138123333Y-130537142D01*
X138170952Y-130441904D01*
X138170952Y-130156190D01*
X138123333Y-130060952D01*
X138075714Y-130013333D01*
X137980476Y-129965714D01*
X137790000Y-129965714D01*
X137694761Y-130013333D01*
%TO.C,BLE*%
X136968571Y-114394285D02*
X137016190Y-114537142D01*
X137063809Y-114584761D01*
X137159047Y-114632380D01*
X137301904Y-114632380D01*
X137397142Y-114584761D01*
X137444761Y-114537142D01*
X137492380Y-114441904D01*
X137492380Y-114060952D01*
X136492380Y-114060952D01*
X136492380Y-114394285D01*
X136540000Y-114489523D01*
X136587619Y-114537142D01*
X136682857Y-114584761D01*
X136778095Y-114584761D01*
X136873333Y-114537142D01*
X136920952Y-114489523D01*
X136968571Y-114394285D01*
X136968571Y-114060952D01*
X137492380Y-115537142D02*
X137492380Y-115060952D01*
X136492380Y-115060952D01*
X136968571Y-115870476D02*
X136968571Y-116203809D01*
X137492380Y-116346666D02*
X137492380Y-115870476D01*
X136492380Y-115870476D01*
X136492380Y-116346666D01*
%TO.C,DCDC*%
X141587619Y-133691904D02*
X142587619Y-133691904D01*
X142587619Y-133453809D01*
X142540000Y-133310952D01*
X142444761Y-133215714D01*
X142349523Y-133168095D01*
X142159047Y-133120476D01*
X142016190Y-133120476D01*
X141825714Y-133168095D01*
X141730476Y-133215714D01*
X141635238Y-133310952D01*
X141587619Y-133453809D01*
X141587619Y-133691904D01*
X141682857Y-132120476D02*
X141635238Y-132168095D01*
X141587619Y-132310952D01*
X141587619Y-132406190D01*
X141635238Y-132549047D01*
X141730476Y-132644285D01*
X141825714Y-132691904D01*
X142016190Y-132739523D01*
X142159047Y-132739523D01*
X142349523Y-132691904D01*
X142444761Y-132644285D01*
X142540000Y-132549047D01*
X142587619Y-132406190D01*
X142587619Y-132310952D01*
X142540000Y-132168095D01*
X142492380Y-132120476D01*
X141587619Y-131691904D02*
X142587619Y-131691904D01*
X142587619Y-131453809D01*
X142540000Y-131310952D01*
X142444761Y-131215714D01*
X142349523Y-131168095D01*
X142159047Y-131120476D01*
X142016190Y-131120476D01*
X141825714Y-131168095D01*
X141730476Y-131215714D01*
X141635238Y-131310952D01*
X141587619Y-131453809D01*
X141587619Y-131691904D01*
X141682857Y-130120476D02*
X141635238Y-130168095D01*
X141587619Y-130310952D01*
X141587619Y-130406190D01*
X141635238Y-130549047D01*
X141730476Y-130644285D01*
X141825714Y-130691904D01*
X142016190Y-130739523D01*
X142159047Y-130739523D01*
X142349523Y-130691904D01*
X142444761Y-130644285D01*
X142540000Y-130549047D01*
X142587619Y-130406190D01*
X142587619Y-130310952D01*
X142540000Y-130168095D01*
X142492380Y-130120476D01*
%TO.C,Motor*%
X132337619Y-141513333D02*
X133337619Y-141513333D01*
X132623333Y-141180000D01*
X133337619Y-140846666D01*
X132337619Y-140846666D01*
X132337619Y-140227619D02*
X132385238Y-140322857D01*
X132432857Y-140370476D01*
X132528095Y-140418095D01*
X132813809Y-140418095D01*
X132909047Y-140370476D01*
X132956666Y-140322857D01*
X133004285Y-140227619D01*
X133004285Y-140084761D01*
X132956666Y-139989523D01*
X132909047Y-139941904D01*
X132813809Y-139894285D01*
X132528095Y-139894285D01*
X132432857Y-139941904D01*
X132385238Y-139989523D01*
X132337619Y-140084761D01*
X132337619Y-140227619D01*
X133004285Y-139608571D02*
X133004285Y-139227619D01*
X133337619Y-139465714D02*
X132480476Y-139465714D01*
X132385238Y-139418095D01*
X132337619Y-139322857D01*
X132337619Y-139227619D01*
X132337619Y-138751428D02*
X132385238Y-138846666D01*
X132432857Y-138894285D01*
X132528095Y-138941904D01*
X132813809Y-138941904D01*
X132909047Y-138894285D01*
X132956666Y-138846666D01*
X133004285Y-138751428D01*
X133004285Y-138608571D01*
X132956666Y-138513333D01*
X132909047Y-138465714D01*
X132813809Y-138418095D01*
X132528095Y-138418095D01*
X132432857Y-138465714D01*
X132385238Y-138513333D01*
X132337619Y-138608571D01*
X132337619Y-138751428D01*
X132337619Y-137989523D02*
X133004285Y-137989523D01*
X132813809Y-137989523D02*
X132909047Y-137941904D01*
X132956666Y-137894285D01*
X133004285Y-137799047D01*
X133004285Y-137703809D01*
%TO.C,PW*%
X137242380Y-138846666D02*
X136242380Y-138846666D01*
X136242380Y-139227619D01*
X136290000Y-139322857D01*
X136337619Y-139370476D01*
X136432857Y-139418095D01*
X136575714Y-139418095D01*
X136670952Y-139370476D01*
X136718571Y-139322857D01*
X136766190Y-139227619D01*
X136766190Y-138846666D01*
X136242380Y-139751428D02*
X137242380Y-139989523D01*
X136528095Y-140180000D01*
X137242380Y-140370476D01*
X136242380Y-140608571D01*
%TD*%
%LPC*%
D14*
%TO.C,1N4007*%
X140540000Y-118180000D03*
D15*
X140540000Y-128340000D03*
%TD*%
D16*
%TO.C,2SC1815*%
X135290000Y-132890000D03*
X135290000Y-130350000D03*
D17*
X135290000Y-135430000D03*
%TD*%
D18*
%TO.C,Arduino_nano_33_ble1*%
X131095001Y-110765001D03*
D15*
X146335001Y-143785001D03*
X131095001Y-113305001D03*
X146335001Y-141245001D03*
X131095001Y-115845001D03*
X146335001Y-138705001D03*
X131095001Y-118385001D03*
X146335001Y-136165001D03*
X131095001Y-120925001D03*
X146335001Y-133625001D03*
X131095001Y-123465001D03*
X146335001Y-131085001D03*
X131095001Y-126005001D03*
X146335001Y-128545001D03*
X131095001Y-128545001D03*
X146335001Y-126005001D03*
X131095001Y-131085001D03*
X146335001Y-123465001D03*
X131095001Y-133625001D03*
X146335001Y-120925001D03*
X131095001Y-136165001D03*
X146335001Y-118385001D03*
X131095001Y-138705001D03*
X146335001Y-115845001D03*
X131095001Y-141245001D03*
X146335001Y-113305001D03*
X131095001Y-143785001D03*
X146335001Y-110765001D03*
X131095001Y-146325001D03*
X146335001Y-146325001D03*
%TD*%
D19*
%TO.C,Bend*%
X139290000Y-134680000D03*
D20*
X139290000Y-132140000D03*
%TD*%
D19*
%TO.C,BLE*%
X134290000Y-114180000D03*
D20*
X134290000Y-116720000D03*
X134290000Y-119260000D03*
X134290000Y-121800000D03*
X134290000Y-124340000D03*
X134290000Y-126880000D03*
%TD*%
D19*
%TO.C,DCDC*%
X143040000Y-140930000D03*
D20*
X143040000Y-138390000D03*
X143040000Y-135850000D03*
%TD*%
D21*
%TO.C,H1*%
X138790000Y-110180000D03*
%TD*%
%TO.C,H2*%
X138790000Y-146430000D03*
%TD*%
D20*
%TO.C,Motor*%
X134790000Y-138390000D03*
D19*
X134790000Y-140930000D03*
%TD*%
D15*
%TO.C,R1*%
X143540000Y-128340000D03*
D14*
X143540000Y-118180000D03*
%TD*%
%TO.C,R2*%
X137540000Y-118180000D03*
D15*
X137540000Y-128340000D03*
%TD*%
D19*
%TO.C,PW*%
X138790000Y-140930000D03*
D20*
X138790000Y-138390000D03*
%TD*%
M02*
